<svg id="Capa_1" data-name="Capa 1" xmlns="http://www.w3.org/2000/svg" viewBox="0 0 278.32 70.08"><defs><style>.cls-1{fill:none;stroke:#fff;stroke-width:2px;}</style></defs><title>bichigram</title><path class="cls-1" d="M35.29,78.07a34.27,34.27,0,0,1,10.8-1.52q6.27,0,9.76,3.28a10.5,10.5,0,0,1,3.49,8,12,12,0,0,1-1.51,5.76,11.18,11.18,0,0,1-4.18,4.39,10.54,10.54,0,0,1,5.62,3.42q2.65,2.83,2.66,8.24a14.72,14.72,0,0,1-1.26,6.34,11.22,11.22,0,0,1-3.16,4.14,14.76,14.76,0,0,1-5,2.34,32.47,32.47,0,0,1-6,1.08c-1.9.14-3.85.21-5.87.21a32.38,32.38,0,0,1-4.82-.28ZM41.41,82l.15,16.13c4.13-.24,7.1-1.07,8.93-2.48a7.41,7.41,0,0,0,2.73-6.23c0-2.74-.71-4.75-2.12-6.05a8.08,8.08,0,0,0-5.65-1.94A15.9,15.9,0,0,0,41.41,82Zm.22,20.16.14,15.77a18.52,18.52,0,0,0,4.18.43,11.45,11.45,0,0,0,7-2.16,7.44,7.44,0,0,0,2.92-6.37c0-2.81-.88-4.89-2.63-6.26a9.51,9.51,0,0,0-6-2A20.64,20.64,0,0,0,41.63,102.11Z" transform="translate(-34.29 -69.75)"/><path class="cls-1" d="M64.6,93.4l.21-4.75H75.54v34.78l-5.69.28q0-7-.29-16.95t-.35-13.5Zm11.12-9.72a4.11,4.11,0,0,1-3.2,1.3,4.84,4.84,0,0,1-3.13-.9,3.13,3.13,0,0,1-1.12-2.59,4,4,0,0,1,1.37-3,5,5,0,0,1,3.6-1.3q3.67,0,3.67,3.24A4.61,4.61,0,0,1,75.72,83.68Z" transform="translate(-34.29 -69.75)"/><path class="cls-1" d="M108.3,92l-3.09,4.61a13.11,13.11,0,0,0-3.86-1.69,15.9,15.9,0,0,0-4.5-.76c-3.26,0-5.63,1.18-7.09,3.53a16,16,0,0,0-2.2,8.6,17.26,17.26,0,0,0,2.38,9c1.58,2.64,3.65,4,6.19,4a13.56,13.56,0,0,0,5.94-1.48,11.81,11.81,0,0,0,4.5-3.42l3,3.68a15.63,15.63,0,0,1-5.4,4,18.62,18.62,0,0,1-8.27,1.73q-7,0-10.52-4.54t-3.52-12a19.27,19.27,0,0,1,4.46-12.82A14.56,14.56,0,0,1,98,89.08,22.55,22.55,0,0,1,108.3,92Z" transform="translate(-34.29 -69.75)"/><path class="cls-1" d="M143.36,100.75l-.14,12.45.36,10.15-6.62.44q.28-13.83.28-19.23T135.77,97a4.6,4.6,0,0,0-4-2.13q-2.49,0-5.22,2.6a14.81,14.81,0,0,0-3.93,6.15q-1.18,3.57-1.18,11.2t.28,8.49l-6.62.44q-.28-18.36-.29-26t-.43-21.42l-5.54.43-.36-5.54L121,70.79V97.15l.58.14a15.93,15.93,0,0,1,2.16-2.7,30.88,30.88,0,0,1,3-2.81,15.39,15.39,0,0,1,3.35-2,9.26,9.26,0,0,1,3.85-.9q4.89,0,7.2,3.34A14.73,14.73,0,0,1,143.36,100.75Z" transform="translate(-34.29 -69.75)"/><path class="cls-1" d="M148.91,93.4l.21-4.75h10.73v34.78l-5.69.28q0-7-.28-16.95t-.36-13.5ZM160,83.68a4.11,4.11,0,0,1-3.2,1.3,4.84,4.84,0,0,1-3.13-.9,3.13,3.13,0,0,1-1.12-2.59,4,4,0,0,1,1.37-3,5,5,0,0,1,3.6-1.3q3.67,0,3.67,3.24A4.61,4.61,0,0,1,160,83.68Z" transform="translate(-34.29 -69.75)"/><path class="cls-1" d="M170,93.15q3.63-4.65,10.29-4.64c4.44,0,7.75,1.34,9.9,4l.65-.22.79-4.17,4.61.43q.22,13.24.22,27.21a41.16,41.16,0,0,1-2.59,14.84,13.7,13.7,0,0,1-4.18,5.94,11,11,0,0,1-7.13,2.26,20.75,20.75,0,0,1-8-1.51,16.44,16.44,0,0,1-6.84-5.9l5-4.18a14.38,14.38,0,0,0,4.75,4.29,11.64,11.64,0,0,0,5.76,1.69,4.92,4.92,0,0,0,4.39-2.59q2.74-4.39,2.74-12.32a20.1,20.1,0,0,0-.22-3.31q-4.32,5.91-10.07,5.91a13,13,0,0,1-8.07-2.45,12.56,12.56,0,0,1-4.46-5.91,22.82,22.82,0,0,1-1.23-7.7A18.38,18.38,0,0,1,170,93.15Zm10.48,21.92a8.76,8.76,0,0,0,7.09-3.52,12.12,12.12,0,0,0,2.84-7.74,9.74,9.74,0,0,0-2.84-7.1,8.89,8.89,0,0,0-6.48-2.88A7.55,7.55,0,0,0,175,97.11a11.94,11.94,0,0,0-2.52,7.49,13.84,13.84,0,0,0,1.91,7.34Q176.27,115.08,180.52,115.07Z" transform="translate(-34.29 -69.75)"/><path class="cls-1" d="M205.57,89.66l5.19-.58.64,6.84.43-.07q3.82-7.2,10-7.2a11.55,11.55,0,0,1,5.91,1.8L225.23,96a9.36,9.36,0,0,0-5-1.65,5.6,5.6,0,0,0-4.28,2.12,14.84,14.84,0,0,0-2.92,5.76,31.36,31.36,0,0,0-1,8.53q0,4.91.36,12.68l-6.7.28q.15-11.65.15-19.29Z" transform="translate(-34.29 -69.75)"/><path class="cls-1" d="M232.89,121.23a10.54,10.54,0,0,1,.4-15.08,11.77,11.77,0,0,1,8-3,11.24,11.24,0,0,1,7.85,3v-2.74a11.9,11.9,0,0,0-1.76-7A5.22,5.22,0,0,0,243,94a8.26,8.26,0,0,0-4.5,1.19,18.14,18.14,0,0,0-4,3.63l-3.24-3.67q4.9-6.33,12.32-6.34,11.66,0,11.66,13.18t.07,21.53h-5.11l-.22-3.17-.21-.14a8.69,8.69,0,0,1-3.71,2.62,13.44,13.44,0,0,1-5.51,1.19A10.84,10.84,0,0,1,232.89,121.23Zm16.31-7.88a4.82,4.82,0,0,0-2.16-4,8.65,8.65,0,0,0-5-1.44,6.26,6.26,0,0,0-4.61,1.66,5.4,5.4,0,0,0-1.65,4,5.46,5.46,0,0,0,1.69,4,6.31,6.31,0,0,0,4.64,1.69,8.32,8.32,0,0,0,5-1.48A5.18,5.18,0,0,0,249.2,113.35Z" transform="translate(-34.29 -69.75)"/><path class="cls-1" d="M284,123.79l.29-14.55q0-14.83-4.18-14.83-3,0-6.34,3.13a15.86,15.86,0,0,0-4.6,7.81c-.53,2-.8,5.64-.8,10.88l.29,7.12-6.41.44q.15-17.64.15-21.75L262,89.73l5-.43,1.65,7.13h.29c.19-.2.44-.47.76-.83a24.75,24.75,0,0,1,1.94-1.84,32.2,32.2,0,0,1,2.92-2.3,13.3,13.3,0,0,1,7.3-2.67,6.33,6.33,0,0,1,5.08,2,13.3,13.3,0,0,1,2.59,5.76l.36.14q6.33-7.92,14.33-7.92A5.77,5.77,0,0,1,309.54,92a18.16,18.16,0,0,1,1.8,8.79V108q0,11.88.21,15.55l-6.26.43q.29-13.81.29-20.45,0-8.56-3.82-8.56t-7.67,4.39q-3.85,4.4-3.85,8.49l-.14,15.48Z" transform="translate(-34.29 -69.75)"/></svg>