<svg xmlns="http://www.w3.org/2000/svg" viewBox="0 0 824.79 204.17"><defs><style>.cls-1{fill:#fc3;}.cls-2{fill:#385a64;}</style></defs><title>logo</title><g id="Capa_2" data-name="Capa 2"><g id="Capa_1-2" data-name="Capa 1"><path class="cls-1" d="M143.58,143.41a68.33,68.33,0,0,1-24.44,36.82,65.71,65.71,0,0,1-41.41,14.09,65.42,65.42,0,0,1-34.19-9.17A69.4,69.4,0,0,1,19,160.55a65.61,65.61,0,0,1-9.16-34.11A65.94,65.94,0,0,1,19,92.15a69.48,69.48,0,0,1,24.53-24.6,65.42,65.42,0,0,1,34.19-9.17,65.77,65.77,0,0,1,41.41,14.09,68.35,68.35,0,0,1,24.44,37L137.3,111a61.27,61.27,0,0,0-22.06-33.43A59.68,59.68,0,0,0,77.73,64.83a59.55,59.55,0,0,0-31,8.32A63.21,63.21,0,0,0,24.44,95.38a59.43,59.43,0,0,0-8.31,31.06,59.57,59.57,0,0,0,8.31,31,63,63,0,0,0,22.32,22.31,59.45,59.45,0,0,0,31,8.32,59.46,59.46,0,0,0,37.51-12.81,61.71,61.71,0,0,0,22.06-33.52Z"/><path class="cls-1" d="M127.79,139.14a51.62,51.62,0,0,1-18.6,28.31,49.37,49.37,0,0,1-31.46,10.74,49.45,49.45,0,0,1-25.94-6.93,52.8,52.8,0,0,1-18.88-18.88A49.37,49.37,0,0,1,26,126.43a49.26,49.26,0,0,1,6.92-26A53,53,0,0,1,51.79,81.62a49.39,49.39,0,0,1,25.94-6.94,49.63,49.63,0,0,1,31.48,10.67,51.17,51.17,0,0,1,18.58,28.21l25.29-6.7a78.35,78.35,0,0,0-27.9-42.17A75.7,75.7,0,0,0,77.73,48.53,75.52,75.52,0,0,0,38.49,59.09a79.61,79.61,0,0,0-27.95,28A76,76,0,0,0,0,126.43a75.63,75.63,0,0,0,10.54,39.14,79.61,79.61,0,0,0,28,28,75.42,75.42,0,0,0,39.24,10.56A75.73,75.73,0,0,0,125.18,188a78.32,78.32,0,0,0,27.89-42Z"/><path class="cls-2" d="M188.38,22.06a6.86,6.86,0,0,1,4.92,2,6.75,6.75,0,0,1,0,9.67,6.85,6.85,0,0,1-4.92,2,6.66,6.66,0,0,1-4.75-2,6.75,6.75,0,0,1,0-9.67A6.67,6.67,0,0,1,188.38,22.06Zm-3,39h6.28V163.43q0,12.39,5.85,18.41a19.61,19.61,0,0,0,14.68,6,22,22,0,0,0,17.31-8l4.92,3.91q-9,10.51-22.23,10.52a25.65,25.65,0,0,1-19.09-7.89q-7.73-7.89-7.72-23Z"/><path class="cls-2" d="M212.14,199.24a30.5,30.5,0,0,1-22.61-9.37c-6.06-6.18-9.13-15.08-9.13-26.44V56.17h16.13V163.43c0,6.9,1.5,11.94,4.46,15A14.78,14.78,0,0,0,212.14,183a17.19,17.19,0,0,0,13.6-6.29l3.09-3.54,12.61,10L238.12,187C231.17,195.12,222.43,199.24,212.14,199.24ZM188.38,40.57a11.59,11.59,0,0,1-8.16-3.33,11.69,11.69,0,0,1,0-16.78,11.62,11.62,0,0,1,8.16-3.32,11.83,11.83,0,0,1,8.33,3.32,11.34,11.34,0,0,1,3.55,8.39,11.38,11.38,0,0,1-3.55,8.4A11.83,11.83,0,0,1,188.38,40.57Zm0-13.58a1.78,1.78,0,0,0-1.35.58,1.53,1.53,0,0,0-.51,1.28,1.51,1.51,0,0,0,.52,1.28,1.73,1.73,0,0,0,1.34.59,2,2,0,0,0,1.52-.58,1.57,1.57,0,0,0,.52-1.29,1.51,1.51,0,0,0-.53-1.28A1.94,1.94,0,0,0,188.38,27Z"/><path class="cls-2" d="M306.84,183.8,365.22,61.1h7.13L310.06,191.6h-6.62L241.33,61.1h7Z"/><polygon class="cls-2" points="313.17 196.53 300.33 196.53 233.53 56.17 251.4 56.17 306.83 172.35 362.11 56.17 380.15 56.17 313.17 196.53"/><path class="cls-2" d="M408.15,22.06a6.88,6.88,0,0,1,4.93,2,6.77,6.77,0,0,1,0,9.67,6.87,6.87,0,0,1-4.93,2,6.66,6.66,0,0,1-4.75-2,6.41,6.41,0,0,1-2-4.84,6.4,6.4,0,0,1,2-4.83A6.67,6.67,0,0,1,408.15,22.06Zm-3,39h6.28V163.43q0,12.39,5.85,18.41a19.63,19.63,0,0,0,14.68,6,22,22,0,0,0,17.31-8l4.93,3.91q-9,10.51-22.24,10.52a25.65,25.65,0,0,1-19.09-7.89q-7.72-7.89-7.72-23Z"/><path class="cls-2" d="M431.91,199.24a30.52,30.52,0,0,1-22.61-9.37c-6.05-6.18-9.13-15.08-9.13-26.44V56.17H416.3V163.43c0,6.9,1.5,11.94,4.46,15A14.78,14.78,0,0,0,431.91,183a17.19,17.19,0,0,0,13.6-6.29l3.09-3.54,12.61,10L457.89,187C450.94,195.12,442.2,199.24,431.91,199.24ZM408.15,40.57A11.59,11.59,0,0,1,400,37.24a11.69,11.69,0,0,1,0-16.78,11.66,11.66,0,0,1,8.16-3.32,11.83,11.83,0,0,1,8.33,3.32,11.68,11.68,0,0,1,0,16.79A11.8,11.8,0,0,1,408.15,40.57Zm0-13.58a1.76,1.76,0,0,0-1.34.58,1.84,1.84,0,0,0,0,2.56,1.73,1.73,0,0,0,1.34.59,2,2,0,0,0,1.52-.58,1.85,1.85,0,0,0,0-2.57A2,2,0,0,0,408.15,27Z"/><path class="cls-2" d="M477.05,61.1V4.92h6.28V61.1h38v6.28h-38v96.05q0,12.39,5.86,18.41a19.6,19.6,0,0,0,14.68,6,22,22,0,0,0,17.31-8l4.92,3.91q-9,10.51-22.23,10.52a25.64,25.64,0,0,1-19.09-7.89q-7.72-7.89-7.73-23V67.38H459.74V61.1Z"/><path class="cls-2" d="M503.87,199.24a30.5,30.5,0,0,1-22.61-9.37c-6.06-6.19-9.13-15.08-9.13-26.44V72.3H454.82V56.17h17.31V0h16.13V56.17h38V72.3h-38v91.13c0,6.9,1.5,11.94,4.46,15A14.76,14.76,0,0,0,503.87,183a17.19,17.19,0,0,0,13.6-6.29l3.09-3.54,12.6,10L529.84,187C522.9,195.12,514.16,199.24,503.87,199.24Z"/><path class="cls-2" d="M666.79,159A67.87,67.87,0,0,1,642,184.82a68.24,68.24,0,0,1-68.9.33,69.22,69.22,0,0,1-24.61-24.6,65.61,65.61,0,0,1-9.16-34.11,65.94,65.94,0,0,1,9.16-34.29,69.3,69.3,0,0,1,24.61-24.6A68,68,0,0,1,642,68a68.78,68.78,0,0,1,24.78,25.71V61.1h6.28V163.43q0,12.39,5.85,18.41a19.63,19.63,0,0,0,14.68,6,22,22,0,0,0,17.31-8l4.93,3.91q-9,10.51-22.24,10.52a25.65,25.65,0,0,1-19.09-7.89q-7.72-7.89-7.72-23Zm0-48.37a61.51,61.51,0,0,0-22.15-33.26,61.92,61.92,0,0,0-68.39-4.24,63.21,63.21,0,0,0-22.32,22.23,59.43,59.43,0,0,0-8.31,31.06,59.57,59.57,0,0,0,8.31,31,63,63,0,0,0,22.32,22.31,61.75,61.75,0,0,0,68.39-4.32,61.93,61.93,0,0,0,22.15-33.18Z"/><path class="cls-2" d="M693.6,199.24A30.52,30.52,0,0,1,671,189.87a31.59,31.59,0,0,1-8.19-16.35A72.91,72.91,0,0,1,644.55,189a73.17,73.17,0,0,1-73.95.36,74.46,74.46,0,0,1-26.33-26.33,70.75,70.75,0,0,1-9.86-36.63,71.06,71.06,0,0,1,9.86-36.79A74.54,74.54,0,0,1,570.6,63.31a72.93,72.93,0,0,1,74,.45,74.36,74.36,0,0,1,17.3,14.44v-22H678V163.43c0,6.9,1.5,11.94,4.46,15A14.79,14.79,0,0,0,693.6,183a17.19,17.19,0,0,0,13.6-6.29l3.09-3.54,12.61,10L719.58,187C712.63,195.12,703.89,199.24,693.6,199.24ZM607.22,69.76a55,55,0,0,0-28.46,7.62,58.62,58.62,0,0,0-20.6,20.53,57,57,0,0,0,0,57,58.3,58.3,0,0,0,20.59,20.6,55,55,0,0,0,28.46,7.63,54.28,54.28,0,0,0,34.41-11.62,57.32,57.32,0,0,0,20.24-30V111.34a56.87,56.87,0,0,0-20.22-30A54.58,54.58,0,0,0,607.22,69.76Z"/><path class="cls-2" d="M780.16,123.55q39.2,6.28,39.71,34.11-.69,18.51-13.41,27.58t-30.21,9.08q-12.72,0-24.94-7.55a38.09,38.09,0,0,1-16.64-20.28l5.94-1.87a32.36,32.36,0,0,0,14.43,17,41,41,0,0,0,21.21,6.28q14.94,0,26-7.3t11.37-23.08q0-22.56-39.21-28.68-39.2-7.8-39.71-33.94.68-18.5,13.41-27.58a47.7,47.7,0,0,1,28.34-9.08q12.74,0,25,7.56A38.06,38.06,0,0,1,818,86l-5.94,1.87a32.35,32.35,0,0,0-14.43-17,41.06,41.06,0,0,0-21.21-6.28,42.86,42.86,0,0,0-24.1,7.3Q741.3,79.27,741,95,741,116.43,780.16,123.55Z"/><path class="cls-2" d="M776.25,199.24c-9.37,0-18.63-2.78-27.53-8.28A43,43,0,0,1,730,168.1l-1.66-4.79,15.27-4.8,1.61,4.42a27.31,27.31,0,0,0,12.32,14.43A36.35,36.35,0,0,0,776.25,183c8.93,0,16.75-2.18,23.25-6.48,6-4,9-10.2,9.16-19.08,0-4.44,0-18.25-35-23.71l-.21,0C744.83,128,730.14,114.94,729.75,95v-.28c.51-13.88,5.71-24.44,15.47-31.41a52.74,52.74,0,0,1,31.2-10c9.37,0,18.64,2.79,27.54,8.29a43.05,43.05,0,0,1,18.69,22.85l1.66,4.79L809.05,94l-1.61-4.42a27.38,27.38,0,0,0-12.33-14.43,36.43,36.43,0,0,0-18.69-5.58A37.65,37.65,0,0,0,755,76.07c-6,4-9,10.19-9.17,19.08,0,11.34,11.82,19.3,35.12,23.55,28.67,4.6,43.41,17.68,43.8,38.87v.27c-.51,13.89-5.72,24.45-15.47,31.41C800,195.88,788.9,199.24,776.25,199.24Z"/></g></g></svg>