<svg xmlns="http://www.w3.org/2000/svg" viewBox="0 0 795.57 470.43"><defs><style>.cls-1{fill:#fc3;}.cls-2{fill:#385a64;}</style></defs><title>isologo</title><g id="Capa_2" data-name="Capa 2"><g id="Capa_1-2" data-name="Capa 1"><line class="cls-1" x1="496.07" y1="363.11" x2="588.69" y2="363.11"/><rect class="cls-1" x="496.07" y="356.11" width="92.63" height="14"/><line class="cls-1" x1="206.07" y1="363.11" x2="298.69" y2="363.11"/><rect class="cls-1" x="206.07" y="356.11" width="92.63" height="14"/><line class="cls-1" x1="400.93" y1="158.23" x2="400.93" y2="250.85"/><rect class="cls-1" x="393.93" y="158.23" width="14" height="92.63"/><path class="cls-2" d="M397.78,465.68A105.79,105.79,0,1,1,503.57,359.89,105.91,105.91,0,0,1,397.78,465.68Zm0-200.57a94.79,94.79,0,1,0,94.79,94.78A94.89,94.89,0,0,0,397.78,265.11Z"/><path class="cls-2" d="M397.77,344.62c7.43-2.45,15.43-3.35,21.92,1l7.58,4.4V365.6c0,12.78-11.26,28.17-27.17,28.17-17,0-27.17-15.39-27.17-28.17V351.49Zm-24.84-5.93V328.18c0-5.77,5.7-14.48,11.48-14.48h31.38c5.78,0,11.48,8.71,11.48,14.48v7.26c-9.37-4.6-24.1-5.39-34.2-2.06Zm90.13,91.15a65,65,0,0,0-32.4-41.4,37.93,37.93,0,0,0,7.61-22.84V328.18a25.51,25.51,0,0,0-25.48-25.48H387.41a25.51,25.51,0,0,0-25.48,25.48V365.6a37.93,37.93,0,0,0,7.62,22.86,65.43,65.43,0,0,0-14.7,10.7,64.67,64.67,0,0,0-17.74,30.71l9.36,10.22a49.69,49.69,0,0,1,14.82-30.16c4.81-4.66,10.54-10.33,16.71-12.73,5.39,2.92,15.55,6.58,22.1,6.58,9.61,0,17.71-3.66,23.1-6.58,17.27,6.7,27.43,24.5,29.52,42.88ZM688.13,345.1c7.44-2.45,15.43-3.35,21.93,1l7.57,4.41v15.55c0,12.77-11.26,28.17-27.17,28.17-16.94,0-27.17-15.4-27.17-28.17V352Zm-24.84-5.93V328.66c0-5.78,5.7-14.48,11.48-14.48h31.38c5.78,0,11.48,8.7,11.48,14.48v7.26c-9.36-4.61-24.1-5.4-34.19-2.07Zm90.14,91.14A65.09,65.09,0,0,0,721,388.92a38,38,0,0,0,7.6-22.84V328.66a25.51,25.51,0,0,0-25.48-25.48H677.77a25.51,25.51,0,0,0-25.48,25.48v37.42a38,38,0,0,0,7.62,22.85,65.38,65.38,0,0,0-14.7,10.71,64.56,64.56,0,0,0-17.73,30.71l9.36,10.21a49.64,49.64,0,0,1,14.82-30.16c4.81-4.66,10.53-10.32,16.7-12.72,5.39,2.91,15.56,6.57,22.1,6.57,9.61,0,17.72-3.66,23.11-6.58,17.27,6.71,27.42,24.51,29.52,42.89ZM103.13,345.1c7.44-2.45,15.43-3.35,21.93,1l7.57,4.41v15.55c0,12.77-11.26,28.17-27.17,28.17-16.94,0-27.17-15.4-27.17-28.17V352Zm-24.84-5.93V328.66c0-5.78,5.7-14.48,11.48-14.48h31.38c5.78,0,11.48,8.7,11.48,14.48v7.26c-9.36-4.61-24.1-5.4-34.19-2.07Zm90.14,91.14A65.09,65.09,0,0,0,136,388.92a38,38,0,0,0,7.6-22.84V328.66a25.51,25.51,0,0,0-25.48-25.48H92.77a25.51,25.51,0,0,0-25.48,25.48v37.42a38,38,0,0,0,7.62,22.85,65.38,65.38,0,0,0-14.7,10.71,64.56,64.56,0,0,0-17.73,30.71l9.36,10.21A49.64,49.64,0,0,1,66.66,410.4c4.81-4.66,10.53-10.32,16.7-12.72,5.39,2.91,15.56,6.57,22.1,6.57,9.61,0,17.72-3.66,23.11-6.58,17.27,6.71,27.42,24.51,29.52,42.89Z"/><path class="cls-1" d="M497.7,386.4q-9.46,34.44-36.88,55.73t-62.67,21.3a99.12,99.12,0,0,1-51.57-13.87,105.11,105.11,0,0,1-37.21-37.21,103.12,103.12,0,0,1,0-103.31,104.46,104.46,0,0,1,37.21-37.12,99.53,99.53,0,0,1,51.57-13.79q35.25,0,62.67,21.21T497.7,335l-5.88,1.64q-9-32.47-34.76-52.47t-58.91-20a93.63,93.63,0,0,0-48.55,13,98.44,98.44,0,0,0-35,34.92,97.15,97.15,0,0,0,0,97.27,99.06,99.06,0,0,0,35,35,93.14,93.14,0,0,0,48.55,13.06q33.12,0,58.91-20t34.76-52.47Z"/><path class="cls-1" d="M398.15,470.43A106.38,106.38,0,0,1,343,455.57a112.39,112.39,0,0,1-39.65-39.65,110.11,110.11,0,0,1,0-110.45A111.85,111.85,0,0,1,343,265.89a106.82,106.82,0,0,1,55.13-14.76c25,0,47.5,7.63,67,22.68s32.66,35,39.35,59.33l1.85,6.73L487,345.25l-1.87-6.76c-5.55-20.06-16.42-36.48-32.31-48.8a90,90,0,0,0-99.61-6.52,91.88,91.88,0,0,0-32.55,32.47,90.13,90.13,0,0,0,0,90.11,92.54,92.54,0,0,0,32.57,32.57,89.81,89.81,0,0,0,99.59-6.45c15.89-12.32,26.76-28.74,32.31-48.8l1.82-6.59,19.45,4.87-1.9,6.9c-6.69,24.34-19.93,44.33-39.34,59.41S423.13,470.43,398.15,470.43Z"/><path class="cls-1" d="M164.46,123.14a58.66,58.66,0,0,1-21,31.62,56.44,56.44,0,0,1-35.56,12.1A56.26,56.26,0,0,1,78.56,159,59.79,59.79,0,0,1,57.5,137.86a56.4,56.4,0,0,1-7.87-29.29A56.65,56.65,0,0,1,57.5,79.13,59.79,59.79,0,0,1,78.56,58a56.26,56.26,0,0,1,29.36-7.87,56.44,56.44,0,0,1,35.56,12.1,58.68,58.68,0,0,1,21,31.77l-5.39,1.31A52.6,52.6,0,0,0,140.13,66.6a51.24,51.24,0,0,0-32.21-10.93,51.09,51.09,0,0,0-26.59,7.14A54.16,54.16,0,0,0,62.17,81.9,50.93,50.93,0,0,0,55,108.57a51,51,0,0,0,7.15,26.59,53.9,53.9,0,0,0,19.16,19.17,51.09,51.09,0,0,0,26.59,7.14,51,51,0,0,0,32.21-11,52.92,52.92,0,0,0,18.94-28.78Z"/><path class="cls-1" d="M150.91,119.48a44.34,44.34,0,0,1-16,24.31,42.43,42.43,0,0,1-27,9.22,42.36,42.36,0,0,1-22.27-6,45.14,45.14,0,0,1-16.21-16.21,42.36,42.36,0,0,1-6-22.27,42.29,42.29,0,0,1,6-22.33A45.5,45.5,0,0,1,85.65,70.08a42.38,42.38,0,0,1,22.27-6,42.63,42.63,0,0,1,27,9.16,44,44,0,0,1,15.95,24.22l21.71-5.75a67.24,67.24,0,0,0-24-36.22,65,65,0,0,0-40.74-13.87,64.74,64.74,0,0,0-33.69,9.07,68.34,68.34,0,0,0-24,24.08,65.13,65.13,0,0,0-9,33.75,64.86,64.86,0,0,0,9,33.6,68.26,68.26,0,0,0,24,24.08,64.73,64.73,0,0,0,33.69,9.06,65,65,0,0,0,40.74-13.86,67.28,67.28,0,0,0,24-36.06Z"/><path class="cls-2" d="M202.94,19a5.89,5.89,0,0,1,4.22,1.67,5.51,5.51,0,0,1,1.75,4.16,5.51,5.51,0,0,1-1.75,4.15,5.86,5.86,0,0,1-4.22,1.68,5.69,5.69,0,0,1-4.08-1.68,5.51,5.51,0,0,1-1.75-4.15,5.51,5.51,0,0,1,1.75-4.16A5.72,5.72,0,0,1,202.94,19Zm-2.63,33.51h5.39v87.88q0,10.64,5,15.81a16.85,16.85,0,0,0,12.61,5.17,18.91,18.91,0,0,0,14.86-6.85l4.23,3.35q-7.73,9-19.09,9a22,22,0,0,1-16.4-6.78q-6.63-6.78-6.63-19.74Z"/><path class="cls-2" d="M223.34,171.09A26.22,26.22,0,0,1,203.92,163c-5.2-5.31-7.84-12.95-7.84-22.7V48.24h13.85v92.1c0,5.92,1.29,10.24,3.83,12.86a12.69,12.69,0,0,0,9.58,3.89,14.73,14.73,0,0,0,11.67-5.4l2.66-3,10.82,8.58-2.85,3.34C239.68,167.55,232.17,171.09,223.34,171.09ZM202.94,34.83a10,10,0,0,1-7-2.85,9.72,9.72,0,0,1-3.05-7.2,9.74,9.74,0,0,1,3.05-7.21,10,10,0,0,1,7-2.85,10.14,10.14,0,0,1,7.15,2.85,10,10,0,0,1,0,14.41A10.13,10.13,0,0,1,202.94,34.83Zm0-11.65a1.5,1.5,0,0,0-1.16.5,1.58,1.58,0,0,0,0,2.19,1.5,1.5,0,0,0,1.16.51,1.69,1.69,0,0,0,1.3-.5,1.59,1.59,0,0,0,0-2.21A1.68,1.68,0,0,0,202.94,23.18Z"/><path class="cls-2" d="M304.65,157.82,354.78,52.46h6.12L307.42,164.53h-5.68L248.4,52.46h6Z"/><polygon class="cls-2" points="310.09 168.75 299.07 168.75 241.71 48.23 257.04 48.23 304.65 147.99 352.11 48.23 367.61 48.23 310.09 168.75"/><path class="cls-2" d="M391.65,19a5.93,5.93,0,0,1,4.23,1.67,5.83,5.83,0,0,1,0,8.31,5.9,5.9,0,0,1-4.23,1.68,5.69,5.69,0,0,1-4.08-1.68,5.51,5.51,0,0,1-1.75-4.15,5.51,5.51,0,0,1,1.75-4.16A5.72,5.72,0,0,1,391.65,19ZM389,52.46h5.39v87.88q0,10.64,5,15.81a16.83,16.83,0,0,0,12.6,5.17,18.9,18.9,0,0,0,14.86-6.85l4.23,3.35q-7.72,9-19.09,9a22,22,0,0,1-16.39-6.78Q389,153.3,389,140.34Z"/><path class="cls-2" d="M412.05,171.09A26.22,26.22,0,0,1,392.63,163c-5.19-5.31-7.83-12.95-7.83-22.7V48.24h13.85v92.1c0,5.92,1.28,10.24,3.83,12.86a12.65,12.65,0,0,0,9.57,3.89,14.74,14.74,0,0,0,11.68-5.4l2.65-3,10.83,8.58-2.86,3.34C428.39,167.55,420.89,171.09,412.05,171.09ZM391.65,34.83a10,10,0,0,1-7-2.85,10,10,0,0,1,0-14.41,10,10,0,0,1,7-2.85,10.13,10.13,0,0,1,7.15,2.85,9.74,9.74,0,0,1,3.05,7.21A9.72,9.72,0,0,1,398.8,32,10.11,10.11,0,0,1,391.65,34.83Zm0-11.65a1.5,1.5,0,0,0-1.16.5,1.32,1.32,0,0,0-.44,1.1,1.28,1.28,0,0,0,.44,1.09,1.52,1.52,0,0,0,1.16.51,1.69,1.69,0,0,0,1.3-.5,1.58,1.58,0,0,0,0-2.21A1.72,1.72,0,0,0,391.65,23.18Z"/><path class="cls-2" d="M450.81,52.46V4.23h5.39V52.46h32.65v5.39H456.2v82.49q0,10.64,5,15.81a16.85,16.85,0,0,0,12.61,5.17,18.91,18.91,0,0,0,14.86-6.85l4.23,3.35q-7.73,9-19.09,9a22,22,0,0,1-16.4-6.78q-6.63-6.78-6.63-19.74V57.85H436V52.46Z"/><path class="cls-2" d="M473.84,171.09A26.22,26.22,0,0,1,454.42,163c-5.2-5.32-7.84-12.95-7.84-22.7V62.08H431.72V48.24h14.86V0h13.85V48.24h32.65V62.08H460.43v78.26c0,5.92,1.29,10.24,3.83,12.86a12.69,12.69,0,0,0,9.58,3.89,14.75,14.75,0,0,0,11.68-5.4l2.65-3L499,157.24l-2.85,3.33C490.18,167.55,482.67,171.09,473.84,171.09Z"/><path class="cls-2" d="M613.73,136.55a58.33,58.33,0,0,1-21.27,22.15,58.61,58.61,0,0,1-59.17.29,59.58,59.58,0,0,1-21.13-21.13,56.4,56.4,0,0,1-7.87-29.29,56.65,56.65,0,0,1,7.87-29.44A59.58,59.58,0,0,1,533.29,58a58.37,58.37,0,0,1,59.17.37,59,59,0,0,1,21.27,22.07v-28h5.4v87.88q0,10.64,5,15.81a16.87,16.87,0,0,0,12.61,5.17,18.91,18.91,0,0,0,14.86-6.85l4.23,3.35q-7.73,9-19.09,9a22,22,0,0,1-16.4-6.78q-6.63-6.78-6.63-19.74Zm0-41.53a52.8,52.8,0,0,0-19-28.57A53.2,53.2,0,0,0,536,62.81,54.24,54.24,0,0,0,516.83,81.9a51,51,0,0,0-7.14,26.67,51.09,51.09,0,0,0,7.14,26.59A54,54,0,0,0,536,154.33a53,53,0,0,0,58.73-3.72,53.15,53.15,0,0,0,19-28.49Z"/><path class="cls-2" d="M636.76,171.09A26.22,26.22,0,0,1,617.34,163a27.21,27.21,0,0,1-7-14,62.24,62.24,0,0,1-15.66,13.33,62.79,62.79,0,0,1-63.5.3A63.91,63.91,0,0,1,508.53,140a60.72,60.72,0,0,1-8.46-31.45A61,61,0,0,1,508.53,77a64,64,0,0,1,22.61-22.61,62.59,62.59,0,0,1,63.51.39,63.89,63.89,0,0,1,14.86,12.4V48.24h13.84v92.1c0,5.92,1.29,10.25,3.84,12.86a12.65,12.65,0,0,0,9.57,3.89,14.75,14.75,0,0,0,11.68-5.4l2.65-3,10.82,8.58-2.85,3.34C653.1,167.55,645.59,171.09,636.76,171.09ZM562.58,59.9a47.13,47.13,0,0,0-24.43,6.55,50.18,50.18,0,0,0-17.69,17.62,49,49,0,0,0,0,48.93,50.13,50.13,0,0,0,17.69,17.69,47.18,47.18,0,0,0,24.43,6.55,46.65,46.65,0,0,0,29.55-10,49.24,49.24,0,0,0,17.38-25.73V95.6a48.78,48.78,0,0,0-17.37-25.79A46.85,46.85,0,0,0,562.58,59.9Z"/><path class="cls-2" d="M711.08,106.09q33.66,5.4,34.1,29.29-.58,15.88-11.51,23.68t-25.94,7.8a40.31,40.31,0,0,1-21.42-6.49A32.66,32.66,0,0,1,672,143l5.1-1.61a27.84,27.84,0,0,0,12.39,14.58,35.28,35.28,0,0,0,18.22,5.39q12.81,0,22.29-6.27t9.77-19.81q0-19.38-33.67-24.63-33.66-6.7-34.1-29.15.59-15.88,11.52-23.68A41,41,0,0,1,707.87,50a40.29,40.29,0,0,1,21.42,6.48,32.73,32.73,0,0,1,14.29,17.41l-5.1,1.61a27.82,27.82,0,0,0-12.39-14.57,35.23,35.23,0,0,0-18.22-5.4,36.71,36.71,0,0,0-20.69,6.27q-9.48,6.27-9.76,19.82Q677.42,100,711.08,106.09Z"/><path class="cls-2" d="M707.73,171.09A44.7,44.7,0,0,1,684.08,164,37,37,0,0,1,668,144.34l-1.43-4.11,13.11-4.12,1.39,3.8a23.48,23.48,0,0,0,10.58,12.39,31.24,31.24,0,0,0,16.05,4.79,35.52,35.52,0,0,0,20-5.56c5.13-3.4,7.7-8.75,7.87-16.39,0-3.8,0-15.66-30.09-20.36l-.17,0c-24.55-4.88-37.17-16-37.5-33.2v-.24c.43-11.92,4.9-21,13.28-27a45.32,45.32,0,0,1,26.79-8.58,44.69,44.69,0,0,1,23.65,7.11A37,37,0,0,1,747.57,72.5L749,76.61l-13.11,4.12-1.39-3.79a23.48,23.48,0,0,0-10.58-12.39,31.25,31.25,0,0,0-16-4.8,32.29,32.29,0,0,0-18.36,5.57c-5.13,3.39-7.7,8.75-7.87,16.38,0,9.74,10.15,16.58,30.15,20.22,24.63,4,37.28,15.19,37.62,33.38v.24c-.43,11.92-4.9,21-13.28,27C728.14,168.2,718.58,171.09,707.73,171.09Z"/><path class="cls-2" d="M689.78,465.68A105.79,105.79,0,1,1,795.57,359.89,105.91,105.91,0,0,1,689.78,465.68Zm0-200.57a94.79,94.79,0,1,0,94.79,94.78A94.89,94.89,0,0,0,689.78,265.11Z"/><path class="cls-2" d="M105.78,465.68A105.79,105.79,0,1,1,211.57,359.89,105.9,105.9,0,0,1,105.78,465.68Zm0-200.57a94.79,94.79,0,1,0,94.79,94.78A94.89,94.89,0,0,0,105.78,265.11Z"/></g></g></svg>