<?xml version="1.0" encoding="iso-8859-1"?>
<!-- Generator: Adobe Illustrator 19.0.0, SVG Export Plug-In . SVG Version: 6.00 Build 0)  -->
<svg version="1.1" id="Capa_1" xmlns="http://www.w3.org/2000/svg" xmlns:xlink="http://www.w3.org/1999/xlink" x="0px" y="0px"
	 viewBox="0 0 512 512" style="enable-background:new 0 0 512 512;" xml:space="preserve">
<circle style="fill:#FFDC00;" cx="256" cy="256" r="256"/>
<path style="fill:#FFC000;" d="M512,256c0-6.896-0.281-13.725-0.816-20.483L390.667,115L354.5,145.833L291.667,83L121.333,195.667
	l51,51l-26,178.333l85.891,85.891C240.055,511.613,247.982,512,256,512C397.385,512,512,397.385,512,256z"/>
<rect x="220.33" y="83" style="fill:#4D4D4D;" width="71.33" height="49.33"/>
<rect x="255" y="83" style="fill:#333333;" width="36.667" height="49.33"/>
<rect x="146.33" y="169.33" style="fill:#666666;" width="219.33" height="255.67"/>
<rect x="255" y="169.33" style="fill:#4D4D4D;" width="110.67" height="255.67"/>
<rect x="121.33" y="115" style="fill:#333333;" width="269.33" height="80.67"/>
<rect x="255" y="115" style="fill:#1A1A1A;" width="135.67" height="80.67"/>
<g>
	<rect x="176.17" y="218.33" style="fill:#4D4D4D;" width="33.33" height="181.33"/>
	<rect x="239.33" y="218.33" style="fill:#4D4D4D;" width="33.33" height="181.33"/>
</g>
<g>
	<rect x="255" y="218.33" style="fill:#333333;" width="17.667" height="181.33"/>
	<rect x="302.5" y="218.33" style="fill:#333333;" width="33.33" height="181.33"/>
</g>
<g>
</g>
<g>
</g>
<g>
</g>
<g>
</g>
<g>
</g>
<g>
</g>
<g>
</g>
<g>
</g>
<g>
</g>
<g>
</g>
<g>
</g>
<g>
</g>
<g>
</g>
<g>
</g>
<g>
</g>
</svg>
