<svg height="512pt" viewBox="0 0 512 512" width="512pt" xmlns="http://www.w3.org/2000/svg" xmlns:xlink="http://www.w3.org/1999/xlink"><linearGradient id="a" gradientUnits="userSpaceOnUse" x1="0" x2="512" y1="256" y2="256"><stop offset="0" stop-color="#00f1ff"/><stop offset=".231" stop-color="#00d8ff"/><stop offset=".5138" stop-color="#00c0ff"/><stop offset=".7773" stop-color="#00b2ff"/><stop offset="1" stop-color="#00adff"/></linearGradient><path d="m512 256c0 141.386719-114.613281 256-256 256s-256-114.613281-256-256 114.613281-256 256-256 256 114.613281 256 256zm0 0" fill="url(#a)"/><g fill="#fff"><path d="m329.746094 331.78125c-8.28125 0-15 6.71875-15 15v26.703125c0 13.8125-11.234375 25.050781-25.050782 25.050781h-134.171874c-13.8125 0-25.050782-11.238281-25.050782-25.050781v-234.96875c0-13.8125 11.238282-25.050781 25.050782-25.050781h134.171874c13.816407 0 25.050782 11.238281 25.050782 25.050781v26.703125c0 8.28125 6.71875 15 15 15 8.285156 0 15-6.71875 15-15v-26.703125c0-30.355469-24.691406-55.050781-55.050782-55.050781h-134.171874c-30.355469 0-55.050782 24.695312-55.050782 55.050781v234.96875c0 30.355469 24.695313 55.050781 55.050782 55.050781h134.171874c30.355469 0 55.050782-24.695312 55.050782-55.050781v-26.703125c0-8.28125-6.714844-15-15-15zm0 0"/><path d="m435.285156 231.902344-29.894531-29.898438c-5.859375-5.855468-15.355469-5.855468-21.214844 0-5.859375 5.859375-5.859375 15.355469 0 21.214844l18.449219 18.449219h-156.316406c-8.285156 0-15 6.714843-15 15 0 8.285156 6.714844 15 15 15h156.316406l-18.449219 18.449219c-5.859375 5.859374-5.859375 15.355468 0 21.214843 2.929688 2.929688 6.765625 4.390625 10.605469 4.390625s7.679688-1.464844 10.605469-4.390625l29.898437-29.898437c13.65625-13.65625 13.65625-35.875 0-49.53125zm0 0"/></g></svg>