<?xml version="1.0" encoding="iso-8859-1"?>
<!-- Generator: Adobe Illustrator 19.0.0, SVG Export Plug-In . SVG Version: 6.00 Build 0)  -->
<svg version="1.1" id="Capa_1" xmlns="http://www.w3.org/2000/svg" xmlns:xlink="http://www.w3.org/1999/xlink" x="0px" y="0px"
	 viewBox="0 0 512 512" style="enable-background:new 0 0 512 512;" xml:space="preserve">
<circle style="fill:#00D4D1;" cx="256" cy="256" r="256"/>
<path style="fill:#009CA0;" d="M512,256c0-7.194-0.312-14.314-0.894-21.357l-91.186-91.186
	c-12.942-14.747-29.852-23.601-47.24-24.591c-66.082-3.763-98.48,45.771-110.691,71.226l-35.948-35.812
	c-18.303-19.955-46.167-37.723-86.721-35.413c-63.866,3.637-121.338,113.304,0.929,231.838l157.834,157.834
	C419.443,488.463,512,383.049,512,256z"/>
<path style="fill:#E9336D;" d="M372.68,118.865C284.046,113.818,256,204.667,256,204.667s-28.046-90.849-116.68-85.801
	C60.69,123.343-8.251,288.54,256,433.13C520.251,288.54,451.31,123.343,372.68,118.865z"/>
<path style="fill:#B12E65;" d="M256,433.13V204.67c0,0,28.05-90.85,116.68-85.8C451.31,123.34,520.25,288.54,256,433.13z"/>
<g>
</g>
<g>
</g>
<g>
</g>
<g>
</g>
<g>
</g>
<g>
</g>
<g>
</g>
<g>
</g>
<g>
</g>
<g>
</g>
<g>
</g>
<g>
</g>
<g>
</g>
<g>
</g>
<g>
</g>
</svg>
