<svg id="Capa_1" enable-background="new 0 0 512 512" height="512" viewBox="0 0 512 512" width="512" xmlns="http://www.w3.org/2000/svg"><g><path d="m76 110c-30.327 0-55-24.673-55-55s24.673-55 55-55 55 24.673 55 55-24.673 55-55 55z"/><g><g><path d="m122.445 126.135c-13.361 8.753-29.313 13.865-46.445 13.865-17.135 0-33.09-5.113-46.453-13.87-5.89 4.656-11.067 10.176-15.335 16.37h9.288c28.948 0 52.5 23.552 52.5 52.5s-23.552 52.5-52.5 52.5h-22.5v60.202c0 16.569 13.431 30 30 30v149.298c0 13.807 11.193 25 25 25h40c13.807 0 25-11.193 25-25v-149.298c16.569 0 30-13.431 30-30v-122.702c0-23.876-11.17-45.13-28.555-58.865z"/></g><path d="m23.5 217.5h-22.5v-45h22.5c12.426 0 22.5 10.074 22.5 22.5 0 12.426-10.074 22.5-22.5 22.5z"/></g><g><path d="m381 55c0-30.327 24.673-55 55-55s55 24.673 55 55-24.673 55-55 55-55-24.673-55-55z"/><g><g><path d="m389.555 126.135c13.361 8.753 29.313 13.865 46.445 13.865 17.135 0 33.09-5.113 46.453-13.87 5.89 4.656 11.067 10.176 15.335 16.37h-9.288c-28.948 0-52.5 23.552-52.5 52.5s23.552 52.5 52.5 52.5h22.5v60.202c0 16.569-13.431 30-30 30v149.298c0 13.807-11.193 25-25 25h-40c-13.807 0-25-11.193-25-25v-149.298c-16.569 0-30-13.431-30-30v-122.702c0-23.876 11.17-45.13 28.555-58.865z"/></g><path d="m466 195c0-12.426 10.074-22.5 22.5-22.5h22.5v45h-22.5c-12.426 0-22.5-10.074-22.5-22.5z"/></g></g><g><path d="m302.445 126.135c-13.361 8.753-29.313 13.865-46.445 13.865s-33.084-5.112-46.445-13.865c-17.385 13.735-28.555 34.989-28.555 58.865v122.702c0 16.569 13.431 30 30 30v149.298c0 13.807 11.193 25 25 25h40c13.807 0 25-11.193 25-25v-149.298c16.569 0 30-13.431 30-30v-122.702c0-23.876-11.17-45.13-28.555-58.865z"/></g><path d="m201 55c0-30.327 24.673-55 55-55s55 24.673 55 55-24.673 55-55 55-55-24.673-55-55z"/></g></svg>