<svg id="Capa_1" enable-background="new 0 0 512 512" height="512" viewBox="0 0 512 512" width="512" xmlns="http://www.w3.org/2000/svg"><path d="m191.733 206.733h160.667c8.284 0 15-6.716 15-15s-6.716-15-15-15h-160.667c-8.284 0-15 6.716-15 15s6.716 15 15 15z"/><path d="m191.733 271h160.667c8.284 0 15-6.716 15-15s-6.716-15-15-15h-160.667c-8.284 0-15 6.716-15 15s6.716 15 15 15z"/><path d="m191.733 335.267h64.267c8.284 0 15-6.716 15-15s-6.716-15-15-15h-64.267c-8.284 0-15 6.716-15 15s6.716 15 15 15z"/><path d="m464.867 0h-385.6c-8.284 0-15 6.716-15 15v65.333h-17.134c-8.284 0-15 6.716-15 15s6.716 15 15 15h17.133v50.333h-17.133c-8.284 0-15 6.716-15 15s6.716 15 15 15h17.133v50.334h-17.133c-8.284 0-15 6.716-15 15s6.716 15 15 15h17.133v50.333h-17.133c-8.284 0-15 6.716-15 15s6.716 15 15 15h17.133v50.333h-17.133c-8.284 0-15 6.716-15 15s6.716 15 15 15h17.133v65.334c0 8.284 6.716 15 15 15h385.6c8.284 0 15-6.716 15-15v-482c.001-8.284-6.715-15-14.999-15zm-15 482h-355.6v-50.333h17.133c8.284 0 15-6.716 15-15s-6.716-15-15-15h-17.133v-50.333h17.133c8.284 0 15-6.716 15-15s-6.716-15-15-15h-17.133v-50.334h17.133c8.284 0 15-6.716 15-15s-6.716-15-15-15h-17.133v-50.333h17.133c8.284 0 15-6.716 15-15s-6.716-15-15-15h-17.133v-50.333h17.133c8.284 0 15-6.716 15-15s-6.716-15-15-15h-17.133v-50.334h355.6z"/></svg>