<svg xmlns="http://www.w3.org/2000/svg" viewBox="0 0 357.15 452.44"><defs><style>.cls-1{fill:#ebebeb;}.cls-2{fill:#fafafa;}.cls-3{fill:#e0e0e0;}.cls-4{fill:#f5f5f5;}.cls-5{opacity:0.2;}.cls-6{fill:#fff;}.cls-7{fill:#263238;}.cls-8{fill:#455a64;}.cls-9{fill:#fc3;}.cls-10{opacity:0.4;}.cls-11{fill:#e8505b;}.cls-12{fill:#ffbe9d;}.cls-13{fill:#eb996e;}.cls-14{fill:#fc6;}.cls-15{opacity:0.5;}.cls-16{opacity:0.8;}.cls-17{opacity:0.3;}</style></defs><title>Recurso 1</title><g id="Capa_2" data-name="Capa 2"><g id="Coffee_2" data-name="Coffee 2"><rect class="cls-1" x="12.58" y="65.96" width="174.02" height="312.61"/><rect class="cls-2" x="19.54" y="75.02" width="158.32" height="294.24"/><polygon class="cls-3" points="193.96 381.39 186.6 378.57 186.6 60.66 193.96 60.66 193.96 381.39"/><path class="cls-4" d="M58.35,265.08l41.11-38.21c5.21-4.85,12-10.06,18.73-7.68,3.22,1.15,5.64,3.9,8.8,5.22,6.31,2.63,13.53-1.17,18.38-6s8.68-10.85,14.56-14.34,15-3.05,17.93,3.14v41.6L118.1,274.41Z"/><path class="cls-3" d="M19.54,241.18c15.15-6.17,30.27-.93,41.11,11.32,2.28,2.58,4.36,5.56,7.5,7,4.25,1.93,9.15.49,13.79,0a34.69,34.69,0,0,1,32.61,15.81L64,300.13l-44.42-.32Z"/><path class="cls-1" d="M177.86,241.38c-10-4.81-18.77,1-28,7.18s-17.77,14.08-28.57,16.57c-7.21,1.66-14.94.74-21.92,3.22-14.21,5.06-22.43,23.11-37.49,24-8.18.47-15.51-4.49-22.81-8.21S26,276.86,19.54,281.84v87.42H177.86Z"/><rect class="cls-3" x="19.54" y="159.67" width="161.76" height="3.13"/><rect class="cls-3" x="19.54" y="229.74" width="161.76" height="3.13"/><rect class="cls-3" x="19.54" y="299.81" width="161.76" height="3.13"/><rect class="cls-3" x="-9.49" y="265.42" width="216.37" height="8" transform="translate(-170.72 368.11) rotate(-90)"/><rect class="cls-3" x="50.02" y="75.02" width="3.62" height="86.21"/><rect class="cls-3" x="81.27" y="75.02" width="3.62" height="86.21"/><rect class="cls-3" x="112.53" y="75.02" width="3.62" height="86.21"/><rect class="cls-3" x="143.78" y="75.02" width="3.62" height="86.21"/><rect class="cls-3" x="5.22" y="60.66" width="7.36" height="319.85"/><rect class="cls-3" x="5.22" y="57.43" width="188.74" height="8.53"/><rect class="cls-3" y="382.44" width="198.94" height="7.95"/><polygon class="cls-1" points="186.6 378.57 198.94 382.44 0 382.44 12.58 378.57 186.6 378.57"/><rect class="cls-1" x="221.26" y="98.59" width="135.46" height="175.66"/><path class="cls-3" d="M230.49,231.91a1.16,1.16,0,0,1,.68.1,2.17,2.17,0,0,1,1.18,1.54,2,2,0,0,1-.19,1.43,2.57,2.57,0,0,1-3.28,1.05,3.39,3.39,0,0,1-1.55-1.58,5,5,0,0,1,.52-4.86,5.13,5.13,0,0,1,2.07-1.92,3.25,3.25,0,0,1,1.49-.32,3,3,0,0,1,1.49.49,5.19,5.19,0,0,1,1.86,2.53,10.65,10.65,0,0,1,.65,3.19,11.81,11.81,0,0,1-1.56,6.57,42.12,42.12,0,0,1-4,5.39,16,16,0,0,0-3.07,5.32,7.43,7.43,0,0,0,.34,5.38,4.26,4.26,0,0,0,3.84,2.36,3.44,3.44,0,0,0,1.94-.62,2.66,2.66,0,0,0,1-1.46,3.57,3.57,0,0,0-.52-2.85,2.37,2.37,0,0,0-1.48-1.09,2.07,2.07,0,0,0-.5-.05h-.17l.17,0a1.43,1.43,0,0,1,.51,0,2.45,2.45,0,0,1,1.62,1.08,3.74,3.74,0,0,1,.61,3,2.9,2.9,0,0,1-1.1,1.63,3.71,3.71,0,0,1-2.09.7,4.72,4.72,0,0,1-2.36-.59,4.58,4.58,0,0,1-1.81-1.91,7.77,7.77,0,0,1-.42-5.66,16.34,16.34,0,0,1,3.13-5.48,42.22,42.22,0,0,0,4-5.34,11.51,11.51,0,0,0,1.52-6.33,10.66,10.66,0,0,0-.61-3.06,4.91,4.91,0,0,0-1.7-2.34,2.55,2.55,0,0,0-2.58-.15,4.82,4.82,0,0,0-1.93,1.76,4.67,4.67,0,0,0-.54,4.52,3,3,0,0,0,1.38,1.46,2.28,2.28,0,0,0,1.77.09,2.21,2.21,0,0,0,1.2-1,1.82,1.82,0,0,0,.21-1.29,2.07,2.07,0,0,0-1.05-1.48A2.74,2.74,0,0,0,230.49,231.91Z"/><path class="cls-3" d="M231.68,215.93a1.13,1.13,0,0,1-.67-.1,2.15,2.15,0,0,1-1.18-1.54,2,2,0,0,1,.19-1.42,2.42,2.42,0,0,1,1.3-1.12,2.55,2.55,0,0,1,2,.06,3.35,3.35,0,0,1,1.55,1.58,5,5,0,0,1-.52,4.87,5.18,5.18,0,0,1-2.07,1.91,3.11,3.11,0,0,1-1.48.32,2.93,2.93,0,0,1-1.49-.49,5.23,5.23,0,0,1-1.87-2.53,10.91,10.91,0,0,1-.65-3.18,11.88,11.88,0,0,1,1.56-6.57,42.06,42.06,0,0,1,4.06-5.4,15.9,15.9,0,0,0,3.07-5.32,7.43,7.43,0,0,0-.35-5.38,4.25,4.25,0,0,0-3.84-2.35,3.38,3.38,0,0,0-1.93.61,2.65,2.65,0,0,0-1,1.47,3.63,3.63,0,0,0,.52,2.85,2.37,2.37,0,0,0,1.49,1.08,1.6,1.6,0,0,0,.49.05H231l-.17,0a1.77,1.77,0,0,1-.51,0,2.41,2.41,0,0,1-1.61-1.08,3.76,3.76,0,0,1-.62-3,3,3,0,0,1,1.1-1.64,3.74,3.74,0,0,1,2.1-.7,4.57,4.57,0,0,1,2.35.6,4.52,4.52,0,0,1,1.82,1.9,7.77,7.77,0,0,1,.41,5.66,16,16,0,0,1-3.12,5.48,42.16,42.16,0,0,0-4,5.35,11.36,11.36,0,0,0-1.51,6.32,10.34,10.34,0,0,0,.61,3.06,4.84,4.84,0,0,0,1.69,2.34,2.57,2.57,0,0,0,2.58.16,5.18,5.18,0,0,0,2.48-6.29,3.09,3.09,0,0,0-1.39-1.46,2.26,2.26,0,0,0-1.76-.09,2.24,2.24,0,0,0-1.21,1,1.82,1.82,0,0,0-.2,1.29,2.11,2.11,0,0,0,1,1.49A2.48,2.48,0,0,0,231.68,215.93Z"/><path class="cls-3" d="M232.46,223.61a1.38,1.38,0,1,1-1.38-1.38A1.37,1.37,0,0,1,232.46,223.61Z"/><path class="cls-3" d="M233.06,186.91a1.38,1.38,0,1,1-1.38-1.38A1.37,1.37,0,0,1,233.06,186.91Z"/><path class="cls-3" d="M231.09,141.76a2.74,2.74,0,0,0,.64-.19,2.09,2.09,0,0,0,1.05-1.49,1.82,1.82,0,0,0-.21-1.29,2.21,2.21,0,0,0-1.2-1,2.24,2.24,0,0,0-1.77.09,3.09,3.09,0,0,0-1.39,1.46,4.77,4.77,0,0,0,.55,4.54,4.92,4.92,0,0,0,1.93,1.77,2.59,2.59,0,0,0,2.59-.16,4.92,4.92,0,0,0,1.69-2.35,10.73,10.73,0,0,0,.61-3.07,11.54,11.54,0,0,0-1.52-6.34,43.18,43.18,0,0,0-4-5.36,16.29,16.29,0,0,1-3.13-5.49,7.85,7.85,0,0,1,.41-5.67,4.58,4.58,0,0,1,4.17-2.51,3.65,3.65,0,0,1,2.1.7,2.89,2.89,0,0,1,1.1,1.64,3.74,3.74,0,0,1-.61,3,2.45,2.45,0,0,1-1.62,1.08,1.47,1.47,0,0,1-.51,0c-.11,0-.17,0-.17,0H232a1.57,1.57,0,0,0,.5,0A2.4,2.4,0,0,0,234,120a3.58,3.58,0,0,0,.52-2.85,2.67,2.67,0,0,0-1-1.48,3.46,3.46,0,0,0-1.93-.61,4.24,4.24,0,0,0-3.84,2.37,7.45,7.45,0,0,0-.34,5.39,15.94,15.94,0,0,0,3.07,5.33,43.07,43.07,0,0,1,4,5.41,11.88,11.88,0,0,1,1.56,6.59,11,11,0,0,1-.64,3.19,5.35,5.35,0,0,1-1.87,2.54,2.93,2.93,0,0,1-1.49.49,3.09,3.09,0,0,1-1.48-.32,5.52,5.52,0,0,1-2.6-6.79,3.33,3.33,0,0,1,1.55-1.59,2.57,2.57,0,0,1,3.28,1.05,2,2,0,0,1,.19,1.43,2.15,2.15,0,0,1-1.18,1.54A1.13,1.13,0,0,1,231.09,141.76Z"/><path class="cls-3" d="M231.51,157.78a2.74,2.74,0,0,0-.64.19,2.09,2.09,0,0,0-1.05,1.49,1.82,1.82,0,0,0,.21,1.29,2.21,2.21,0,0,0,1.2,1,2.28,2.28,0,0,0,1.77-.09,3.09,3.09,0,0,0,1.39-1.46,4.74,4.74,0,0,0-.55-4.54,4.85,4.85,0,0,0-1.93-1.77,2.59,2.59,0,0,0-2.59.16,4.92,4.92,0,0,0-1.69,2.35,10.73,10.73,0,0,0-.61,3.07,11.54,11.54,0,0,0,1.52,6.34,43.18,43.18,0,0,0,4,5.36,16.29,16.29,0,0,1,3.13,5.49,7.85,7.85,0,0,1-.41,5.67,4.48,4.48,0,0,1-1.82,1.91,4.57,4.57,0,0,1-2.35.6,3.65,3.65,0,0,1-2.1-.7,2.92,2.92,0,0,1-1.1-1.64,3.78,3.78,0,0,1,.61-3,2.45,2.45,0,0,1,1.62-1.08,1.26,1.26,0,0,1,.51,0c.11,0,.17,0,.17,0h-.17a1.59,1.59,0,0,0-.5,0,2.4,2.4,0,0,0-1.48,1.1,3.58,3.58,0,0,0-.52,2.85,2.62,2.62,0,0,0,1,1.47,3.39,3.39,0,0,0,1.93.62,4.24,4.24,0,0,0,3.84-2.37,7.45,7.45,0,0,0,.34-5.39,15.94,15.94,0,0,0-3.07-5.33,43.07,43.07,0,0,1-4-5.41,11.88,11.88,0,0,1-1.56-6.59,11,11,0,0,1,.64-3.19,5.35,5.35,0,0,1,1.87-2.54,2.93,2.93,0,0,1,1.49-.49,3.09,3.09,0,0,1,1.48.32,5.52,5.52,0,0,1,2.6,6.79,3.37,3.37,0,0,1-1.55,1.59,2.51,2.51,0,0,1-2,.06,2.48,2.48,0,0,1-1.31-1.12,2,2,0,0,1-.19-1.43,2.15,2.15,0,0,1,1.18-1.53A1.13,1.13,0,0,1,231.51,157.78Z"/><path class="cls-3" d="M233.06,150.09a1.38,1.38,0,1,0-1.38,1.38A1.38,1.38,0,0,0,233.06,150.09Z"/><path class="cls-3" d="M344.83,231.91a1.16,1.16,0,0,1,.68.1,2.17,2.17,0,0,1,1.17,1.54,2,2,0,0,1-.19,1.43,2.44,2.44,0,0,1-1.3,1.11,2.51,2.51,0,0,1-2-.06,3.35,3.35,0,0,1-1.55-1.58,5,5,0,0,1,.52-4.86,5.13,5.13,0,0,1,2.07-1.92,3.23,3.23,0,0,1,1.48-.32,2.93,2.93,0,0,1,1.49.49,5.28,5.28,0,0,1,1.87,2.53,11,11,0,0,1,.65,3.19,11.9,11.9,0,0,1-1.56,6.57,41.26,41.26,0,0,1-4.06,5.39,16,16,0,0,0-3.07,5.32,7.43,7.43,0,0,0,.35,5.38,4.26,4.26,0,0,0,3.84,2.36,3.39,3.39,0,0,0,1.93-.62,2.63,2.63,0,0,0,1-1.46,3.61,3.61,0,0,0-.52-2.85,2.39,2.39,0,0,0-1.49-1.09,2,2,0,0,0-.49-.05h-.17s0,0,.17,0a1.41,1.41,0,0,1,.51,0,2.41,2.41,0,0,1,1.61,1.08,3.78,3.78,0,0,1,.62,3,2.9,2.9,0,0,1-1.1,1.63,3.74,3.74,0,0,1-2.1.7,4.66,4.66,0,0,1-2.35-.59,4.6,4.6,0,0,1-1.82-1.91,7.77,7.77,0,0,1-.41-5.66,16.14,16.14,0,0,1,3.12-5.48,41.35,41.35,0,0,0,4-5.34,11.41,11.41,0,0,0,1.51-6.33,10.34,10.34,0,0,0-.61-3.06,4.89,4.89,0,0,0-1.69-2.34,2.55,2.55,0,0,0-2.58-.15,5.18,5.18,0,0,0-2.48,6.28,3,3,0,0,0,1.39,1.46,2.26,2.26,0,0,0,1.76.09,2.24,2.24,0,0,0,1.21-1,1.82,1.82,0,0,0,.2-1.29,2.09,2.09,0,0,0-1-1.48A2.9,2.9,0,0,0,344.83,231.91Z"/><path class="cls-3" d="M346,215.93a1.16,1.16,0,0,1-.68-.1,2.17,2.17,0,0,1-1.18-1.54,2,2,0,0,1,.19-1.42,2.48,2.48,0,0,1,1.31-1.12,2.55,2.55,0,0,1,2,.06,3.39,3.39,0,0,1,1.55,1.58,5,5,0,0,1-.52,4.87,5.18,5.18,0,0,1-2.07,1.91,3.13,3.13,0,0,1-1.49.32,3,3,0,0,1-1.49-.49,5.15,5.15,0,0,1-1.86-2.53,10.59,10.59,0,0,1-.65-3.18,11.79,11.79,0,0,1,1.56-6.57,43,43,0,0,1,4-5.4,15.9,15.9,0,0,0,3.07-5.32,7.43,7.43,0,0,0-.34-5.38,4.25,4.25,0,0,0-3.84-2.35,3.38,3.38,0,0,0-1.93.61,2.65,2.65,0,0,0-1,1.47,3.59,3.59,0,0,0,.52,2.85,2.35,2.35,0,0,0,1.48,1.08,1.66,1.66,0,0,0,.5.05h.17l-.17,0a1.78,1.78,0,0,1-.51,0,2.41,2.41,0,0,1-1.61-1.08,3.68,3.68,0,0,1-.62-3,2.92,2.92,0,0,1,1.1-1.64,3.71,3.71,0,0,1,2.09-.7,4.63,4.63,0,0,1,2.36.6,4.5,4.5,0,0,1,1.81,1.9,7.77,7.77,0,0,1,.42,5.66,16.24,16.24,0,0,1-3.13,5.48,43.07,43.07,0,0,0-4,5.35,11.45,11.45,0,0,0-1.52,6.32,10.66,10.66,0,0,0,.61,3.06,4.86,4.86,0,0,0,1.7,2.34,2.57,2.57,0,0,0,2.58.16,4.9,4.9,0,0,0,1.93-1.76,4.69,4.69,0,0,0,.54-4.53,3.07,3.07,0,0,0-1.38-1.46,2.28,2.28,0,0,0-1.77-.09,2.21,2.21,0,0,0-1.2,1,1.82,1.82,0,0,0-.21,1.29,2.09,2.09,0,0,0,1.05,1.49A2.38,2.38,0,0,0,346,215.93Z"/><path class="cls-3" d="M346.8,223.61a1.38,1.38,0,1,1-1.38-1.38A1.37,1.37,0,0,1,346.8,223.61Z"/><path class="cls-3" d="M347.4,186.91a1.38,1.38,0,1,1-1.38-1.38A1.37,1.37,0,0,1,347.4,186.91Z"/><path class="cls-3" d="M345.43,141.76a2.74,2.74,0,0,0,.64-.19,2.11,2.11,0,0,0,1-1.49,1.82,1.82,0,0,0-.2-1.29,2.31,2.31,0,0,0-3-.9,3,3,0,0,0-1.39,1.46,4.74,4.74,0,0,0,.55,4.54,4.85,4.85,0,0,0,1.93,1.77,2.57,2.57,0,0,0,2.58-.16,4.94,4.94,0,0,0,1.7-2.35,10.39,10.39,0,0,0,.6-3.07,11.45,11.45,0,0,0-1.51-6.34,42.27,42.27,0,0,0-4-5.36,16.09,16.09,0,0,1-3.12-5.49,7.79,7.79,0,0,1,.41-5.67,4.46,4.46,0,0,1,1.81-1.91,4.63,4.63,0,0,1,2.36-.6,3.67,3.67,0,0,1,2.1.7,2.89,2.89,0,0,1,1.1,1.64,3.74,3.74,0,0,1-.62,3,2.41,2.41,0,0,1-1.61,1.08,1.47,1.47,0,0,1-.51,0c-.12,0-.17,0-.17,0h.17a1.53,1.53,0,0,0,.49,0,2.41,2.41,0,0,0,1.49-1.1,3.62,3.62,0,0,0,.52-2.85,2.67,2.67,0,0,0-1-1.48,3.46,3.46,0,0,0-1.94-.61,4.23,4.23,0,0,0-3.83,2.37,7.45,7.45,0,0,0-.35,5.39,15.94,15.94,0,0,0,3.07,5.33,42.18,42.18,0,0,1,4.06,5.41,12,12,0,0,1,1.56,6.59,10.72,10.72,0,0,1-.65,3.19,5.27,5.27,0,0,1-1.86,2.54,3,3,0,0,1-1.49.49,3.13,3.13,0,0,1-1.49-.32,5.13,5.13,0,0,1-2.07-1.92,5,5,0,0,1-.52-4.87,3.31,3.31,0,0,1,1.54-1.59,2.53,2.53,0,0,1,2-.06,2.44,2.44,0,0,1,1.3,1.11,2,2,0,0,1,.19,1.43,2.14,2.14,0,0,1-1.17,1.54A1.13,1.13,0,0,1,345.43,141.76Z"/><path class="cls-3" d="M345.84,157.78a3.08,3.08,0,0,0-.64.19,2.11,2.11,0,0,0-1,1.49,1.82,1.82,0,0,0,.21,1.29,2.18,2.18,0,0,0,1.2,1,2.28,2.28,0,0,0,1.77-.09,3.07,3.07,0,0,0,1.38-1.46,5.21,5.21,0,0,0-2.48-6.31,2.57,2.57,0,0,0-2.58.16,4.92,4.92,0,0,0-1.69,2.35,10.4,10.4,0,0,0-.61,3.07,11.53,11.53,0,0,0,1.51,6.34,43.24,43.24,0,0,0,4,5.36,16.09,16.09,0,0,1,3.12,5.49,7.75,7.75,0,0,1-.41,5.67,4.46,4.46,0,0,1-1.81,1.91,4.59,4.59,0,0,1-2.36.6,3.67,3.67,0,0,1-2.1-.7,3,3,0,0,1-1.1-1.64,3.78,3.78,0,0,1,.62-3,2.41,2.41,0,0,1,1.61-1.08,1.26,1.26,0,0,1,.51,0c.12,0,.18,0,.18,0H345a1.53,1.53,0,0,0-.49,0,2.41,2.41,0,0,0-1.49,1.1,3.58,3.58,0,0,0-.51,2.85,2.65,2.65,0,0,0,1,1.47,3.42,3.42,0,0,0,1.94.62,4.25,4.25,0,0,0,3.84-2.37,7.5,7.5,0,0,0,.34-5.39,15.94,15.94,0,0,0-3.07-5.33,42.18,42.18,0,0,1-4.06-5.41,12,12,0,0,1-1.55-6.59,10.71,10.71,0,0,1,.64-3.19,5.33,5.33,0,0,1,1.86-2.54,3,3,0,0,1,1.49-.49,3.13,3.13,0,0,1,1.49.32,5.13,5.13,0,0,1,2.07,1.92,5,5,0,0,1,.53,4.87,3.42,3.42,0,0,1-1.55,1.59,2.53,2.53,0,0,1-2,.06,2.42,2.42,0,0,1-1.3-1.12,2,2,0,0,1-.19-1.43,2.15,2.15,0,0,1,1.18-1.53A1.1,1.1,0,0,1,345.84,157.78Z"/><circle class="cls-3" cx="346.02" cy="150.09" r="1.38"/><path class="cls-3" d="M279.58,264.45a2.6,2.6,0,0,0-.18-.64,2.11,2.11,0,0,0-1.5-1,1.89,1.89,0,0,0-1.29.2,2.32,2.32,0,0,0-.9,3,3,3,0,0,0,1.47,1.38,5.19,5.19,0,0,0,6.3-2.48,2.55,2.55,0,0,0-.16-2.58,4.85,4.85,0,0,0-2.35-1.69,10.34,10.34,0,0,0-3.06-.61,11.49,11.49,0,0,0-6.34,1.51,41.57,41.57,0,0,0-5.36,4,16.28,16.28,0,0,1-5.49,3.12,7.83,7.83,0,0,1-5.68-.41,4.52,4.52,0,0,1-1.91-1.81,4.61,4.61,0,0,1-.6-2.36,3.74,3.74,0,0,1,.7-2.1,3,3,0,0,1,1.64-1.1,3.77,3.77,0,0,1,3,.62,2.43,2.43,0,0,1,1.09,1.61,1.41,1.41,0,0,1,0,.51c0,.12,0,.18,0,.17s0-.06,0-.17a2,2,0,0,0-.05-.49,2.43,2.43,0,0,0-1.09-1.49,3.65,3.65,0,0,0-2.86-.52,2.7,2.7,0,0,0-1.47,1,3.41,3.41,0,0,0-.61,1.94,4.24,4.24,0,0,0,2.36,3.84,7.51,7.51,0,0,0,5.39.34,15.94,15.94,0,0,0,5.33-3.07,42.29,42.29,0,0,1,5.42-4.06,11.91,11.91,0,0,1,6.58-1.56,11,11,0,0,1,3.19.65,5.28,5.28,0,0,1,2.54,1.86,3,3,0,0,1,.49,1.49,3.13,3.13,0,0,1-.32,1.49,5.13,5.13,0,0,1-1.92,2.07,5,5,0,0,1-4.87.52,3.33,3.33,0,0,1-1.58-1.54,2.49,2.49,0,0,1-.07-2,2.42,2.42,0,0,1,1.12-1.3,2,2,0,0,1,1.43-.19,2.15,2.15,0,0,1,1.54,1.18A1.13,1.13,0,0,1,279.58,264.45Z"/><path class="cls-3" d="M318.12,264a1.16,1.16,0,0,1-.1.68,2.17,2.17,0,0,1-1.54,1.17,2,2,0,0,1-1.43-.19,2.42,2.42,0,0,1-1.12-1.3,2.53,2.53,0,0,1,.07-2,3.33,3.33,0,0,1,1.58-1.54,5,5,0,0,1,4.87.52,5.22,5.22,0,0,1,1.93,2.07,3.25,3.25,0,0,1,.32,1.49,3.11,3.11,0,0,1-.5,1.49,5.22,5.22,0,0,1-2.54,1.86,11,11,0,0,1-3.19.65,11.91,11.91,0,0,1-6.58-1.56,41.49,41.49,0,0,1-5.41-4.06,16.14,16.14,0,0,0-5.33-3.07,7.45,7.45,0,0,0-5.39.35,4.23,4.23,0,0,0-2.37,3.83,3.41,3.41,0,0,0,.61,1.94,2.69,2.69,0,0,0,1.47,1,3.65,3.65,0,0,0,2.86-.52,2.43,2.43,0,0,0,1.09-1.49,2,2,0,0,0,.05-.49c0-.11,0-.17,0-.17s0,.05,0,.17a1.41,1.41,0,0,1,0,.51,2.45,2.45,0,0,1-1.08,1.61,3.77,3.77,0,0,1-3,.62,3,3,0,0,1-1.64-1.1,3.74,3.74,0,0,1-.7-2.1,4.63,4.63,0,0,1,.6-2.36,4.52,4.52,0,0,1,1.91-1.81,7.83,7.83,0,0,1,5.68-.41,16.18,16.18,0,0,1,5.49,3.12,41.57,41.57,0,0,0,5.36,4,11.43,11.43,0,0,0,6.34,1.51,10.66,10.66,0,0,0,3.06-.6,4.89,4.89,0,0,0,2.35-1.7,2.55,2.55,0,0,0,.16-2.58,5.19,5.19,0,0,0-6.3-2.48,3.06,3.06,0,0,0-1.47,1.39,2.31,2.31,0,0,0,.9,3,1.9,1.9,0,0,0,1.3.2,2.11,2.11,0,0,0,1.49-1A2.6,2.6,0,0,0,318.12,264Z"/><circle class="cls-3" cx="287.91" cy="263.86" r="1.38"/><path class="cls-3" d="M331.57,262.48a1.38,1.38,0,1,0,1.38,1.38A1.38,1.38,0,0,0,331.57,262.48Z"/><path class="cls-3" d="M246.41,262.48a1.38,1.38,0,1,0,1.38,1.38A1.38,1.38,0,0,0,246.41,262.48Z"/><path class="cls-3" d="M279.58,108.85a2.49,2.49,0,0,0-.18-.63,2.09,2.09,0,0,0-1.5-1,1.84,1.84,0,0,0-1.29.21,2.22,2.22,0,0,0-1,1.2,2.28,2.28,0,0,0,.09,1.77,3,3,0,0,0,1.47,1.38,4.72,4.72,0,0,0,4.54-.55,4.8,4.8,0,0,0,1.76-1.92,2.56,2.56,0,0,0-.16-2.59A4.92,4.92,0,0,0,281,105a10.66,10.66,0,0,0-3.06-.61,11.49,11.49,0,0,0-6.34,1.51,43.49,43.49,0,0,0-5.36,4,16.28,16.28,0,0,1-5.49,3.12,7.77,7.77,0,0,1-5.68-.41,4.52,4.52,0,0,1-1.91-1.81,4.59,4.59,0,0,1-.6-2.36,3.74,3.74,0,0,1,.7-2.1,3,3,0,0,1,1.64-1.09,3.73,3.73,0,0,1,3,.61,2.43,2.43,0,0,1,1.09,1.61,1.48,1.48,0,0,1,0,.52c0,.11,0,.17,0,.17s0-.06,0-.18a2,2,0,0,0-.05-.49,2.43,2.43,0,0,0-1.09-1.49,3.61,3.61,0,0,0-2.86-.51,2.68,2.68,0,0,0-1.47,1,3.44,3.44,0,0,0-.61,1.94,4.24,4.24,0,0,0,2.36,3.84,7.51,7.51,0,0,0,5.39.34,15.94,15.94,0,0,0,5.33-3.07,42.24,42.24,0,0,1,5.42-4,11.83,11.83,0,0,1,6.58-1.56,11,11,0,0,1,3.19.64,5.28,5.28,0,0,1,2.54,1.86,3,3,0,0,1,.49,1.49,3.13,3.13,0,0,1-.32,1.49A5.55,5.55,0,0,1,277,112a3.39,3.39,0,0,1-1.58-1.55,2.47,2.47,0,0,1-.07-2,2.41,2.41,0,0,1,1.12-1.31,2,2,0,0,1,1.43-.19,2.17,2.17,0,0,1,1.54,1.18A1.13,1.13,0,0,1,279.58,108.85Z"/><path class="cls-3" d="M318.12,108.44a1.16,1.16,0,0,1-.1.68,2.2,2.2,0,0,1-1.54,1.18,2.06,2.06,0,0,1-1.43-.2,2.42,2.42,0,0,1-1.12-1.3,2.51,2.51,0,0,1,.07-2,3.35,3.35,0,0,1,1.58-1.55,5,5,0,0,1,4.87.52,5.22,5.22,0,0,1,1.93,2.07,3.28,3.28,0,0,1,.32,1.49,3,3,0,0,1-.5,1.49,5.22,5.22,0,0,1-2.54,1.86,10.65,10.65,0,0,1-3.19.65,11.83,11.83,0,0,1-6.58-1.56,42.36,42.36,0,0,1-5.41-4,16,16,0,0,0-5.33-3.07,7.4,7.4,0,0,0-5.39.34,4.23,4.23,0,0,0-2.37,3.83,3.39,3.39,0,0,0,.61,1.94,2.69,2.69,0,0,0,1.47,1,3.61,3.61,0,0,0,2.86-.52,2.44,2.44,0,0,0,1.09-1.48,2.07,2.07,0,0,0,.05-.5c0-.11,0-.17,0-.17s0,0,0,.17a1.42,1.42,0,0,1,0,.51,2.45,2.45,0,0,1-1.08,1.61,3.77,3.77,0,0,1-3,.62,2.92,2.92,0,0,1-1.64-1.1,3.74,3.74,0,0,1-.7-2.1,4.63,4.63,0,0,1,.6-2.36,4.58,4.58,0,0,1,1.91-1.81,7.88,7.88,0,0,1,5.68-.41,16.53,16.53,0,0,1,5.49,3.12,41.57,41.57,0,0,0,5.36,4,11.43,11.43,0,0,0,6.34,1.51,10.33,10.33,0,0,0,3.06-.6,4.94,4.94,0,0,0,2.35-1.69A2.57,2.57,0,0,0,322,108a4.83,4.83,0,0,0-1.76-1.93,4.74,4.74,0,0,0-4.54-.55,3.06,3.06,0,0,0-1.47,1.39,2.31,2.31,0,0,0,.9,3,1.91,1.91,0,0,0,1.3.21,2.12,2.12,0,0,0,1.49-1A2.38,2.38,0,0,0,318.12,108.44Z"/><circle class="cls-3" cx="287.91" cy="108.26" r="1.38"/><path class="cls-3" d="M331.57,106.89a1.38,1.38,0,1,0,0,2.75,1.38,1.38,0,1,0,0-2.75Z"/><path class="cls-3" d="M246.41,106.89a1.38,1.38,0,1,0,1.38,1.37A1.37,1.37,0,0,0,246.41,106.89Z"/><path class="cls-3" d="M337.11,255.13s0-.23,0-.66,0-1.09,0-1.93c0-1.71,0-4.22,0-7.49,0-6.55,0-16.11-.05-28.19,0-24.16-.06-58.44-.1-98.92l.2.2-96.3,0h0l.23-.22c0,51.46,0,99-.05,137.19l-.18-.18,70.07.1,19.4,0,5.09,0,1.76,0-1.72,0-5.06,0-19.36.05-70.18.09h-.18v-.18c0-38.17,0-85.73,0-137.19v-.22h.24l96.3,0h.2v.2c0,40.54-.07,74.86-.1,99.05,0,12.07,0,21.61,0,28.14,0,3.25,0,5.76,0,7.45,0,.84,0,1.48,0,1.91S337.11,255.13,337.11,255.13Z"/><path class="cls-3" d="M356.68,98.7a31.86,31.86,0,0,0-3.53,2,39.69,39.69,0,0,0-7.1,6.67c-2.51,2.88-4.59,5.66-6.19,7.61-.78,1-1.46,1.75-1.94,2.26a5.14,5.14,0,0,1-.81.74,4.91,4.91,0,0,1,.68-.85c.44-.55,1.07-1.34,1.83-2.35,1.52-2,3.57-4.8,6.1-7.7A35.34,35.34,0,0,1,353,100.4a11.2,11.2,0,0,1,1.48-.85l.62-.32.56-.2A5,5,0,0,1,356.68,98.7Z"/><path class="cls-3" d="M357.15,275.07a5.28,5.28,0,0,1-.75-.82l-1.94-2.3c-1.64-1.93-4-4.55-6.72-7.28s-5.36-5.06-7.3-6.7L338.13,256a5.62,5.62,0,0,1-.82-.74,4.77,4.77,0,0,1,.93.6c.58.41,1.4,1,2.4,1.83a90.26,90.26,0,0,1,14.07,14c.79,1,1.42,1.81,1.83,2.39A6.11,6.11,0,0,1,357.15,275.07Z"/><path class="cls-3" d="M220.88,274.81a5.58,5.58,0,0,1,.55-.95c.37-.6.95-1.45,1.7-2.47a60.69,60.69,0,0,1,6.49-7.44,61.49,61.49,0,0,1,7.61-6.29c1-.72,1.9-1.27,2.51-1.63a5.14,5.14,0,0,1,1-.52,4.76,4.76,0,0,1-.87.67c-.58.4-1.41,1-2.42,1.74a73.32,73.32,0,0,0-7.49,6.35,74.59,74.59,0,0,0-6.55,7.31c-.78,1-1.39,1.81-1.81,2.38A4.94,4.94,0,0,1,220.88,274.81Z"/><path class="cls-3" d="M221.22,98.7a5.53,5.53,0,0,1,.81.72l2.12,2c1.79,1.73,4.31,4.06,7.1,6.63s5.29,5,7,6.73c.86.9,1.56,1.63,2,2.16a5.42,5.42,0,0,1,.68.83,4.42,4.42,0,0,1-.81-.71c-.56-.55-1.27-1.24-2.12-2-1.78-1.73-4.3-4.06-7.1-6.63s-5.29-5-7-6.74c-.87-.89-1.56-1.62-2-2.15A5,5,0,0,1,221.22,98.7Z"/><path class="cls-3" d="M351.36,102.75c.12,0,.22,37.24.22,83.17s-.1,83.18-.22,83.18-.23-37.23-.23-83.18S351.23,102.75,351.36,102.75Z"/><path class="cls-3" d="M349.44,102.37c0,.12-27.8.22-62.09.22s-62.1-.1-62.1-.22,27.8-.22,62.1-.22S349.44,102.25,349.44,102.37Z"/><path class="cls-3" d="M225.64,266.42c-.12,0-.22-36.64-.22-81.83s.1-81.84.22-81.84.22,36.63.22,81.84S225.76,266.42,225.64,266.42Z"/><path class="cls-3" d="M351.36,269.48c0,.12-27.46.22-61.33.22s-61.33-.1-61.33-.22,27.46-.22,61.33-.22S351.36,269.36,351.36,269.48Z"/><path class="cls-3" d="M340.91,258.15s0-.24,0-.69,0-1.14,0-2c0-1.79,0-4.42,0-7.84,0-6.85-.05-16.86-.08-29.52,0-25.31-.11-61.25-.18-103.76l.2.2-104.19-.38.23-.22v.16c.15,54,.3,104,.42,144.36l-.18-.18,75.5-.12h28.34l-1.86,0-5.47,0-20.9.11-75.61.3h-.18v-.18c-.14-40.37-.32-90.34-.51-144.36v-.38h.22l104.19.41h.2v.2c0,42.57,0,78.55,0,103.89,0,12.65,0,22.64,0,29.48,0,3.4,0,6,0,7.79,0,.88,0,1.55,0,2S340.91,258.15,340.91,258.15Z"/><g class="cls-5"><path class="cls-3" d="M240.76,122.33a9.79,9.79,0,0,1-4.22,0,10.23,10.23,0,0,1,4.22,0Z"/></g><path class="cls-3" d="M245.2,258.42c-.13,0-.25-.73-.22-1.61a3.91,3.91,0,0,1,.22-1.6c.13,0,.26.72.23,1.61S245.32,258.41,245.2,258.42Z"/><path class="cls-3" d="M241.82,258.46c-.13,0-.26-.72-.22-1.61a3.72,3.72,0,0,1,.22-1.6c.13,0,.26.73.22,1.61S241.94,258.45,241.82,258.46Z"/><path class="cls-3" d="M249,258.27c-.12,0-.25-.68-.28-1.54s.05-1.55.17-1.55.25.68.28,1.54S249.16,258.27,249,258.27Z"/><path class="cls-3" d="M252.55,258.27c-.12,0-.24-.68-.27-1.54s0-1.55.16-1.55.25.68.28,1.54S252.67,258.27,252.55,258.27Z"/><path class="cls-3" d="M256.06,258.27c-.12,0-.24-.68-.27-1.54s0-1.55.17-1.55.24.68.27,1.54S256.19,258.27,256.06,258.27Z"/><path class="cls-3" d="M259.58,258.27c-.13,0-.25-.68-.28-1.54s0-1.55.17-1.55.24.68.27,1.54S259.7,258.27,259.58,258.27Z"/><path class="cls-3" d="M263.09,258.27c-.13,0-.25-.68-.28-1.54s.05-1.55.17-1.55.25.68.28,1.54S263.21,258.27,263.09,258.27Z"/><path class="cls-3" d="M266.6,258.27c-.12,0-.25-.68-.28-1.54s.05-1.55.17-1.55.25.68.28,1.54S266.72,258.27,266.6,258.27Z"/><path class="cls-3" d="M270.11,258.27c-.12,0-.25-.68-.28-1.54s.05-1.55.17-1.55.25.68.28,1.54S270.23,258.27,270.11,258.27Z"/><path class="cls-3" d="M273.62,258.27c-.12,0-.24-.68-.27-1.54s0-1.55.16-1.55.25.68.28,1.54S273.75,258.27,273.62,258.27Z"/><path class="cls-3" d="M277.13,258.27c-.12,0-.24-.68-.27-1.54s0-1.55.17-1.55.24.68.27,1.54S277.26,258.27,277.13,258.27Z"/><path class="cls-3" d="M280.65,258.27c-.13,0-.25-.68-.28-1.54s.05-1.55.17-1.55.24.68.27,1.54S280.77,258.27,280.65,258.27Z"/><path class="cls-3" d="M284.16,258.27c-.12,0-.25-.68-.28-1.54s.05-1.55.17-1.55.25.68.28,1.54S284.28,258.27,284.16,258.27Z"/><path class="cls-3" d="M287.67,258.27c-.12,0-.25-.68-.28-1.54s.05-1.55.17-1.55.25.68.28,1.54S287.79,258.27,287.67,258.27Z"/><path class="cls-3" d="M291.18,258.27c-.12,0-.24-.68-.27-1.54s0-1.55.16-1.55.25.68.28,1.54S291.3,258.27,291.18,258.27Z"/><path class="cls-3" d="M294.69,258.27c-.12,0-.24-.68-.27-1.54s0-1.55.17-1.55.24.68.27,1.54S294.82,258.27,294.69,258.27Z"/><path class="cls-3" d="M298.21,258.27c-.13,0-.25-.68-.28-1.54s0-1.55.17-1.55.24.68.27,1.54S298.33,258.27,298.21,258.27Z"/><path class="cls-3" d="M301.72,258.27c-.13,0-.25-.68-.28-1.54s.05-1.55.17-1.55.25.68.28,1.54S301.84,258.27,301.72,258.27Z"/><path class="cls-3" d="M305.23,258.27c-.12,0-.25-.68-.28-1.54s.05-1.55.17-1.55.25.68.28,1.54S305.35,258.27,305.23,258.27Z"/><path class="cls-3" d="M308.74,258.27c-.12,0-.25-.68-.28-1.54s.05-1.55.17-1.55.25.68.28,1.54S308.86,258.27,308.74,258.27Z"/><path class="cls-3" d="M312.25,258.27c-.12,0-.24-.68-.27-1.54s0-1.55.16-1.55.25.68.28,1.54S312.38,258.27,312.25,258.27Z"/><path class="cls-3" d="M315.76,258.27c-.12,0-.24-.68-.27-1.54s0-1.55.17-1.55.24.68.27,1.54S315.89,258.27,315.76,258.27Z"/><path class="cls-3" d="M319.28,258.27c-.13,0-.25-.68-.28-1.54s.05-1.55.17-1.55.24.68.27,1.54S319.4,258.27,319.28,258.27Z"/><path class="cls-3" d="M322.79,258.27c-.12,0-.25-.68-.28-1.54s.05-1.55.17-1.55.25.68.28,1.54S322.91,258.27,322.79,258.27Z"/><path class="cls-3" d="M326.3,258.27c-.12,0-.25-.68-.28-1.54s.05-1.55.17-1.55.25.68.28,1.54S326.42,258.27,326.3,258.27Z"/><path class="cls-3" d="M329.81,258.27c-.12,0-.24-.68-.27-1.54s0-1.55.16-1.55.25.68.28,1.54S329.93,258.27,329.81,258.27Z"/><path class="cls-3" d="M333.32,258.27c-.12,0-.24-.68-.27-1.54s0-1.55.17-1.55.24.68.27,1.54S333.45,258.27,333.32,258.27Z"/><path class="cls-3" d="M336.84,258.27c-.13,0-.25-.68-.28-1.54s.05-1.55.17-1.55.24.68.27,1.54S337,258.27,336.84,258.27Z"/><path class="cls-3" d="M340.79,254.2a7.93,7.93,0,0,1-3.71,0,7.93,7.93,0,0,1,3.71,0Z"/><path class="cls-3" d="M340.79,250.29a7.93,7.93,0,0,1-3.71,0,7.93,7.93,0,0,1,3.71,0Z"/><path class="cls-3" d="M340.79,246.38a7.93,7.93,0,0,1-3.71,0,7.93,7.93,0,0,1,3.71,0Z"/><path class="cls-3" d="M340.79,242.47a7.93,7.93,0,0,1-3.71,0,7.93,7.93,0,0,1,3.71,0Z"/><path class="cls-3" d="M340.79,238.56c0,.13-.83.22-1.86.22a4,4,0,0,1-1.85-.22,7.93,7.93,0,0,1,3.71,0Z"/><path class="cls-3" d="M340.79,234.65a7.6,7.6,0,0,1-3.71,0,7.93,7.93,0,0,1,3.71,0Z"/><path class="cls-3" d="M340.79,230.74a7.6,7.6,0,0,1-3.71,0,7.93,7.93,0,0,1,3.71,0Z"/><path class="cls-3" d="M340.79,226.83a7.6,7.6,0,0,1-3.71,0,7.93,7.93,0,0,1,3.71,0Z"/><path class="cls-3" d="M340.79,222.93a7.93,7.93,0,0,1-3.71,0,7.6,7.6,0,0,1,3.71,0Z"/><path class="cls-3" d="M340.79,219a7.93,7.93,0,0,1-3.71,0,7.6,7.6,0,0,1,3.71,0Z"/><path class="cls-3" d="M340.79,215.11a7.93,7.93,0,0,1-3.71,0,7.6,7.6,0,0,1,3.71,0Z"/><path class="cls-3" d="M340.79,211.2a7.93,7.93,0,0,1-3.71,0,4,4,0,0,1,1.85-.22C340,211,340.79,211.07,340.79,211.2Z"/><path class="cls-3" d="M340.79,207.29a7.93,7.93,0,0,1-3.71,0,7.93,7.93,0,0,1,3.71,0Z"/><path class="cls-3" d="M340.79,203.38a7.93,7.93,0,0,1-3.71,0,7.93,7.93,0,0,1,3.71,0Z"/><path class="cls-3" d="M340.79,199.47a7.93,7.93,0,0,1-3.71,0,7.93,7.93,0,0,1,3.71,0Z"/><path class="cls-3" d="M340.79,195.56a7.93,7.93,0,0,1-3.71,0,7.93,7.93,0,0,1,3.71,0Z"/><path class="cls-3" d="M340.79,191.65a7.93,7.93,0,0,1-3.71,0,7.93,7.93,0,0,1,3.71,0Z"/><path class="cls-3" d="M340.79,187.74a7.93,7.93,0,0,1-3.71,0,7.93,7.93,0,0,1,3.71,0Z"/><path class="cls-3" d="M340.79,183.83a7.6,7.6,0,0,1-3.71,0,7.93,7.93,0,0,1,3.71,0Z"/><path class="cls-3" d="M340.79,179.92a7.6,7.6,0,0,1-3.71,0,7.93,7.93,0,0,1,3.71,0Z"/><path class="cls-3" d="M340.79,176a7.6,7.6,0,0,1-3.71,0,7.93,7.93,0,0,1,3.71,0Z"/><path class="cls-3" d="M340.79,172.11a7.93,7.93,0,0,1-3.71,0,7.6,7.6,0,0,1,3.71,0Z"/><path class="cls-3" d="M340.79,168.2a7.93,7.93,0,0,1-3.71,0,7.6,7.6,0,0,1,3.71,0Z"/><path class="cls-3" d="M340.79,164.29a7.93,7.93,0,0,1-3.71,0,7.6,7.6,0,0,1,3.71,0Z"/><path class="cls-3" d="M340.79,160.38a7.93,7.93,0,0,1-3.71,0,4,4,0,0,1,1.85-.22C340,160.16,340.79,160.25,340.79,160.38Z"/><path class="cls-3" d="M340.79,156.47a7.93,7.93,0,0,1-3.71,0,7.93,7.93,0,0,1,3.71,0Z"/><path class="cls-3" d="M340.79,152.56a7.93,7.93,0,0,1-3.71,0,7.93,7.93,0,0,1,3.71,0Z"/><path class="cls-3" d="M340.79,148.65a7.93,7.93,0,0,1-3.71,0,7.93,7.93,0,0,1,3.71,0Z"/><path class="cls-3" d="M340.79,144.74a7.93,7.93,0,0,1-3.71,0,7.93,7.93,0,0,1,3.71,0Z"/><path class="cls-3" d="M340.79,140.83a7.93,7.93,0,0,1-3.71,0,7.93,7.93,0,0,1,3.71,0Z"/><path class="cls-3" d="M340.79,136.92a7.93,7.93,0,0,1-3.71,0,7.93,7.93,0,0,1,3.71,0Z"/><path class="cls-3" d="M340.79,133a7.6,7.6,0,0,1-3.71,0,7.93,7.93,0,0,1,3.71,0Z"/><path class="cls-3" d="M340.79,129.1a7.6,7.6,0,0,1-3.71,0,7.93,7.93,0,0,1,3.71,0Z"/><path class="cls-3" d="M340.79,125.19a7.6,7.6,0,0,1-3.71,0,7.93,7.93,0,0,1,3.71,0Z"/><path class="cls-3" d="M340.79,121.29a7.93,7.93,0,0,1-3.71,0,7.6,7.6,0,0,1,3.71,0Z"/><path class="cls-3" d="M340.79,117.38a7.93,7.93,0,0,1-3.71,0,7.6,7.6,0,0,1,3.71,0Z"/><path class="cls-3" d="M336.55,117.94a7.76,7.76,0,0,1,0-3.67c.13,0,.23.82.23,1.84S336.68,117.94,336.55,117.94Z"/><path class="cls-3" d="M332.83,117.94a7.76,7.76,0,0,1,0-3.67,7.76,7.76,0,0,1,0,3.67Z"/><path class="cls-3" d="M329.1,117.94a7.76,7.76,0,0,1,0-3.67c.13,0,.23.82.23,1.84S329.23,117.94,329.1,117.94Z"/><path class="cls-3" d="M325.38,117.94a7.76,7.76,0,0,1,0-3.67,7.76,7.76,0,0,1,0,3.67Z"/><ellipse class="cls-3" cx="321.66" cy="116.11" rx="0.22" ry="1.83"/><path class="cls-3" d="M317.93,117.94a7.76,7.76,0,0,1,0-3.67,7.76,7.76,0,0,1,0,3.67Z"/><path class="cls-3" d="M314.21,117.94c-.13,0-.23-.82-.23-1.83s.1-1.84.23-1.84a7.76,7.76,0,0,1,0,3.67Z"/><ellipse class="cls-3" cx="310.48" cy="116.11" rx="0.22" ry="1.83"/><ellipse class="cls-3" cx="306.76" cy="116.11" rx="0.22" ry="1.83"/><path class="cls-3" d="M303,117.94a7.76,7.76,0,0,1,0-3.67c.13,0,.23.82.23,1.84S303.16,117.94,303,117.94Z"/><ellipse class="cls-3" cx="299.31" cy="116.11" rx="0.22" ry="1.83"/><ellipse class="cls-3" cx="295.59" cy="116.11" rx="0.22" ry="1.83"/><path class="cls-3" d="M291.86,117.94a7.76,7.76,0,0,1,0-3.67,7.76,7.76,0,0,1,0,3.67Z"/><path class="cls-3" d="M288.14,117.94c-.13,0-.23-.82-.23-1.83s.1-1.84.23-1.84a7.76,7.76,0,0,1,0,3.67Z"/><ellipse class="cls-3" cx="284.41" cy="116.11" rx="0.22" ry="1.83"/><path class="cls-3" d="M280.69,117.94c-.13,0-.22-.82-.22-1.83s.09-1.84.22-1.84a7.76,7.76,0,0,1,0,3.67Z"/><path class="cls-3" d="M277,117.94a7.76,7.76,0,0,1,0-3.67c.13,0,.23.82.23,1.84S277.09,117.94,277,117.94Z"/><path class="cls-3" d="M273.24,117.94a7.76,7.76,0,0,1,0-3.67,7.76,7.76,0,0,1,0,3.67Z"/><path class="cls-3" d="M269.51,117.94a7.76,7.76,0,0,1,0-3.67c.13,0,.23.82.23,1.84S269.64,117.94,269.51,117.94Z"/><ellipse class="cls-3" cx="265.79" cy="116.11" rx="0.22" ry="1.83"/><path class="cls-3" d="M262.07,117.94c-.13,0-.23-.82-.23-1.83s.1-1.84.23-1.84a7.76,7.76,0,0,1,0,3.67Z"/><ellipse class="cls-3" cx="258.34" cy="116.11" rx="0.22" ry="1.83"/><ellipse class="cls-3" cx="254.62" cy="116.11" rx="0.22" ry="1.83"/><path class="cls-3" d="M250.89,117.94a7.76,7.76,0,0,1,0-3.67c.13,0,.22.82.22,1.84S251,117.94,250.89,117.94Z"/><path class="cls-3" d="M247.17,117.94a7.76,7.76,0,0,1,0-3.67,7.76,7.76,0,0,1,0,3.67Z"/><path class="cls-3" d="M243.44,117.94a7.76,7.76,0,0,1,0-3.67c.13,0,.23.82.23,1.84S243.57,117.94,243.44,117.94Z"/><path class="cls-3" d="M240.76,119.22a10.23,10.23,0,0,1-4.22,0,10.23,10.23,0,0,1,4.22,0Z"/><path class="cls-3" d="M240.76,125.45a10.23,10.23,0,0,1-4.22,0,9.79,9.79,0,0,1,4.22,0Z"/><path class="cls-3" d="M240.76,128.56a10.23,10.23,0,0,1-4.22,0,10.23,10.23,0,0,1,4.22,0Z"/><path class="cls-3" d="M240.76,131.67a9.79,9.79,0,0,1-4.22,0,10.23,10.23,0,0,1,4.22,0Z"/><path class="cls-3" d="M240.76,134.79a10.23,10.23,0,0,1-4.22,0,10.23,10.23,0,0,1,4.22,0Z"/><path class="cls-3" d="M240.76,137.9a10.23,10.23,0,0,1-4.22,0,10.23,10.23,0,0,1,4.22,0Z"/><path class="cls-3" d="M240.76,141a10.23,10.23,0,0,1-4.22,0,9.79,9.79,0,0,1,4.22,0Z"/><path class="cls-3" d="M240.76,144.13a10.23,10.23,0,0,1-4.22,0,10.23,10.23,0,0,1,4.22,0Z"/><path class="cls-3" d="M240.76,147.24a9.79,9.79,0,0,1-4.22,0,10.23,10.23,0,0,1,4.22,0Z"/><path class="cls-3" d="M240.76,150.36a10.23,10.23,0,0,1-4.22,0,10.23,10.23,0,0,1,4.22,0Z"/><path class="cls-3" d="M240.76,153.47a10.23,10.23,0,0,1-4.22,0,10.23,10.23,0,0,1,4.22,0Z"/><path class="cls-3" d="M240.76,156.59a10.23,10.23,0,0,1-4.22,0,9.79,9.79,0,0,1,4.22,0Z"/><path class="cls-3" d="M240.76,159.7a10.23,10.23,0,0,1-4.22,0,10.23,10.23,0,0,1,4.22,0Z"/><path class="cls-3" d="M240.76,162.81a9.79,9.79,0,0,1-4.22,0,10.23,10.23,0,0,1,4.22,0Z"/><path class="cls-3" d="M240.76,165.93a10.23,10.23,0,0,1-4.22,0,9.79,9.79,0,0,1,4.22,0Z"/><path class="cls-3" d="M240.76,169a10.23,10.23,0,0,1-4.22,0,10.23,10.23,0,0,1,4.22,0Z"/><path class="cls-3" d="M240.76,172.15a9.79,9.79,0,0,1-4.22,0,10.23,10.23,0,0,1,4.22,0Z"/><path class="cls-3" d="M240.76,175.27a10.23,10.23,0,0,1-4.22,0,10.23,10.23,0,0,1,4.22,0Z"/><path class="cls-3" d="M240.76,178.38a10.23,10.23,0,0,1-4.22,0,10.23,10.23,0,0,1,4.22,0Z"/><path class="cls-3" d="M240.76,181.5a10.23,10.23,0,0,1-4.22,0,9.79,9.79,0,0,1,4.22,0Z"/><path class="cls-3" d="M240.76,184.61a10.23,10.23,0,0,1-4.22,0,10.23,10.23,0,0,1,4.22,0Z"/><path class="cls-3" d="M240.76,187.72a9.79,9.79,0,0,1-4.22,0,10.23,10.23,0,0,1,4.22,0Z"/><path class="cls-3" d="M240.76,190.84a10.23,10.23,0,0,1-4.22,0,10.23,10.23,0,0,1,4.22,0Z"/><path class="cls-3" d="M240.76,194a10.23,10.23,0,0,1-4.22,0,10.23,10.23,0,0,1,4.22,0Z"/><path class="cls-3" d="M240.76,197.07a10.23,10.23,0,0,1-4.22,0,9.79,9.79,0,0,1,4.22,0Z"/><path class="cls-3" d="M240.76,200.18a10.23,10.23,0,0,1-4.22,0,10.23,10.23,0,0,1,4.22,0Z"/><path class="cls-3" d="M240.76,203.29a9.79,9.79,0,0,1-4.22,0,10.23,10.23,0,0,1,4.22,0Z"/><path class="cls-3" d="M240.76,206.41a10.23,10.23,0,0,1-4.22,0,9.79,9.79,0,0,1,4.22,0Z"/><path class="cls-3" d="M240.76,209.52a10.23,10.23,0,0,1-4.22,0,10.23,10.23,0,0,1,4.22,0Z"/><path class="cls-3" d="M240.76,212.63a9.79,9.79,0,0,1-4.22,0,10.23,10.23,0,0,1,4.22,0Z"/><path class="cls-3" d="M240.76,215.75a10.23,10.23,0,0,1-4.22,0,10.23,10.23,0,0,1,4.22,0Z"/><path class="cls-3" d="M240.76,218.86a10.23,10.23,0,0,1-4.22,0,10.23,10.23,0,0,1,4.22,0Z"/><path class="cls-3" d="M240.76,222a10.23,10.23,0,0,1-4.22,0,9.79,9.79,0,0,1,4.22,0Z"/><path class="cls-3" d="M240.76,225.09a10.23,10.23,0,0,1-4.22,0,10.23,10.23,0,0,1,4.22,0Z"/><path class="cls-3" d="M240.76,228.2a9.79,9.79,0,0,1-4.22,0,10.23,10.23,0,0,1,4.22,0Z"/><path class="cls-3" d="M240.76,231.32a10.23,10.23,0,0,1-4.22,0,10.23,10.23,0,0,1,4.22,0Z"/><path class="cls-3" d="M240.76,234.43a10.23,10.23,0,0,1-4.22,0,10.23,10.23,0,0,1,4.22,0Z"/><path class="cls-3" d="M240.76,237.55a10.23,10.23,0,0,1-4.22,0,9.79,9.79,0,0,1,4.22,0Z"/><path class="cls-3" d="M240.76,240.66a10.23,10.23,0,0,1-4.22,0,10.23,10.23,0,0,1,4.22,0Z"/><path class="cls-3" d="M240.76,243.77a10.23,10.23,0,0,1-4.22,0,10.23,10.23,0,0,1,4.22,0Z"/><path class="cls-3" d="M240.76,246.89a10.23,10.23,0,0,1-4.22,0,9.79,9.79,0,0,1,4.22,0Z"/><path class="cls-3" d="M240.76,250a10.23,10.23,0,0,1-4.22,0,10.23,10.23,0,0,1,4.22,0Z"/><path class="cls-3" d="M240.76,253.11a9.79,9.79,0,0,1-4.22,0,10.23,10.23,0,0,1,4.22,0Z"/><rect class="cls-6" x="240.89" y="117.94" width="95.66" height="137.27"/><path class="cls-4" d="M240.68,133.34c16.24,19.32,35.38,39.61,50.94,59.47l-50.86,13.6Z"/><path class="cls-2" d="M240.83,204.11l.06,51.1,96.21-.74-.37-71.09q-48.08,9.75-95.9,20.73"/><path class="cls-7" d="M232.72,156.86s-.06-.15-.15-.45l-.39-1.36c-.35-1.22-.84-3-1.47-5.23-1.26-4.58-3.08-11.15-5.32-19.27L208.05,66.88h.5l-.07.3c-6,25.15-11.93,47.81-16.39,64.16-2.23,8.17-4.12,14.76-5.45,19.31-.68,2.25-1.2,4-1.57,5.22l-.42,1.36c-.1.3-.16.45-.16.45s0-.16.11-.47l.37-1.37c.34-1.22.84-3,1.48-5.25,1.26-4.56,3.1-11.17,5.28-19.35,4.38-16.37,10.19-39,16.24-64.18l.07-.3.24-1,.27,1c6.72,24.88,12.79,47.39,17.2,63.71l5.15,19.31c.6,2.27,1.06,4,1.38,5.26.15.59.26,1,.34,1.37A4.21,4.21,0,0,1,232.72,156.86Z"/><polygon class="cls-8" points="185.08 156.28 190.95 186.71 227.97 186.19 233.11 156.86 185.08 156.28"/><path class="cls-9" d="M211.69,149.09a8.18,8.18,0,0,0,8,.68,8.65,8.65,0,0,0,4.36-6.89,9.8,9.8,0,0,0-8-.41,9.7,9.7,0,0,0-5.29,5.92"/><path class="cls-9" d="M233.64,157.57a8.2,8.2,0,0,0,8,.67,8.62,8.62,0,0,0,4.36-6.89,9.22,9.22,0,0,0-13.25,5.51"/><path class="cls-9" d="M221.32,138.65a8.18,8.18,0,0,0,6.28,4.94,8.62,8.62,0,0,0,7.44-3.35,9.78,9.78,0,0,0-6.43-4.72,9.67,9.67,0,0,0-7.67,2"/><path class="cls-9" d="M229.33,148.45a8.2,8.2,0,0,0-7.17,3.55,8.61,8.61,0,0,0-.16,8.15,9.81,9.81,0,0,0,7-3.77,9.71,9.71,0,0,0,1.46-7.8"/><path class="cls-9" d="M237.07,163.93a8.18,8.18,0,0,0,.19,8,8.63,8.63,0,0,0,7.32,3.59,9.75,9.75,0,0,0-.46-8c-1.26-2.3-3.53-3.43-6.38-4.08"/><path class="cls-9" d="M249.83,165.75a5.71,5.71,0,0,0-1.9-1.21,8,8,0,0,0-2.6-.45,29.47,29.47,0,0,0-3.55.21,10.58,10.58,0,0,1-4.36-.38,6.65,6.65,0,0,1-3.6-3.48,19.56,19.56,0,0,1-1.55-5.31,15.52,15.52,0,0,0-1.85-5.45,19.22,19.22,0,0,0-4.07-4.13,19.85,19.85,0,0,1-3.88-4,13,13,0,0,1-1.94-9,12.68,12.68,0,0,1,2.36-5.81,10.78,10.78,0,0,1,1.15-1.27,2.4,2.4,0,0,1,.46-.38,3,3,0,0,1-.38.46,10.93,10.93,0,0,0-1.06,1.31,13.17,13.17,0,0,0-.2,14.46,19.77,19.77,0,0,0,3.82,3.83,19,19,0,0,1,4.17,4.23,15.49,15.49,0,0,1,1.92,5.64,19.42,19.42,0,0,0,1.48,5.2,6.27,6.27,0,0,0,3.32,3.29,10.18,10.18,0,0,0,4.19.41,28.31,28.31,0,0,1,3.58-.13,8.31,8.31,0,0,1,2.67.55,4.56,4.56,0,0,1,1.44.94,2.45,2.45,0,0,1,.3.33C249.81,165.7,249.84,165.75,249.83,165.75Z"/><path class="cls-9" d="M249.83,165.75a5.71,5.71,0,0,0-1.9-1.21,8,8,0,0,0-2.6-.45,29.47,29.47,0,0,0-3.55.21,10.58,10.58,0,0,1-4.36-.38,6.65,6.65,0,0,1-3.6-3.48,19.56,19.56,0,0,1-1.55-5.31,15.52,15.52,0,0,0-1.85-5.45,19.22,19.22,0,0,0-4.07-4.13,19.85,19.85,0,0,1-3.88-4,13,13,0,0,1-1.94-9,12.68,12.68,0,0,1,2.36-5.81,10.78,10.78,0,0,1,1.15-1.27,2.4,2.4,0,0,1,.46-.38,3,3,0,0,1-.38.46,10.93,10.93,0,0,0-1.06,1.31,13.17,13.17,0,0,0-.2,14.46,19.77,19.77,0,0,0,3.82,3.83,19,19,0,0,1,4.17,4.23,15.49,15.49,0,0,1,1.92,5.64,19.42,19.42,0,0,0,1.48,5.2,6.27,6.27,0,0,0,3.32,3.29,10.18,10.18,0,0,0,4.19.41,28.31,28.31,0,0,1,3.58-.13,8.31,8.31,0,0,1,2.67.55,4.56,4.56,0,0,1,1.44.94,2.45,2.45,0,0,1,.3.33C249.81,165.7,249.84,165.75,249.83,165.75Z"/><path class="cls-9" d="M158.15,169.78a12.14,12.14,0,0,0-16.44-12,20.25,20.25,0,0,0,16,11.81"/><path class="cls-9" d="M155,171.46c-2.35,2.58-2.2,6.73-.52,9.78s4.57,5.24,7.47,7.17a15.77,15.77,0,0,0-6.79-17.89"/><path class="cls-9" d="M166.36,159.36a14,14,0,0,0,15.93,12.49c-.91-3.77-2.42-7.58-5.34-10.14s-7.52-3.51-10.74-1.36"/><path class="cls-9" d="M166.28,155.51c-.59-3.43-4-5.93-7.45-6.25s-6.9,1.16-9.68,3.26a12.59,12.59,0,0,0,17.17,1.69"/><path class="cls-9" d="M148.39,184.74c-3.3,2.82-4.12,7.83-2.75,11.95s4.58,7.39,8.18,9.8c1.39-4.08,2.26-8.45,1.53-12.7s-3.29-8.34-7.23-10.07"/><path class="cls-9" d="M165.75,145.87a10.14,10.14,0,0,1,16.05-.94,8.76,8.76,0,0,1-15.8.41"/><path class="cls-9" d="M169.79,136a13.16,13.16,0,0,1-16.8-10.3,30.07,30.07,0,0,1,7.93.12,12.84,12.84,0,0,1,7,3.46,7,7,0,0,1,1.84,6.72"/><path class="cls-9" d="M177.41,133.4a10.76,10.76,0,0,1-.07-16.62,22.59,22.59,0,0,1,4.71,10,8.49,8.49,0,0,1,0,4.16,3.82,3.82,0,0,1-2.9,2.72"/><g class="cls-10"><path d="M158.15,169.78a12.14,12.14,0,0,0-16.44-12,20.25,20.25,0,0,0,16,11.81"/></g><g class="cls-10"><path d="M155,171.46c-2.35,2.58-2.2,6.73-.52,9.78s4.57,5.24,7.47,7.17a15.77,15.77,0,0,0-6.79-17.89"/></g><g class="cls-10"><path d="M166.36,159.36a14,14,0,0,0,15.93,12.49c-.91-3.77-2.42-7.58-5.34-10.14s-7.52-3.51-10.74-1.36"/></g><g class="cls-10"><path d="M166.28,155.51c-.59-3.43-4-5.93-7.45-6.25s-6.9,1.16-9.68,3.26a12.59,12.59,0,0,0,17.17,1.69"/></g><g class="cls-10"><path d="M148.39,184.74c-3.3,2.82-4.12,7.83-2.75,11.95s4.58,7.39,8.18,9.8c1.39-4.08,2.26-8.45,1.53-12.7s-3.29-8.34-7.23-10.07"/></g><g class="cls-10"><path d="M165.75,145.87a10.14,10.14,0,0,1,16.05-.94,8.76,8.76,0,0,1-15.8.41"/></g><g class="cls-10"><path d="M169.79,136a13.16,13.16,0,0,1-16.8-10.3,30.07,30.07,0,0,1,7.93.12,12.84,12.84,0,0,1,7,3.46,7,7,0,0,1,1.84,6.72"/></g><g class="cls-10"><path d="M177.41,133.4a10.76,10.76,0,0,1-.07-16.62,22.59,22.59,0,0,1,4.71,10,8.49,8.49,0,0,1,0,4.16,3.82,3.82,0,0,1-2.9,2.72"/></g><path class="cls-11" d="M190.58,157.55a1,1,0,0,1,0-.28c0-.2,0-.46,0-.79,0-.69.11-1.72.13-3A27.26,27.26,0,0,0,189,142.53a16.72,16.72,0,0,0-4.39-6.17,11.74,11.74,0,0,0-8-2.94,10,10,0,0,0-4.5,1.13,8.87,8.87,0,0,0-3.48,3.32c-1.75,2.87-2.18,6.48-2,10s.63,7.12.24,10.56a16.52,16.52,0,0,1-1.32,4.9,10.31,10.31,0,0,1-3,3.87,14.74,14.74,0,0,1-4.12,2.1,21.18,21.18,0,0,0-3.88,1.76,14.18,14.18,0,0,0-5.09,5.55,13.5,13.5,0,0,0-1.47,6.08,14.34,14.34,0,0,0,.77,4.69,17,17,0,0,0,1.82,3.65,1.32,1.32,0,0,1-.18-.21,6.59,6.59,0,0,1-.46-.64,12.24,12.24,0,0,1-1.37-2.74,13.84,13.84,0,0,1-.87-4.75,13.59,13.59,0,0,1,1.43-6.24,14.37,14.37,0,0,1,5.19-5.75c2.38-1.58,5.51-2,7.93-3.88s3.69-5.14,4.06-8.45-.12-6.86-.25-10.48.27-7.31,2.1-10.32a9.44,9.44,0,0,1,3.69-3.49,10.33,10.33,0,0,1,4.72-1.17,12.14,12.14,0,0,1,8.28,3.09,17,17,0,0,1,4.45,6.36,23.14,23.14,0,0,1,1.51,6.23,34.39,34.39,0,0,1,.13,4.83c-.05,1.33-.15,2.35-.23,3,0,.32-.07.58-.1.79A.84.84,0,0,1,190.58,157.55Z"/><g class="cls-10"><path d="M190.58,157.55a1,1,0,0,1,0-.28c0-.2,0-.46,0-.79,0-.69.11-1.72.13-3A27.26,27.26,0,0,0,189,142.53a16.72,16.72,0,0,0-4.39-6.17,11.74,11.74,0,0,0-8-2.94,10,10,0,0,0-4.5,1.13,8.87,8.87,0,0,0-3.48,3.32c-1.75,2.87-2.18,6.48-2,10s.63,7.12.24,10.56a16.52,16.52,0,0,1-1.32,4.9,10.31,10.31,0,0,1-3,3.87,14.74,14.74,0,0,1-4.12,2.1,21.18,21.18,0,0,0-3.88,1.76,14.18,14.18,0,0,0-5.09,5.55,13.5,13.5,0,0,0-1.47,6.08,14.34,14.34,0,0,0,.77,4.69,17,17,0,0,0,1.82,3.65,1.32,1.32,0,0,1-.18-.21,6.59,6.59,0,0,1-.46-.64,12.24,12.24,0,0,1-1.37-2.74,13.84,13.84,0,0,1-.87-4.75,13.59,13.59,0,0,1,1.43-6.24,14.37,14.37,0,0,1,5.19-5.75c2.38-1.58,5.51-2,7.93-3.88s3.69-5.14,4.06-8.45-.12-6.86-.25-10.48.27-7.31,2.1-10.32a9.44,9.44,0,0,1,3.69-3.49,10.33,10.33,0,0,1,4.72-1.17,12.14,12.14,0,0,1,8.28,3.09,17,17,0,0,1,4.45,6.36,23.14,23.14,0,0,1,1.51,6.23,34.39,34.39,0,0,1,.13,4.83c-.05,1.33-.15,2.35-.23,3,0,.32-.07.58-.1.79A.84.84,0,0,1,190.58,157.55Z"/></g><path class="cls-9" d="M260.51,149a10.2,10.2,0,0,0,.72-3.52,8.72,8.72,0,0,0-.94-4.06,8.7,8.7,0,0,0-7-4.62,10.13,10.13,0,0,0-3.45.41c-2.35.62-4.68,2-7.47,2.51a8.8,8.8,0,0,1-4.32-.11,6.49,6.49,0,0,1-3.53-2.81c-1.68-2.61-2.15-5.87-4.18-8.27a8.21,8.21,0,0,0-3.79-2.48,10.63,10.63,0,0,0-4.43-.45,11.37,11.37,0,0,0-7.37,3.84,17.18,17.18,0,0,0-3.66,6.77,20.35,20.35,0,0,0-.82,6.71,72.43,72.43,0,0,0,1.25,9.81l.45,2.66c.05.28.08.5.11.69a2.18,2.18,0,0,1,0,.24.62.62,0,0,1-.07-.23c-.05-.18-.1-.41-.16-.68-.13-.65-.32-1.53-.55-2.65a65.57,65.57,0,0,1-1.42-9.83,20.55,20.55,0,0,1,.77-6.84,17.49,17.49,0,0,1,3.72-7,13.14,13.14,0,0,1,3.37-2.7,11.65,11.65,0,0,1,9-.86,8.7,8.7,0,0,1,4,2.63c2.14,2.57,2.6,5.86,4.21,8.33a6,6,0,0,0,3.25,2.62,8.42,8.42,0,0,0,4.08.11c2.68-.52,5-1.83,7.45-2.46a10.57,10.57,0,0,1,3.59-.39,8.9,8.9,0,0,1,3.22.91,8.72,8.72,0,0,1,4,4,8.82,8.82,0,0,1,.88,4.2,8.53,8.53,0,0,1-.52,2.66A3.94,3.94,0,0,1,260.51,149Z"/><path class="cls-9" d="M232.42,131.53a9.33,9.33,0,0,0,8.57.57,8.65,8.65,0,0,0,4.36-6.89,9.21,9.21,0,0,0-13.25,5.51"/><path class="cls-9" d="M241.53,139.79a9.32,9.32,0,0,0,4,7.61,8.66,8.66,0,0,0,8.16.14,9.23,9.23,0,0,0-11.61-8.45"/><path class="cls-9" d="M257.32,138a9.33,9.33,0,0,0,8.58-.35,8.66,8.66,0,0,0,3.6-7.32,9.82,9.82,0,0,0-8,.45,9.69,9.69,0,0,0-4.63,6.45"/><path class="cls-9" d="M219.16,126.06c-2.3-2-3.85-5.47-3.41-8.08a8.62,8.62,0,0,1,5.3-6.2,9.81,9.81,0,0,1,2.74,7.48,9.68,9.68,0,0,1-4.09,6.8"/><path class="cls-9" d="M157.49,114.76s0-.08.09-.21l.32-.59a24.85,24.85,0,0,1,8.26-8.67,16.72,16.72,0,0,1,6.17-2.26,15.28,15.28,0,0,1,7.49.78,12.17,12.17,0,0,1,6.41,5.25c1.47,2.57,1.94,5.59,2.8,8.47a15.41,15.41,0,0,0,1.79,4,12.59,12.59,0,0,0,3.05,3c1.14.84,2.34,1.6,3.43,2.49a15,15,0,0,1,2.79,3,18.53,18.53,0,0,1,2.85,7,24.37,24.37,0,0,1,.38,6.55,49.57,49.57,0,0,1-1.67,9.33c-.29,1.08-.53,1.91-.69,2.48a6.25,6.25,0,0,1-.28.85,4.8,4.8,0,0,1,.18-.88c.14-.62.34-1.45.59-2.5a54.33,54.33,0,0,0,1.51-9.3,24.59,24.59,0,0,0-.44-6.45,18.2,18.2,0,0,0-2.83-6.79,14.21,14.21,0,0,0-2.7-2.9c-1.06-.86-2.26-1.62-3.42-2.47a12.89,12.89,0,0,1-3.18-3.12,15.88,15.88,0,0,1-1.85-4.19c-.87-2.93-1.35-5.91-2.76-8.37a11.7,11.7,0,0,0-6.13-5,15,15,0,0,0-7.26-.81,16.6,16.6,0,0,0-6,2.16,24,24,0,0,0-6.9,6.3c-.67.89-1.14,1.61-1.46,2.1S157.5,114.76,157.49,114.76Z"/><path class="cls-9" d="M195.21,125.34c-.79-.74-1.18-.23-2.25,0a6.68,6.68,0,0,0-2.88,1.43,12.17,12.17,0,0,0-3.94,12.75,9.48,9.48,0,0,0,8.71-14.24"/><path class="cls-9" d="M162.58,110.48c-.4-1-1-.71-2-1a6.62,6.62,0,0,0-3.22.05,12.16,12.16,0,0,0-9,9.82,9.49,9.49,0,0,0,14-9.11"/><path class="cls-9" d="M202.4,145.44a10.93,10.93,0,0,0-17.2.84,13.52,13.52,0,0,0,8.92,3.52,13.85,13.85,0,0,0,9-3.64"/><path class="cls-9" d="M199.72,130.43a11.08,11.08,0,0,0,11.2-13.24,10,10,0,0,0-11.57,13.13"/><path class="cls-9" d="M188.24,112.78a11.1,11.1,0,0,0,15-8.76,9.95,9.95,0,0,0-15.27,8.53"/><path class="cls-9" d="M184.38,107a11.1,11.1,0,0,0-15,8.76,10,10,0,0,0,15.28-8.53"/><path class="cls-9" d="M179.8,103.91a11.09,11.09,0,0,0,5.9-16.3,10,10,0,0,0-6.29,16.33"/><path class="cls-9" d="M168,104.47A11.09,11.09,0,0,0,159,89.69a9.95,9.95,0,0,0,8.83,15.1"/><path class="cls-2" d="M230,173.85s-.08.14-.28.38a10.4,10.4,0,0,1-.92,1,16.83,16.83,0,0,1-4,2.8,17.74,17.74,0,0,1-7.05,1.82,17,17,0,0,1-4.32-.37A25.73,25.73,0,0,1,209,178c-2.91-1.24-5.56-2.66-8.14-3.48a14,14,0,0,0-7-.68,9.21,9.21,0,0,0-4.31,2c-.86.76-1.19,1.32-1.24,1.29a2.19,2.19,0,0,1,.23-.41,6.3,6.3,0,0,1,.87-1,8.93,8.93,0,0,1,4.37-2.21,14.19,14.19,0,0,1,7.26.58c2.64.82,5.31,2.23,8.19,3.46a26.59,26.59,0,0,0,4.31,1.44,16.9,16.9,0,0,0,4.19.38,18,18,0,0,0,6.91-1.67A20.84,20.84,0,0,0,230,173.85Z"/><path class="cls-2" d="M230.41,170.33a1.68,1.68,0,0,1-.31.35,10.18,10.18,0,0,1-1,.9,18.46,18.46,0,0,1-4.18,2.59,19.37,19.37,0,0,1-11.43,1.41,29.92,29.92,0,0,1-4.47-1.26c-3-1.09-5.72-2.33-8.34-3.06a16.46,16.46,0,0,0-7.09-.64,10.51,10.51,0,0,0-4.48,1.71c-.93.65-1.34,1.16-1.38,1.12s.08-.14.28-.37a6.7,6.7,0,0,1,1-.92,10.36,10.36,0,0,1,4.53-1.91,16.54,16.54,0,0,1,7.28.55c2.67.71,5.43,2,8.38,3a30.3,30.3,0,0,0,4.39,1.25,19.19,19.19,0,0,0,4.22.31,20,20,0,0,0,7-1.55A24.88,24.88,0,0,0,230.41,170.33Z"/><path class="cls-7" d="M213.89,64.84a5.29,5.29,0,1,1-5.28-5.28A5.29,5.29,0,0,1,213.89,64.84Z"/><path class="cls-7" d="M208.18,0c.14,0,.26,29.81.26,41.92s-.12,21.91-.26,21.91-.26-9.81-.26-21.91S208,0,208.18,0Z"/><path class="cls-7" d="M232.92,161s-.14.09-.44.21l-1.31.49c-.56.22-1.26.47-2.09.71s-1.76.56-2.81.82a70,70,0,0,1-7.47,1.53,75.52,75.52,0,0,1-9.32.73,77.41,77.41,0,0,1-9.32-.52,66.68,66.68,0,0,1-7.51-1.37c-1.06-.23-2-.52-2.83-.75s-1.54-.45-2.11-.66l-1.32-.46c-.3-.11-.45-.18-.44-.2a2.45,2.45,0,0,1,.48.1l1.34.37c.58.17,1.29.37,2.13.57s1.77.47,2.83.67a74.37,74.37,0,0,0,7.48,1.25,73.58,73.58,0,0,0,18.52-.21,75.8,75.8,0,0,0,7.45-1.41c1-.23,2-.52,2.82-.74s1.53-.43,2.11-.62l1.34-.4Z"/><path class="cls-7" d="M202.08,164.94a1.91,1.91,0,0,1-.13.51c-.1.32-.25.8-.46,1.42-.43,1.22-1.08,3-2,5.12s-2,4.66-3.46,7.38c-.71,1.36-1.48,2.78-2.32,4.22-.42.73-.85,1.46-1.3,2.19a5.25,5.25,0,0,1-.83,1.09,1.77,1.77,0,0,1-1.39.53,2.47,2.47,0,0,1-2-1.93,24.72,24.72,0,0,1-.45-2.54c-.25-1.65-.46-3.24-.65-4.76-.38-3-.65-5.8-.83-8.11s-.28-4.18-.33-5.48c0-.65,0-1.15,0-1.49a1.76,1.76,0,0,1,0-.52,2.05,2.05,0,0,1,.08.51c0,.4.08.89.14,1.49.12,1.37.29,3.21.49,5.46s.53,5,.93,8.08c.21,1.51.43,3.1.68,4.75.15.81.23,1.68.45,2.46a2.52,2.52,0,0,0,.54,1,1.56,1.56,0,0,0,1,.52c.75.08,1.31-.66,1.73-1.37l1.3-2.17c.84-1.44,1.61-2.84,2.33-4.19,1.43-2.7,2.61-5.19,3.55-7.3s1.64-3.85,2.13-5.06l.55-1.38A2.13,2.13,0,0,1,202.08,164.94Z"/><path class="cls-7" d="M222.09,163.69a1.61,1.61,0,0,1-.09.51l-.37,1.41c-.37,1.3-.86,3-1.47,5.17s-1.39,4.78-2.23,7.64l-.65,2.21c-.23.75-.42,1.54-.73,2.32a6.73,6.73,0,0,1-1.31,2.2,4.3,4.3,0,0,1-2.34,1.33,3.52,3.52,0,0,1-2.61-.65,5.53,5.53,0,0,1-1.71-1.93c-.74-1.5-1.32-3-1.86-4.36-1.08-2.81-1.93-5.38-2.62-7.54s-1.21-3.92-1.55-5.14c-.15-.57-.27-1-.38-1.42a2,2,0,0,1-.09-.5,2,2,0,0,1,.19.47c.13.38.29.83.47,1.39.43,1.27,1,3,1.71,5.09s1.62,4.69,2.71,7.48c.55,1.38,1.15,2.85,1.86,4.28a5.16,5.16,0,0,0,1.56,1.76,3,3,0,0,0,2.23.55,3.75,3.75,0,0,0,2.05-1.16,6.23,6.23,0,0,0,1.22-2c.3-.74.48-1.51.72-2.26l.67-2.21c.88-2.85,1.67-5.42,2.34-7.62s1.22-3.83,1.62-5.12c.19-.55.34-1,.47-1.38A2.74,2.74,0,0,1,222.09,163.69Z"/><path class="cls-7" d="M232.92,161s.06-.08.13,0a1.06,1.06,0,0,1,.09.38,11.49,11.49,0,0,1,0,1.45c-.09,1.24-.32,3-.64,5.25s-.73,4.85-1.17,7.75c-.22,1.46-.45,3-.68,4.57-.12.79-.23,1.6-.34,2.42-.06.41-.11.82-.16,1.24l-.08.64a2,2,0,0,1-.28.68,1.49,1.49,0,0,1-1.26.76,1,1,0,0,1-.73-.37,1.86,1.86,0,0,1-.33-.64c-.21-.8-.41-1.6-.62-2.38-.4-1.55-.78-3.05-1.15-4.48-.72-2.84-1.36-5.41-1.92-7.6s-.93-3.85-1.25-5.14c-.12-.56-.22-1-.31-1.4a2.22,2.22,0,0,1-.08-.5,1.82,1.82,0,0,1,.18.47c.11.38.25.83.41,1.38.35,1.28.83,3,1.41,5.1l2,7.57c.37,1.42.77,2.92,1.18,4.47.2.77.41,1.56.62,2.35.11.38.3.65.59.65a1,1,0,0,0,.8-.52C231.33,172,233.51,160.81,232.92,161Z"/><path class="cls-9" d="M83,343.58c-7.42-11.35-6.34-27.55,2.52-37.81,2.75-3.18,6.59-5.95,10.78-5.59s7.75,4.05,9.06,8.15.85,8.55.08,12.79c-1.07,5.93-2.87,12-7,16.41S88.25,346.47,83,343.58"/><path class="cls-9" d="M87.06,398.17a17,17,0,0,1,4.73-19.25c1.7-1.39,3.93-2.46,6.06-1.9a5.9,5.9,0,0,1,3.92,5,14,14,0,0,1-1.11,6.6c-1.09,3-2.57,5.92-5.09,7.82s-6,3.68-8.51,1.71"/><path class="cls-9" d="M69.18,394.28a24.53,24.53,0,0,0-12.37-25.89c-2.82-1.47-6.3-2.34-9.15-.91s-4.32,5-4.08,8.27,1.79,6.25,3.52,9c2.42,3.87,5.38,7.64,9.51,9.59s9.65,3.44,12.57-.08"/><path class="cls-9" d="M70.46,367.09C74,355.63,68,341.74,58,335.16c-3.12-2-7.06-3.46-10.54-2.13s-5.61,5.33-5.72,9.14,1.36,7.48,3,10.9c2.36,4.79,5.37,9.52,9.94,12.27s12,5.5,15.78,1.75"/><path class="cls-7" d="M77.59,423.09a3.72,3.72,0,0,1-.11-.55c-.07-.42-.14-1-.24-1.6,0-.35-.1-.74-.16-1.16s-.17-.87-.27-1.36c-.18-1-.37-2.09-.69-3.31-.15-.61-.31-1.24-.47-1.91l-.6-2c-.38-1.42-.94-2.89-1.47-4.46a88.27,88.27,0,0,0-4.42-9.81,87.44,87.44,0,0,0-5.73-9.11c-1-1.3-1.93-2.59-2.91-3.69l-1.37-1.63L57.82,381c-.84-.94-1.66-1.72-2.37-2.41-.36-.35-.69-.67-1-1l-.88-.77-1.2-1.08a2.88,2.88,0,0,1-.4-.4,2,2,0,0,1,.46.33l1.27,1,.9.74,1,1c.74.68,1.58,1.44,2.43,2.37l1.37,1.43,1.4,1.62c1,1.1,1.93,2.38,3,3.69a81.44,81.44,0,0,1,5.79,9.14A82.49,82.49,0,0,1,74,406.55c.52,1.58,1.07,3.06,1.44,4.5.2.71.39,1.4.58,2.06l.43,1.93c.3,1.22.47,2.35.63,3.33.08.49.16.95.23,1.38s.08.81.12,1.16c.06.66.11,1.2.14,1.62A2.15,2.15,0,0,1,77.59,423.09Z"/><path class="cls-7" d="M77.33,425.15a.68.68,0,0,1,0-.23c0-.18,0-.39,0-.66.06-.62.14-1.47.23-2.55.06-.55.12-1.17.19-1.84s.06-1.4.11-2.19c0-1.57.21-3.36.15-5.35,0-1,0-2,0-3.11s-.11-2.2-.16-3.37c-.08-2.33-.4-4.8-.68-7.4a116,116,0,0,0-3.51-16.66,116.58,116.58,0,0,0-6.14-15.89c-1.19-2.34-2.27-4.58-3.47-6.58-.59-1-1.12-2-1.7-2.92l-1.68-2.61c-1-1.7-2.14-3.12-3.05-4.4-.46-.64-.87-1.25-1.28-1.78l-1.16-1.44-1.58-2-.4-.53a.89.89,0,0,1-.13-.19s.06.05.16.16l.44.5c.41.47,1,1.13,1.66,1.95l1.19,1.42c.42.53.85,1.12,1.32,1.76.93,1.27,2.06,2.68,3.11,4.37l1.72,2.61c.59.91,1.13,1.9,1.73,2.91,1.22,2,2.32,4.24,3.52,6.58a111.92,111.92,0,0,1,6.2,15.95,111.54,111.54,0,0,1,3.49,16.74c.27,2.62.58,5.1.64,7.44,0,1.17.14,2.3.14,3.38s0,2.13,0,3.13c0,2-.14,3.78-.22,5.36-.06.79-.09,1.52-.15,2.19s-.16,1.29-.23,1.84c-.14,1.07-.24,1.92-.32,2.54,0,.27-.07.48-.1.66S77.34,425.15,77.33,425.15Z"/><path class="cls-7" d="M96.64,313.88l-.1.21c-.08.16-.19.35-.32.59L95,317c-.27.49-.59,1-.91,1.63s-.64,1.28-1,2-.74,1.48-1.14,2.29-.76,1.7-1.17,2.62-.84,1.88-1.25,2.9-.81,2.09-1.23,3.19c-.22.56-.43,1.12-.65,1.69s-.4,1.16-.6,1.76c-.4,1.2-.81,2.42-1.24,3.68-1.57,5.09-3.06,10.75-4.32,16.76s-2.07,11.81-2.7,17.1-.94,10.07-1,14.1c-.1,2-.12,3.83-.13,5.43s0,3,0,4.1,0,2,0,2.59v.68a.6.6,0,0,1,0,.23.72.72,0,0,1,0-.23c0-.18,0-.4,0-.67,0-.63-.07-1.5-.12-2.59s-.09-2.51-.09-4.11,0-3.43.06-5.44c.06-4,.43-8.83.94-14.14s1.46-11.11,2.68-17.15,2.76-11.7,4.37-16.79l1.26-3.69.61-1.77.66-1.68c.44-1.1.86-2.17,1.26-3.19s.88-2,1.29-2.9.8-1.8,1.2-2.62l1.18-2.28,1-2c.33-.6.67-1.13,1-1.62l1.35-2.22.36-.57C96.58,313.94,96.63,313.87,96.64,313.88Z"/><path class="cls-7" d="M94.12,383.48a11.85,11.85,0,0,1-.79,1.38c-.54.87-1.29,2.15-2.16,3.75s-1.84,3.56-2.81,5.77a77.31,77.31,0,0,0-2.73,7.36c-.81,2.66-1.43,5.25-1.9,7.61s-.75,4.53-.93,6.35-.29,3.29-.33,4.31a10.18,10.18,0,0,1-.13,1.59,8.22,8.22,0,0,1-.06-1.59c0-1,0-2.51.18-4.34a64.14,64.14,0,0,1,.83-6.4A66,66,0,0,1,88,394.2c1-2.21,2-4.16,2.92-5.75s1.71-2.85,2.3-3.69A9.23,9.23,0,0,1,94.12,383.48Z"/><polygon class="cls-8" points="63.03 417.99 95.6 417.99 91.66 451.26 67.08 451.26 63.03 417.99"/><polygon class="cls-7" points="64.22 447.67 66.98 451.26 91.66 451.26 94.51 447.78 64.22 447.67"/><path class="cls-2" d="M94.33,427.77c0,.14-6.76.24-15.09.24s-15.1-.1-15.1-.24,6.76-.24,15.1-.24S94.33,427.64,94.33,427.77Z"/><path class="cls-2" d="M94.33,430c0,.13-6.76.24-15.09.24s-15.1-.11-15.1-.24,6.76-.25,15.1-.25S94.33,429.85,94.33,430Z"/><path class="cls-2" d="M93.93,432.13c0,.14-6.53.24-14.57.24s-14.57-.1-14.57-.24,6.52-.24,14.57-.24S93.93,432,93.93,432.13Z"/><path class="cls-12" d="M255.24,340.24,238.51,366l-24.37-10.37-13.84-7.23-16.93,1.86L207.28,365h0l23.32,21.91A14.37,14.37,0,0,0,254,384.57l19-33.71Z"/><path class="cls-12" d="M210.16,354.47a129.77,129.77,0,0,0-21-5.57c-.44.46.14,2,.67,2.41a5.43,5.43,0,0,0,2,.94,7.2,7.2,0,0,1,2.06.56,5.55,5.55,0,0,1,2,2.43c1.89,3.06,6.32,5.05,10.67,4.78"/><path class="cls-13" d="M206.63,360a1.46,1.46,0,0,1-.45.07,10,10,0,0,1-1.29,0,13.39,13.39,0,0,1-4.64-1.09,11.53,11.53,0,0,1-2.82-1.75,9.17,9.17,0,0,1-1.28-1.35c-.39-.52-.7-1.11-1-1.66a3.2,3.2,0,0,0-1.35-1.28,8.28,8.28,0,0,0-2-.5,5.41,5.41,0,0,1-2.07-1,2.5,2.5,0,0,1-.69-1.05,2.6,2.6,0,0,1-.21-1.23.85.85,0,0,1,.21-.5l.09-.1.14,0a103.19,103.19,0,0,1,14.94,3.69c1.87.6,3.37,1.12,4.4,1.5a11.28,11.28,0,0,1,1.58.64,10.27,10.27,0,0,1-1.64-.45l-4.44-1.34a119.52,119.52,0,0,0-14.92-3.52l.23-.08a.48.48,0,0,0-.08.2,2.59,2.59,0,0,0,.71,1.81,5,5,0,0,0,1.85.89,8.8,8.8,0,0,1,2.1.55,3.7,3.7,0,0,1,1.55,1.48,9.88,9.88,0,0,0,4.88,4.68,14.25,14.25,0,0,0,4.5,1.22C206,360,206.63,360,206.63,360Z"/><path class="cls-14" d="M112,431.26,89.8,442.77l-3.63,4.16a6.12,6.12,0,0,1-8.64.59L46.45,420.41s1.26-4.4,4.4-3.38,27.88,8.49,27.88,8.49l20.69-12.78Z"/><g class="cls-10"><path class="cls-14" d="M112,431.26,89.8,442.77l-3.63,4.16a6.12,6.12,0,0,1-8.64.59L46.45,420.41s1.26-4.4,4.4-3.38,27.88,8.49,27.88,8.49l20.69-12.78Z"/></g><path class="cls-14" d="M141.7,430.64l-5.42,9.89v11.65H88.91S87,448,90,446.74s26.59-11.93,26.59-11.93l9.82-14.53Z"/><g class="cls-10"><path class="cls-14" d="M141.7,430.64l-5.42,9.89v11.65H88.91S87,448,90,446.74s26.59-11.93,26.59-11.93l9.82-14.53Z"/></g><path class="cls-9" d="M170.41,365.36s-12.84,1-17.43,4-62.09,44.3-62.09,44.3l14.17,22.45,39.67-18.8Z"/><g class="cls-15"><path d="M170.41,365.36s-12.84,1-17.43,4-62.09,44.3-62.09,44.3l14.17,22.45,39.67-18.8Z"/></g><path class="cls-9" d="M307.12,416s-4.89,21.41-6.14,24.71c-1.77,4.65-20,15.17-42.22,9.48-23-5.88-77.68-50.32-77.68-50.32l-5.48,4-34.21,31.77s-19.64-8.1-19.64-16.22c0,0,41.58-63.46,45.37-64.66s7.68-2.37,12.28-1.4,73.76,38.88,73.76,38.88h0Z"/><g class="cls-15"><path d="M307.12,416s-4.89,21.41-6.14,24.71c-1.77,4.65-20,15.17-42.22,9.48-23-5.88-77.68-50.32-77.68-50.32l-5.48,4-34.21,31.77s-19.64-8.1-19.64-16.22c0,0,41.58-63.46,45.37-64.66s7.68-2.37,12.28-1.4,73.76,38.88,73.76,38.88h0Z"/></g><path class="cls-7" d="M163.62,388.67a3.05,3.05,0,0,1,.22.88,11.47,11.47,0,0,0,.7,2.32l.35.72c.06.13.13.25.19.38l.25.37.52.76.66.73a12.76,12.76,0,0,0,3.52,2.59,22.22,22.22,0,0,0,7.69,2.18c2.06.22,3.35.14,3.36.24a3.43,3.43,0,0,1-.91.13,16.76,16.76,0,0,1-2.48,0,20.59,20.59,0,0,1-7.9-2.08,12.81,12.81,0,0,1-3.63-2.73l-.67-.78-.53-.82-.25-.38-.18-.41-.34-.76a9.19,9.19,0,0,1-.55-2.43A2.76,2.76,0,0,1,163.62,388.67Z"/><path class="cls-7" d="M181.08,399.84a3.34,3.34,0,0,1-.8-.45c-.51-.31-1.2-.82-2-1.46a21.45,21.45,0,0,1-5.44-6.19,20.69,20.69,0,0,1-2.45-7.86,23.55,23.55,0,0,1-.18-2.49,3.69,3.69,0,0,1,0-.92c.09,0,.18,1.29.51,3.36a23,23,0,0,0,2.54,7.66,23.92,23.92,0,0,0,5.22,6.16C180.07,399,181.13,399.76,181.08,399.84Z"/><path class="cls-7" d="M141.39,435.63a3,3,0,0,1-.47-.15l-1.35-.51a45.62,45.62,0,0,1-5-2.27A38.56,38.56,0,0,1,127.5,428a28.19,28.19,0,0,1-3.68-3.72,17,17,0,0,1-2.94-5l0-.09.07-.1,13.44-19.86c7.9-11.6,15.22-22,20.67-29.41,2.72-3.71,5-6.68,6.53-8.72.76-1,1.37-1.78,1.81-2.34l.49-.6a2.49,2.49,0,0,1,.17-.2s0,.08-.13.23l-.44.63q-.64.87-1.74,2.4c-1.54,2.11-3.71,5.12-6.39,8.82-5.37,7.46-12.64,17.88-20.54,29.48l-13.49,19.83,0-.19a16.78,16.78,0,0,0,2.83,4.87,26.41,26.41,0,0,0,3.6,3.7,38.64,38.64,0,0,0,7,4.74,51.74,51.74,0,0,0,4.91,2.38l1.33.57A2.29,2.29,0,0,1,141.39,435.63Z"/><path class="cls-9" d="M114.63,430.86a5.39,5.39,0,0,1-.76-.79c-.47-.52-1.11-1.31-1.89-2.29a94.26,94.26,0,0,1-10.43-16.62c-.55-1.13-1-2.05-1.25-2.7a4.47,4.47,0,0,1-.37-1,4.79,4.79,0,0,1,.56.94c.38.72.84,1.6,1.39,2.63,1.17,2.21,2.86,5.23,4.89,8.47s4,6.06,5.5,8.08L114,430A4.1,4.1,0,0,1,114.63,430.86Z"/><path class="cls-9" d="M122.83,415.58a13.23,13.23,0,0,1-1.89-2.3,56.15,56.15,0,0,1-3.85-6.08,55.48,55.48,0,0,1-3.07-6.51,12.85,12.85,0,0,1-.92-2.83,23,23,0,0,1,1.26,2.69c.75,1.67,1.84,3.95,3.18,6.4s2.69,4.59,3.7,6.12A22.49,22.49,0,0,1,122.83,415.58Z"/><path class="cls-9" d="M134.71,400.08a7.83,7.83,0,0,1-1.37-1.61,38.85,38.85,0,0,1-4.92-8.89,7.4,7.4,0,0,1-.62-2c.15-.05,1.34,2.93,3.25,6.37S134.84,400,134.71,400.08Z"/><path class="cls-9" d="M145.23,383.08a4.25,4.25,0,0,1-.45.44l-1.35,1.19c-1.18,1-2.91,2.5-5.07,4.29-4.3,3.57-10.34,8.41-17.16,13.56s-13.13,9.63-17.75,12.8c-2.31,1.58-4.19,2.84-5.5,3.69l-1.52,1a3,3,0,0,1-.55.31,2.78,2.78,0,0,1,.49-.4l1.46-1.05,5.41-3.83c4.56-3.24,10.83-7.77,17.65-12.91s12.88-9.94,17.24-13.44l5.17-4.15,1.41-1.12C145,383.19,145.21,383.06,145.23,383.08Z"/><path class="cls-9" d="M122.11,421a22.38,22.38,0,0,1-3,1.37c-1.85.8-4.41,1.92-7.2,3.24s-5.28,2.58-7.08,3.51a22.21,22.21,0,0,1-2.95,1.43,19.44,19.44,0,0,1,2.78-1.76c1.76-1,4.23-2.33,7-3.65s5.39-2.4,7.29-3.11A18.48,18.48,0,0,1,122.11,421Z"/><path class="cls-9" d="M191.73,361.6a9.36,9.36,0,0,1-1.32-.76c-.84-.52-2-1.27-3.58-2.13a36.49,36.49,0,0,0-5.56-2.59A16.36,16.36,0,0,0,174,355a15.44,15.44,0,0,0-6.8,2.85,36.07,36.07,0,0,0-4.66,4c-1.25,1.24-2.22,2.28-2.89,3a7.69,7.69,0,0,1-1.08,1.08,7.91,7.91,0,0,1,.93-1.22c.63-.76,1.55-1.84,2.77-3.12a33.08,33.08,0,0,1,4.66-4.12,15.49,15.49,0,0,1,7-3,16.45,16.45,0,0,1,7.53,1.15,34.63,34.63,0,0,1,5.58,2.72c1.52.91,2.7,1.7,3.51,2.28A8.36,8.36,0,0,1,191.73,361.6Z"/><path class="cls-9" d="M176.38,396.86a11.27,11.27,0,0,1-.49-1.64c-.3-1.07-.66-2.63-1.06-4.56a113.14,113.14,0,0,1-2.07-15.3,114.74,114.74,0,0,1,0-15.43c.15-2,.31-3.56.46-4.66a11.54,11.54,0,0,1,.27-1.69,10,10,0,0,1-.07,1.71c-.09,1.1-.19,2.69-.29,4.66a135.8,135.8,0,0,0,.11,15.38,134.17,134.17,0,0,0,1.91,15.26c.35,1.94.66,3.5.89,4.58A9.6,9.6,0,0,1,176.38,396.86Z"/><path class="cls-7" d="M319.05,452.18c0,.14-63,.26-140.71.26s-140.73-.12-140.73-.26,63-.26,140.73-.26S319.05,452,319.05,452.18Z"/><path class="cls-9" d="M148,427.9a4.45,4.45,0,0,1-1-.31,28.17,28.17,0,0,1-2.72-1.11,30.66,30.66,0,0,1-14.1-13c-.6-1.08-1.06-2-1.33-2.62a4.66,4.66,0,0,1-.39-1c.08,0,.75,1.34,2,3.44a33.61,33.61,0,0,0,13.94,12.83C146.64,427.26,148.07,427.81,148,427.9Z"/><path class="cls-9" d="M157.9,418.49a4.1,4.1,0,0,1-1.09-.41c-.7-.3-1.67-.78-2.85-1.43a48.06,48.06,0,0,1-8.56-6.07,48.78,48.78,0,0,1-7-7.8c-.78-1.09-1.37-2-1.74-2.66a4.92,4.92,0,0,1-.54-1c.07,0,1,1.35,2.58,3.47a54.33,54.33,0,0,0,15.46,13.77C156.44,417.7,157.93,418.41,157.9,418.49Z"/><path class="cls-9" d="M169.3,409.19a5.46,5.46,0,0,1-1.25-.5c-.8-.34-1.92-.9-3.29-1.64a53.56,53.56,0,0,1-9.9-7,64.55,64.55,0,0,1-8.18-8.95c-.93-1.24-1.66-2.26-2.14-3a6.28,6.28,0,0,1-.71-1.15,6.73,6.73,0,0,1,.87,1l2.27,2.87a76.6,76.6,0,0,0,8.23,8.79,61.33,61.33,0,0,0,9.74,7.06c1.34.77,2.43,1.38,3.2,1.78A7.57,7.57,0,0,1,169.3,409.19Z"/><path class="cls-9" d="M159.65,365c.11,0,0,2.17.35,5.62.11.86.22,1.8.44,2.8s.45,2.06.72,3.17a40.37,40.37,0,0,0,6.49,13.33c.7.9,1.35,1.78,2,2.53s1.33,1.46,1.94,2.07c2.47,2.44,4.27,3.65,4.2,3.74a7.79,7.79,0,0,1-1.27-.83,15.24,15.24,0,0,1-1.41-1.09c-.53-.45-1.16-.93-1.78-1.56s-1.32-1.26-2-2-1.38-1.62-2.11-2.53a38.6,38.6,0,0,1-6.56-13.49c-.27-1.13-.54-2.2-.69-3.22s-.29-2-.37-2.84a23.22,23.22,0,0,1-.13-2.36,14.76,14.76,0,0,1,0-1.78A9.4,9.4,0,0,1,159.65,365Z"/><path class="cls-9" d="M187.57,360.75a8.77,8.77,0,0,1-.73,1.36c-.26.43-.57.95-.89,1.59s-.73,1.32-1.09,2.13a52.89,52.89,0,0,0-2.36,5.77,55.22,55.22,0,0,0-1.89,7.39,54.37,54.37,0,0,0-.75,7.59,53.1,53.1,0,0,0,.25,6.23c.06.89.21,1.68.3,2.38s.19,1.3.29,1.79a8.93,8.93,0,0,1,.22,1.53,9.61,9.61,0,0,1-.42-1.49,16.75,16.75,0,0,1-.38-1.78c-.12-.7-.29-1.5-.37-2.39a44.58,44.58,0,0,1-.37-6.28,51.08,51.08,0,0,1,.72-7.67,50.26,50.26,0,0,1,2-7.46,46.08,46.08,0,0,1,2.48-5.77c.39-.81.82-1.5,1.17-2.12s.68-1.13,1-1.54A9.11,9.11,0,0,1,187.57,360.75Z"/><path class="cls-9" d="M207.16,369.2a9.66,9.66,0,0,1-1.12,1.2c-.38.36-.83.81-1.33,1.37s-1.1,1.15-1.69,1.88a53.68,53.68,0,0,0-4,5.24,59.35,59.35,0,0,0-4,7,58.48,58.48,0,0,0-2.88,7.52,55.56,55.56,0,0,0-1.5,6.41c-.18.92-.26,1.76-.37,2.5s-.17,1.38-.21,1.9a11.87,11.87,0,0,1-.2,1.63,8.65,8.65,0,0,1,0-1.64c0-.53,0-1.17.12-1.92s.14-1.6.3-2.53a51,51,0,0,1,1.4-6.49,55.09,55.09,0,0,1,2.87-7.6,56.05,56.05,0,0,1,4-7.06,50.26,50.26,0,0,1,4.11-5.21c.61-.72,1.24-1.31,1.76-1.84s1-1,1.4-1.32A11.47,11.47,0,0,1,207.16,369.2Z"/><path class="cls-9" d="M225.17,379.62a10.28,10.28,0,0,1-.73,1.5c-.49.95-1.24,2.31-2.18,4-1.88,3.35-4.57,7.91-7.69,12.87s-6.09,9.34-8.3,12.47c-1.1,1.57-2,2.83-2.65,3.69a12.22,12.22,0,0,1-1,1.3,10.29,10.29,0,0,1,.87-1.42c.64-1,1.49-2.24,2.52-3.77,2.13-3.19,5-7.61,8.16-12.55s5.85-9.48,7.81-12.77l2.33-3.9A10,10,0,0,1,225.17,379.62Z"/><path class="cls-9" d="M245.78,388.87s-.05.15-.19.42-.38.71-.63,1.18c-.56,1-1.4,2.47-2.48,4.24-2.15,3.55-5.29,8.34-9.08,13.42s-7.52,9.44-10.31,12.5c-1.4,1.54-2.55,2.75-3.37,3.57-.37.38-.69.69-.95.94a1.68,1.68,0,0,1-.35.31s.08-.14.28-.38l.87-1,3.24-3.68c2.72-3.12,6.38-7.52,10.17-12.58s7-9.81,9.19-13.29l2.61-4.15.72-1.13A1.87,1.87,0,0,1,245.78,388.87Z"/><path class="cls-9" d="M263.59,401.29a1.45,1.45,0,0,1-.11.46l-.4,1.28c-.18.55-.41,1.23-.72,2s-.62,1.66-1.05,2.61c-.81,1.92-1.9,4.16-3.22,6.58a80.75,80.75,0,0,1-4.84,7.56,78.19,78.19,0,0,1-5.73,6.91,70.22,70.22,0,0,1-5.28,5.08c-.78.7-1.53,1.28-2.17,1.8s-1.21.95-1.69,1.29l-1.09.78a2.14,2.14,0,0,1-.4.24s.1-.13.34-.33l1-.85c.45-.36,1-.81,1.63-1.36s1.35-1.13,2.1-1.84c1.55-1.39,3.31-3.12,5.18-5.13a88.77,88.77,0,0,0,5.66-6.9,84.42,84.42,0,0,0,4.84-7.49c1.34-2.39,2.46-4.59,3.3-6.49.46-.94.8-1.81,1.12-2.57s.59-1.42.8-2l.49-1.25A1.61,1.61,0,0,1,263.59,401.29Z"/><path class="cls-9" d="M279.15,418.11a9,9,0,0,1-.45,1.43c-.31.92-.83,2.22-1.53,3.81a66.47,66.47,0,0,1-15.75,21.81c-1.28,1.16-2.35,2.06-3.12,2.65a7.42,7.42,0,0,1-1.23.87,9.68,9.68,0,0,1,1.1-1c.73-.63,1.76-1.57,3-2.76a74.09,74.09,0,0,0,15.66-21.7c.74-1.55,1.31-2.83,1.68-3.72A7.26,7.26,0,0,1,279.15,418.11Z"/><path class="cls-9" d="M296.48,426.9a4.11,4.11,0,0,1-.22,1c-.17.66-.47,1.6-.87,2.76a57.47,57.47,0,0,1-9.25,16.65c-.76,1-1.41,1.71-1.88,2.2a4.22,4.22,0,0,1-.77.74c-.06-.05.91-1.21,2.36-3.16a73.11,73.11,0,0,0,5.16-8,70.66,70.66,0,0,0,4-8.59C295.93,428.31,296.4,426.87,296.48,426.9Z"/><path class="cls-9" d="M165.6,394.22a2,2,0,0,1-.24.41c-.21.3-.47.66-.77,1.1-.67.95-1.67,2.31-2.93,4-2.52,3.33-6.09,7.85-10.21,12.7s-8,9.11-10.9,12.13c-1.44,1.51-2.62,2.71-3.45,3.53l-1,.94a2,2,0,0,1-.36.3s.08-.14.28-.38l.9-1,3.32-3.64c2.81-3.08,6.65-7.37,10.77-12.21s7.73-9.33,10.32-12.59l3.06-3.87.84-1.05C165.47,394.33,165.58,394.21,165.6,394.22Z"/><path class="cls-9" d="M170.41,387.29c.06.14-1.4.84-3,2s-2.77,2.26-2.89,2.16a7.54,7.54,0,0,1,2.59-2.58A7.7,7.7,0,0,1,170.41,387.29Z"/><path class="cls-9" d="M275.64,451.1a1.21,1.21,0,0,1-.31-.06l-.88-.25c-.76-.23-1.92-.51-3.36-1a96.31,96.31,0,0,1-12-4.85,129.77,129.77,0,0,1-16.55-9.69c-6-4.06-12.27-8.9-18.79-14.06S211,411.12,205.11,407A158.82,158.82,0,0,0,189,396.72a108,108,0,0,0-11.64-5.54c-1.41-.6-2.53-1-3.28-1.27l-.85-.33a1.14,1.14,0,0,1-.28-.13l.3.08.87.28c.75.27,1.89.61,3.31,1.18a99.2,99.2,0,0,1,11.74,5.41,152.52,152.52,0,0,1,16.26,10.17c5.91,4.15,12.16,9,18.7,14.19s12.8,10,18.74,14.08a134.72,134.72,0,0,0,16.44,9.75,106,106,0,0,0,11.88,5c1.43.53,2.58.85,3.33,1.11l.87.3A2.19,2.19,0,0,1,275.64,451.1Z"/><path class="cls-9" d="M298.76,442.71s-3.08-.61-8.53-2.19a147.72,147.72,0,0,1-22.36-8.75,234.08,234.08,0,0,1-30.59-18.22,410.94,410.94,0,0,1-34.36-26.85c-7.43-6.38-14.51-12.7-21.15-18.64l.07.05-4.4-1.82.1,0a12.36,12.36,0,0,0-7.59,2.94,36.9,36.9,0,0,0-5.64,5.75q-5,6.19-9.51,11.79c-6,7.47-11.17,14.13-15.37,19.75s-7.45,10.16-9.63,13.3l-2.5,3.61-.65.93a3.45,3.45,0,0,1-.23.3s.06-.11.2-.33l.61-1c.54-.83,1.35-2.07,2.43-3.65,2.14-3.17,5.34-7.75,9.52-13.4s9.34-12.33,15.29-19.82q4.49-5.61,9.48-11.82a36.93,36.93,0,0,1,5.7-5.84,12.9,12.9,0,0,1,7.89-3.06h.05l0,0,4.4,1.81,0,0,0,0c6.65,5.92,13.73,12.24,21.15,18.61a417.8,417.8,0,0,0,34.29,26.86A238.64,238.64,0,0,0,268,431.44a153.14,153.14,0,0,0,22.26,8.88c2.71.8,4.83,1.42,6.27,1.78l1.64.44C298.57,442.64,298.76,442.71,298.76,442.71Z"/><path class="cls-9" d="M271.68,406.92h-.91c-.59,0-1.47,0-2.59-.11a50,50,0,0,1-9.41-1.61,68.69,68.69,0,0,1-13.21-5.08A109,109,0,0,1,230.79,391c-5-3.61-9.52-7.32-13.64-10.7s-7.8-6.43-11-8.91-5.78-4.42-7.62-5.71l-2.12-1.49-.55-.4-.18-.15s.08,0,.21.11l.58.35c.49.32,1.24.77,2.17,1.41,1.88,1.25,4.53,3.14,7.73,5.59s6.93,5.47,11.06,8.83,8.67,7,13.63,10.65a110.43,110.43,0,0,0,14.68,9.08,70,70,0,0,0,13.1,5.15,54.58,54.58,0,0,0,9.33,1.77c1.11.15,2,.14,2.58.21l.67.05Z"/><path class="cls-7" d="M224.39,379.64h0a3.52,3.52,0,0,0-1.12-4.9L181.8,349.26l-7.55-51.9a2.94,2.94,0,0,0-3-2.52h0a2.94,2.94,0,0,0-2.86,3.33l7.25,54.53Z"/><path class="cls-9" d="M302.2,297.13c1.16,1.13,17.33,7.4,18.81,20.64.66,5.91-14.73,105.44-14.73,105.44l-1.8.52a26.65,26.65,0,0,1-28.74-9.49l-3-4.07a39.25,39.25,0,0,0-8.71-8.5l-16.33-12.44,11.92-10.9-1.16-12.11s-5.23-18.57-2.32-27.86S273,309.54,273,309.54l6.93-7.8Z"/><path class="cls-7" d="M304.27,413a3,3,0,0,1-.73.56,6.32,6.32,0,0,1-.91.57,10.11,10.11,0,0,1-1.28.65,17.51,17.51,0,0,1-3.53,1.19,21.46,21.46,0,0,1-4.54.47,21,21,0,0,1-4.53-.62,17.19,17.19,0,0,1-3.49-1.3,11.91,11.91,0,0,1-1.26-.69,6.85,6.85,0,0,1-.89-.59c-.48-.36-.73-.57-.71-.6s1.11.7,3,1.55a19.36,19.36,0,0,0,3.46,1.17,20.23,20.23,0,0,0,8.85.14,20.56,20.56,0,0,0,3.49-1.05C303.14,413.67,304.21,412.92,304.27,413Z"/><path class="cls-7" d="M303.34,404.53a6.25,6.25,0,0,1-1.67,1.33,18.12,18.12,0,0,1-9.81,2.83,6.35,6.35,0,0,1-2.12-.24,24.85,24.85,0,0,0,13.6-3.92Z"/><path class="cls-9" d="M307.8,302.7s-16.27-3.9-20.33,11.7a267,267,0,0,1-10.81,31.54l37.24,7.83S326.05,312.44,307.8,302.7Z"/><path class="cls-7" d="M313.9,353.77a3.75,3.75,0,0,1-.75-.11l-2.13-.4-7.87-1.57-26.54-5.5-.3-.06.11-.28c.76-2,1.51-4,2.24-6.16,2-5.83,3.67-11.45,5-16.62.32-1.29.58-2.57.93-3.8s.74-2.39,1.16-3.51.85-2.18,1.28-3.19a15.91,15.91,0,0,1,1.43-2.86,15,15,0,0,1,3.9-3.86,16.11,16.11,0,0,1,3.65-1.93,9.34,9.34,0,0,1,2.53-.63,4,4,0,0,1,.91,0s-.32,0-.9.11a11.34,11.34,0,0,0-2.47.71,17.83,17.83,0,0,0-3.56,2,13.21,13.21,0,0,0-5.12,6.63c-.42,1-.85,2.08-1.25,3.19s-.78,2.28-1.12,3.49-.59,2.48-.91,3.78c-1.26,5.2-2.94,10.84-4.93,16.68-.73,2.13-1.48,4.21-2.25,6.17l-.19-.34,26.51,5.66,7.84,1.73,2.11.49A3.67,3.67,0,0,1,313.9,353.77Z"/><path class="cls-7" d="M272,363.45a4.23,4.23,0,0,1-1.71-.36,12.43,12.43,0,0,1-6.46-5.26,4.17,4.17,0,0,1-.7-1.6,16.76,16.76,0,0,0,8.87,7.22Z"/><path class="cls-7" d="M315,347.27a6.67,6.67,0,0,1,.24-1.4c.21-.9.46-2.19.74-3.8a70.62,70.62,0,0,0-.19-25.33c-.3-1.6-.58-2.89-.79-3.78a6.64,6.64,0,0,1-.27-1.4,7.53,7.53,0,0,1,.46,1.35c.28.87.61,2.16,1,3.76a62.79,62.79,0,0,1,.19,25.47c-.32,1.61-.64,2.9-.9,3.77A8.13,8.13,0,0,1,315,347.27Z"/><path class="cls-7" d="M264.7,291.5c1.43,4.11-1.07,8.5-3.75,11.93s-5.83,7-5.88,11.37c0,2.35.86,4.59,1.47,6.86s.92,4.8-.2,6.86c-1.29,2.37-4.18,3.56-5.38,6a7.07,7.07,0,0,0,0,5.7,20.71,20.71,0,0,0,3.18,4.92c.6.78,1.5,1.64,2.42,1.31a2.37,2.37,0,0,0,1.15-1.33q7.58-15.25,14.3-30.92a22.9,22.9,0,0,0,2.12-7c.41-5.09-2.57-10-2.1-15.09"/><path class="cls-7" d="M263.1,243.6c-4.24,2.7-5.93,8.36-5.12,11.7.4,1.68,1.17,3.38.83,5.08-.28,1.47-1.34,2.64-2.13,3.92a11.8,11.8,0,0,0,14.75,17"/><path class="cls-7" d="M260.59,265.67c-10.32-22.69,14.22-34.09,27.61-30.3,12.59,3.55,18,9.81,20,18.23s2,17.54-1.33,25.56c-1.63,3.95-4.56,8-8.81,8.46"/><path class="cls-12" d="M272.58,312.72c-.18-10.84-.21-17.29-.21-17.23s-9.32-1.55-11.25-13.71c-1-6-.66-16-.14-24.06.45-7.29,5.29-16.24,12.56-15.47L296.23,248a4.28,4.28,0,0,1,3.83,4.34h0l-1.48,46.94"/><path class="cls-7" d="M263.7,265.69a1.54,1.54,0,0,0,1.48,1.58,1.48,1.48,0,0,0,1.61-1.38,1.55,1.55,0,0,0-1.47-1.58A1.49,1.49,0,0,0,263.7,265.69Z"/><path class="cls-7" d="M279.6,265.69a1.54,1.54,0,0,0,1.47,1.58,1.49,1.49,0,0,0,1.62-1.38,1.57,1.57,0,0,0-1.48-1.58A1.48,1.48,0,0,0,279.6,265.69Z"/><path class="cls-7" d="M263.35,262.31c.19.21,1.4-.62,3.08-.56s2.88.94,3.06.74-.09-.46-.61-.87a4.26,4.26,0,0,0-2.45-.85,4.15,4.15,0,0,0-2.45.71C263.45,261.86,263.26,262.22,263.35,262.31Z"/><path class="cls-7" d="M279.28,262.71c.19.21,1.37-.67,3.05-.68s2.91.83,3.09.63-.11-.46-.65-.85a4.31,4.31,0,0,0-2.47-.75,4.07,4.07,0,0,0-2.43.8C279.36,262.25,279.18,262.62,279.28,262.71Z"/><path class="cls-7" d="M273.53,275.63a11.8,11.8,0,0,0-2.73-.49c-.42,0-.83-.13-.9-.42a2.24,2.24,0,0,1,.28-1.27c.41-1,.83-2.12,1.27-3.26,1.76-4.65,3-8.47,2.85-8.54s-1.77,3.64-3.53,8.29l-1.21,3.28a2.55,2.55,0,0,0-.23,1.68,1.1,1.1,0,0,0,.71.63,3,3,0,0,0,.73.1A10.6,10.6,0,0,0,273.53,275.63Z"/><path class="cls-13" d="M272.37,295.49a30.9,30.9,0,0,0,16.28-4.34s-4.11,8.45-16.28,7.32Z"/><path class="cls-13" d="M274.24,279.68a3,3,0,0,1,2.71-1.13,2.77,2.77,0,0,1,1.91,1,1.76,1.76,0,0,1,.13,2,2,2,0,0,1-2.2.55,6.24,6.24,0,0,1-2.15-1.28,1.69,1.69,0,0,1-.47-.49.56.56,0,0,1,0-.63"/><path class="cls-7" d="M278.47,276.79c-.28,0-.28,1.81-1.84,3.1s-3.5,1.09-3.51,1.35.43.35,1.25.38a4.57,4.57,0,0,0,2.93-1,4,4,0,0,0,1.43-2.59C278.8,277.24,278.59,276.78,278.47,276.79Z"/><path class="cls-7" d="M278.86,260.25c.17.46,1.84.24,3.81.48s3.56.77,3.83.36c.11-.19-.16-.62-.81-1.06a6.34,6.34,0,0,0-2.83-1,6.27,6.27,0,0,0-3,.35C279.16,259.68,278.79,260,278.86,260.25Z"/><path class="cls-7" d="M263.74,258c.3.38,1.45,0,2.84,0s2.57.25,2.84-.14c.12-.2-.07-.58-.58-.94a4,4,0,0,0-2.31-.63,4,4,0,0,0-2.27.77C263.77,257.44,263.61,257.84,263.74,258Z"/><path class="cls-12" d="M298,268.25c.18-.09,6.51-2.89,6.58,4.39s-7.25,5.86-7.26,5.65S298,268.25,298,268.25Z"/><path class="cls-13" d="M299.48,275.51s.13.08.35.18a1.27,1.27,0,0,0,.95,0,3.15,3.15,0,0,0,1.42-2.83,4.07,4.07,0,0,0-.38-1.81,1.46,1.46,0,0,0-1-1,.64.64,0,0,0-.74.36c-.1.2-.05.35-.09.36s-.16-.12-.1-.42a.82.82,0,0,1,.28-.46,1,1,0,0,1,.7-.19,1.79,1.79,0,0,1,1.34,1.11,4.43,4.43,0,0,1,.46,2c0,1.47-.77,2.85-1.82,3.16a1.35,1.35,0,0,1-1.16-.18C299.5,275.68,299.46,275.52,299.48,275.51Z"/><path class="cls-7" d="M271.11,238.58c-4.05,2.09-5.72,10.38-4,14.62s6.19,6.31,10.64,7.28a26.85,26.85,0,0,0,13.21-.13c.31,3,2.08,6,4.95,6.77,3.79,1,7.61-2.45,8.46-6.28s-.42-7.8-1.67-11.53"/><path class="cls-7" d="M303.23,265s-.18.22-.56.53a19.73,19.73,0,0,1-1.68,1.27,10.22,10.22,0,0,1-2.83,1.37,6.08,6.08,0,0,1-3.86-.06,6,6,0,0,1-2.93-2.52,8.11,8.11,0,0,1-1.05-3,11.19,11.19,0,0,1-.11-2.1,2.67,2.67,0,0,1,.09-.77c.08,0,0,1.1.32,2.82a8.22,8.22,0,0,0,1.08,2.82,5.72,5.72,0,0,0,2.74,2.34,6,6,0,0,0,3.61.08,10.89,10.89,0,0,0,2.78-1.25C302.32,265.61,303.19,264.93,303.23,265Z"/><path class="cls-7" d="M321.27,300.79a20.79,20.79,0,0,0-3-5.05l-.59-.81c3.24-2.38,4.56-6.25,4-11.17-.36-2.93-1.51-4.91-6.18-10.67a31.86,31.86,0,0,1-6.67-16.81l-3.22,9.3,1.3,10.69-3.1,6.36-1.91.8-3-4.89c-2,5.49-4,7.21-8.1,10s-8.21,4.54-11.56,10.47C278.3,300.65,272,323,273.12,324c0,0,11.68-12.68,15.53-16.23,4.57-4.21,8.56-5.89,14.14-5.42,3.94.7,6.43.66,9.22,3.54,1.32,1.35,2.6,3,4.46,3.36a4.62,4.62,0,0,0,4.77-2.68A7.44,7.44,0,0,0,321.27,300.79Z"/><path class="cls-8" d="M318.46,295.87s-.13-.27-.46-.73a6.28,6.28,0,0,0-1.84-1.64,17.29,17.29,0,0,0-3.61-1.56,22.78,22.78,0,0,1-2.3-.91,7.88,7.88,0,0,1-2.31-1.55,5.88,5.88,0,0,1-1.52-2.65,9.1,9.1,0,0,1-.23-3.31c.19-2.31,1.2-4.58,2-7a14.77,14.77,0,0,0,.73-3.82,7.87,7.87,0,0,0-.87-3.9,5.22,5.22,0,0,0-1.3-1.58,4.88,4.88,0,0,0-1.88-.89c-.68-.18-1.4-.27-2.12-.43a5.24,5.24,0,0,1-2.08-.85,4.39,4.39,0,0,1-1.36-1.78c-.32-.66-.56-1.35-.85-2a6.29,6.29,0,0,0-2.78-3,10.89,10.89,0,0,0-3.84-1.21,25.88,25.88,0,0,0-3.92-.14c-1.28,0-2.53.06-3.75,0a14.76,14.76,0,0,1-9-3.7,14.11,14.11,0,0,1-3.2-4.14,14.59,14.59,0,0,1-1.32-3.72,13.59,13.59,0,0,1-.29-2.49,8.3,8.3,0,0,1,0-.87,2,2,0,0,1,0,.22c0,.15,0,.37,0,.65a14.14,14.14,0,0,0,.34,2.46A14.69,14.69,0,0,0,272,249a14.37,14.37,0,0,0,3.2,4.07,14.9,14.9,0,0,0,5.47,3,14.39,14.39,0,0,0,3.45.58c1.21.07,2.46,0,3.74,0a26.41,26.41,0,0,1,3.95.14,11.09,11.09,0,0,1,3.94,1.23,7.31,7.31,0,0,1,1.69,1.31,6.43,6.43,0,0,1,1.19,1.82c.3.67.54,1.35.85,2a4.21,4.21,0,0,0,1.28,1.69,5.14,5.14,0,0,0,2,.8c.71.15,1.43.25,2.14.44a5.18,5.18,0,0,1,2,.93,5.55,5.55,0,0,1,1.36,1.66,8.31,8.31,0,0,1,.9,4,15,15,0,0,1-.76,3.88c-.78,2.45-1.78,4.69-2,7a8.92,8.92,0,0,0,.21,3.24,5.74,5.74,0,0,0,1.46,2.58,8,8,0,0,0,2.25,1.53,24,24,0,0,0,2.28.91,18,18,0,0,1,3.61,1.61,6.26,6.26,0,0,1,1.83,1.7A3.64,3.64,0,0,1,318.46,295.87Z"/><path class="cls-8" d="M315.67,290.66l.16-.11c.1-.08.27-.17.47-.33a7,7,0,0,0,1.52-1.6,8.67,8.67,0,0,0,1.34-3.21,10.45,10.45,0,0,0-.11-4.6,16.7,16.7,0,0,0-2.3-5.11,57.36,57.36,0,0,0-3.92-5.17,35.09,35.09,0,0,1-4.12-5.9c-1.2-2.23-1.66-4.82-2.66-7.24a9.85,9.85,0,0,0-2.06-3.24,11.29,11.29,0,0,0-3.05-2.16,26.78,26.78,0,0,0-6.85-2,49.52,49.52,0,0,1-6.32-1.55,27,27,0,0,1-5.19-2.3,18.23,18.23,0,0,1-6-5.52,13.58,13.58,0,0,1-1.1-2c-.11-.23-.18-.41-.23-.53a.88.88,0,0,1-.06-.19l.09.18c.06.11.13.29.25.52a14.47,14.47,0,0,0,1.13,1.91,18.49,18.49,0,0,0,6,5.42,27.09,27.09,0,0,0,5.17,2.26,50.15,50.15,0,0,0,6.3,1.52,27.26,27.26,0,0,1,6.91,2,11.59,11.59,0,0,1,3.12,2.21,10.24,10.24,0,0,1,2.12,3.32c1,2.47,1.47,5,2.64,7.23a35.21,35.21,0,0,0,4.08,5.86,57.23,57.23,0,0,1,3.92,5.21,17,17,0,0,1,2.3,5.18,10.56,10.56,0,0,1,.07,4.67,8.69,8.69,0,0,1-1.4,3.24,6.61,6.61,0,0,1-1.57,1.58A5,5,0,0,1,315.67,290.66Z"/><path class="cls-8" d="M280.45,304.53a1.65,1.65,0,0,1-.05-.38,9.58,9.58,0,0,1,0-1.11,12.12,12.12,0,0,1,.88-4,15.64,15.64,0,0,1,3.28-5,23.6,23.6,0,0,1,5.94-4.36c2.31-1.24,4.68-2.06,6.66-3.13a14.39,14.39,0,0,0,2.65-1.77,8.81,8.81,0,0,0,1.78-2.1,6.73,6.73,0,0,0,1.1-3.79,8.1,8.1,0,0,0-.25-1.46,1.76,1.76,0,0,1,.14.36,4.75,4.75,0,0,1,.21,1.09,6.8,6.8,0,0,1-1,3.9,8.93,8.93,0,0,1-1.81,2.16,13.91,13.91,0,0,1-2.67,1.82c-2,1.09-4.36,1.91-6.65,3.15a23.39,23.39,0,0,0-5.89,4.3,15.53,15.53,0,0,0-3.28,4.94,12.72,12.72,0,0,0-.95,3.9c0,.47,0,.84,0,1.09A2.29,2.29,0,0,1,280.45,304.53Z"/><path class="cls-8" d="M304,247.15s-.12-.41-.43-1.08a7.73,7.73,0,0,0-1.92-2.45,11.23,11.23,0,0,0-4.08-2.16,30,30,0,0,0-5.64-.93,46.87,46.87,0,0,1-10.26-2c-1.28-.4-2.29-.78-3-1.07l-.8-.33c-.18-.09-.27-.13-.26-.14a1,1,0,0,1,.28.09l.81.29c.71.25,1.73.61,3,1a50.67,50.67,0,0,0,10.24,1.9,28.63,28.63,0,0,1,5.68,1,11,11,0,0,1,4.13,2.25,7.33,7.33,0,0,1,1.89,2.54,5.69,5.69,0,0,1,.28.82A1.05,1.05,0,0,1,304,247.15Z"/><path class="cls-7" d="M290.83,236.24c-1.6-2.6-.8-6.18,1.27-8.43a13.81,13.81,0,0,1,8.12-3.82,12.44,12.44,0,0,1,6.33.34,6.21,6.21,0,0,1,4.08,4.58c.36,2.34-1,4.62-2.75,6.26a2.67,2.67,0,0,0-1.07,1.67c0,.72.56,1.29,1,1.84a5.68,5.68,0,0,1,1.48,3.87,3.74,3.74,0,0,1-2.25,3.32c-1.43.54-3,0-4.43-.59l-8.87-3.51"/><path class="cls-9" d="M305.41,244.32c-.11.12-2.64-2.18-6.2-4.38s-6.72-3.49-6.66-3.64a8.42,8.42,0,0,1,2.13.7,34.23,34.23,0,0,1,4.81,2.5,33.22,33.22,0,0,1,4.35,3.22A8.56,8.56,0,0,1,305.41,244.32Z"/><path class="cls-12" d="M282,347.36l-9.79,23.72-42.79-8.23s-18.32-14.23-18.91-14.7l-5.27.73-8.64-.23-7.67,4.14-1.3.22,35.69,22.11,41.46,23.61a20.11,20.11,0,0,0,18.72,1.91h0A20.14,20.14,0,0,0,294.81,389l13.35-36.27Z"/><path class="cls-13" d="M189.41,352.54a11.26,11.26,0,0,1,2.32-.59c1.45-.3,3.45-.68,5.67-1.07l2.08-.35h.06l.06,0c1.66.53,3.1,1,4.12,1.36a6.37,6.37,0,0,1,1.59.66,7.33,7.33,0,0,1-1.69-.36c-1-.27-2.5-.68-4.17-1.18h.11l-2.07.37c-2.22.38-4.23.71-5.69.91A10.92,10.92,0,0,1,189.41,352.54Z"/><path class="cls-13" d="M191.62,355.33a47.62,47.62,0,0,1,7-.36l1.68,0h.06l.05,0a34,34,0,0,1,4.77,2.45,31.59,31.59,0,0,1-5-2l.1,0-1.67,0A49.29,49.29,0,0,1,191.62,355.33Z"/><path class="cls-13" d="M282,347.36a1.47,1.47,0,0,1-.14.45l-.5,1.3L279.43,354c-1.72,4.21-4.13,10.14-7,17.18l-.07.18-.18,0-20.56-3.92-22.23-4.3h0l0,0-13.65-10.72-3.81-3-1-.82a2.35,2.35,0,0,1-.33-.3,2.21,2.21,0,0,1,.37.24l1,.77,3.88,2.94,13.76,10.57-.09,0,22.23,4.24,20.55,4L272,371c2.94-7,5.42-12.92,7.17-17.12l2.07-4.82c.23-.52.41-.94.56-1.26A3,3,0,0,1,282,347.36Z"/><path class="cls-13" d="M278.21,388.06a20.93,20.93,0,0,1-.54-2.64,42.46,42.46,0,0,0-1.71-6.23,43.15,43.15,0,0,0-2.67-5.89,20,20,0,0,1-1.28-2.37,10.3,10.3,0,0,1,1.6,2.18,33,33,0,0,1,2.84,5.9,32.41,32.41,0,0,1,1.59,6.34A10.47,10.47,0,0,1,278.21,388.06Z"/><polygon class="cls-9" points="221.53 451.1 226.57 422.12 199.96 421.9 204.16 451.1 221.53 451.1"/><path class="cls-9" d="M225.75,428.46s12-1.16,11.09,8.69-14.41,7.11-14.41,7.11v-3.77s10.66-.18,9.44-4.32-8.3-3.46-8.3-3.46Z"/><path class="cls-11" d="M196.47,397.28a11.13,11.13,0,0,1,1.21-4.18,11.67,11.67,0,0,1,2.2-2.88,15.25,15.25,0,0,1,2.92-2.17,2.35,2.35,0,0,1,.6-.23,1.92,1.92,0,0,0,.54-.32,6.71,6.71,0,0,0,1.69-2.54,6.14,6.14,0,0,1,1.37-2.39c.64-.51,1.78-.54,3.06.55a7.88,7.88,0,0,1,2.31,6.54,9.49,9.49,0,0,1-.54,2.54,12.23,12.23,0,0,1-1.28,2.5c-1,1.43-1.89,2.46-2.2,3.07l-.08.17h.17c.12,0,.11,0,.11,0s0,0,0,0a.68.68,0,0,1,.08.17,6.26,6.26,0,0,0,.33.72c.16.29.37.62.59.94s.54.7.92,1.14c.75.87,1.71,1.89,2.68,3.09a19,19,0,0,1,2.62,4.13,11.28,11.28,0,0,1,1.07,5c-.05,3.05-1.55,5.56-3.15,6.51s-2.8.47-3.19-.22a19.57,19.57,0,0,1-.74-2.53,9.66,9.66,0,0,0-1.52-2.38,4.84,4.84,0,0,0-1.16-1c-.51-.41-1.15-.89-2-1.53s-1.92-1.43-3.15-2.55a19.34,19.34,0,0,1-2-2,16.92,16.92,0,0,1-1.84-2.73A13.47,13.47,0,0,1,196.47,397.28Z"/><g class="cls-16"><path class="cls-6" d="M196.47,397.28a11.13,11.13,0,0,1,1.21-4.18,11.67,11.67,0,0,1,2.2-2.88,15.25,15.25,0,0,1,2.92-2.17,2.35,2.35,0,0,1,.6-.23,1.92,1.92,0,0,0,.54-.32,6.71,6.71,0,0,0,1.69-2.54,6.14,6.14,0,0,1,1.37-2.39c.64-.51,1.78-.54,3.06.55a7.88,7.88,0,0,1,2.31,6.54,9.49,9.49,0,0,1-.54,2.54,12.23,12.23,0,0,1-1.28,2.5c-1,1.43-1.89,2.46-2.2,3.07l-.08.17h.17c.12,0,.11,0,.11,0s0,0,0,0a.68.68,0,0,1,.08.17,6.26,6.26,0,0,0,.33.72c.16.29.37.62.59.94s.54.7.92,1.14c.75.87,1.71,1.89,2.68,3.09a19,19,0,0,1,2.62,4.13,11.28,11.28,0,0,1,1.07,5c-.05,3.05-1.55,5.56-3.15,6.51s-2.8.47-3.19-.22a19.57,19.57,0,0,1-.74-2.53,9.66,9.66,0,0,0-1.52-2.38,4.84,4.84,0,0,0-1.16-1c-.51-.41-1.15-.89-2-1.53s-1.92-1.43-3.15-2.55a19.34,19.34,0,0,1-2-2,16.92,16.92,0,0,1-1.84-2.73A13.47,13.47,0,0,1,196.47,397.28Z"/></g><g class="cls-17"><path d="M211.27,439a5.66,5.66,0,0,1,.93-3.06c.5-.77,1.1-1.44,1.59-2.11a6.49,6.49,0,0,0,1-1.95,3.79,3.79,0,0,0,.16-.85l.13.07a3.09,3.09,0,0,1,1.31,2,6.06,6.06,0,0,1-.11,2.47,5.41,5.41,0,0,1-1.3,2.62,3.59,3.59,0,0,1-3.12,1A3.41,3.41,0,0,1,211.27,439Z"/><path d="M210.07,436.32a10.77,10.77,0,0,1,.63-3.24,3.61,3.61,0,0,1,2.37-2.19,2.84,2.84,0,0,1,1.71.08,3.58,3.58,0,0,1-.2.87,6.51,6.51,0,0,1-1.06,1.83c-.49.64-1.1,1.31-1.63,2.12a5.69,5.69,0,0,0-.9,2.55,5.21,5.21,0,0,0,0,.55,2,2,0,0,1-.68-.69A3.32,3.32,0,0,1,210.07,436.32Z"/></g></g></g></svg>