<svg width="265" height="240" viewBox="0 0 265 240" fill="none" xmlns="http://www.w3.org/2000/svg">
<ellipse cx="132.5" cy="120" rx="132.5" ry="120" fill="#CF1950"/>
<path d="M151.363 157.467C151.363 166.759 151.363 176.071 151.363 185.363C151.363 186.834 151.479 188.364 151.305 189.816C151.44 188.79 151.575 187.764 151.71 186.718C151.633 187.163 151.517 187.57 151.363 187.976C151.748 187.047 152.134 186.118 152.519 185.208C152.307 185.692 152.057 186.118 151.748 186.544C152.346 185.77 152.962 184.976 153.559 184.202C153.232 184.608 152.885 184.956 152.48 185.266C153.251 184.666 154.04 184.047 154.811 183.447C154.464 183.698 154.098 183.911 153.713 184.085C154.637 183.698 155.562 183.311 156.467 182.924C156.063 183.079 155.658 183.195 155.235 183.272C156.255 183.137 157.276 183.001 158.316 182.866C157.411 182.982 156.486 182.924 155.581 182.924C153.713 182.924 151.864 182.924 149.996 182.924C143.794 182.924 137.592 182.924 131.391 182.924C123.821 182.924 116.271 182.924 108.702 182.924C102.211 182.924 95.7208 182.924 89.2301 182.924C86.1485 182.924 83.0669 182.963 79.9853 182.924C79.6964 182.924 79.3882 182.904 79.0993 182.866C80.1201 183.001 81.1409 183.137 82.1809 183.272C81.7572 183.195 81.3528 183.079 80.9483 182.924C81.8728 183.311 82.7973 183.698 83.7025 184.085C83.3173 183.911 82.9513 183.698 82.6047 183.447C83.3751 184.047 84.1647 184.666 84.9351 185.266C84.5307 184.956 84.1647 184.608 83.8566 184.202C84.4536 184.976 85.07 185.77 85.667 186.544C85.3589 186.118 85.1085 185.692 84.8966 185.208C85.2818 186.137 85.667 187.067 86.0522 187.976C85.8981 187.57 85.7826 187.144 85.7055 186.718C85.8404 187.744 85.9752 188.77 86.11 189.816C85.9367 188.344 86.0522 186.815 86.0522 185.324C86.0522 181.859 86.0522 178.375 86.0522 174.909C86.0522 169.741 86.0522 164.572 86.0522 159.403C86.0522 153.073 86.0522 146.742 86.0522 140.431C86.0522 133.501 86.0522 126.551 86.0522 119.621C86.0522 112.613 86.0522 105.605 86.0522 98.5971C86.0522 92.0732 86.0522 85.5493 86.0522 79.006C86.0522 73.5081 86.0522 67.9909 86.0522 62.493C86.0522 58.5438 86.0522 54.614 86.0522 50.6648C86.0522 48.8257 86.033 47.006 86.0522 45.1669C86.0522 44.8378 86.0715 44.5087 86.11 44.1796C85.9752 45.2056 85.8404 46.2316 85.7055 47.277C85.7826 46.8511 85.8981 46.4446 86.0522 46.0381C85.667 46.9673 85.2818 47.8965 84.8966 48.8064C85.1085 48.3418 85.3589 47.9159 85.667 47.5093C85.07 48.2837 84.4536 49.0774 83.8566 49.8517C84.1262 49.5226 84.4151 49.2516 84.7425 48.9806C83.9721 49.5807 83.1825 50.2002 82.4121 50.8003C82.8165 50.4906 83.2402 50.2583 83.7217 50.0453C82.7973 50.4325 81.8728 50.8197 80.9675 51.2068C81.372 51.052 81.7765 50.9552 82.2002 50.8777C81.1794 51.0133 80.1586 51.1488 79.1186 51.2843C80.0238 51.1681 80.9483 51.2262 81.8535 51.2262C83.7217 51.2262 85.5707 51.2262 87.4389 51.2262C93.6407 51.2262 99.8425 51.2262 106.044 51.2262C113.613 51.2262 121.163 51.2262 128.733 51.2262C135.223 51.2262 141.714 51.2262 148.205 51.2262C151.286 51.2262 154.368 51.1875 157.449 51.2262C157.738 51.2262 158.047 51.2456 158.335 51.2843C157.315 51.1488 156.294 51.0133 155.254 50.8777C155.678 50.9552 156.082 51.052 156.486 51.2068C155.562 50.8197 154.637 50.4325 153.732 50.0453C154.195 50.2389 154.618 50.4906 155.042 50.8003C154.272 50.2002 153.482 49.5807 152.711 48.9806C153.039 49.2516 153.328 49.5226 153.597 49.8517C153 49.0774 152.384 48.2837 151.787 47.5093C152.095 47.9159 152.346 48.3224 152.557 48.8064C152.172 47.8771 151.787 46.9479 151.402 46.0381C151.556 46.4446 151.671 46.8511 151.748 47.277C151.614 46.251 151.479 45.225 151.344 44.1796C151.498 45.3992 151.402 46.6769 151.402 47.8965C151.402 50.3744 151.402 52.8717 151.402 55.3496C151.402 61.1185 151.402 66.9068 151.402 72.6757C151.402 74.0308 151.402 75.3859 151.402 76.7217C151.402 79.7029 152.692 82.8197 154.792 84.9298C156.795 86.9431 160.088 88.4531 162.958 88.3369C165.943 88.2014 169.044 87.2141 171.124 84.9298C173.204 82.6648 174.514 79.8578 174.514 76.7217C174.514 70.0236 174.514 63.3254 174.514 56.6273C174.514 53.1234 174.514 49.6194 174.514 46.1155C174.514 44.0828 174.418 42.0308 173.801 40.0949C171.471 32.9128 165.096 28.1893 157.565 28.0344C153.559 27.957 149.553 28.0344 145.566 28.0344C137.053 28.0344 128.54 28.0344 120.027 28.0344C111.341 28.0344 102.654 28.0344 93.9874 28.0344C89.3842 28.0344 84.7811 28.0151 80.1971 28.0344C80.1201 28.0344 80.0431 28.0344 79.966 28.0344C79.1764 28.0538 78.406 28.1893 77.6355 28.3054C76.7688 28.4216 75.9214 28.499 75.0932 28.7507C72.3583 29.6218 70.6056 30.764 68.4485 32.5644C68.1211 32.8354 67.8321 33.1064 67.5625 33.4355C66.7728 34.3454 65.9447 35.352 65.3283 36.3974C64.1535 38.372 63.5757 40.4047 63.2868 42.6309C63.1712 43.444 63.0364 44.2377 63.0171 45.0508C62.9979 45.8638 63.0171 46.6575 63.0171 47.4706C63.0171 52.0006 63.0171 56.5305 63.0171 61.0605C63.0171 68.4555 63.0171 75.8699 63.0171 83.265C63.0171 92.2281 63.0171 101.172 63.0171 110.135C63.0171 119.427 63.0171 128.719 63.0171 138.012C63.0171 146.316 63.0171 154.621 63.0171 162.926C63.0171 169.005 63.0171 175.084 63.0171 181.162C63.0171 183.756 62.9786 186.35 63.0171 188.944C63.0942 193.61 64.9624 198.663 68.6603 201.682C70.9138 203.541 72.5124 204.586 75.3436 205.477C76.8266 205.941 78.4252 206.096 79.966 206.135C80.0431 206.135 80.1394 206.135 80.2164 206.135C81.7765 206.135 83.3365 206.135 84.8966 206.135C92.1192 206.135 99.3224 206.135 106.545 206.135C115.694 206.135 124.842 206.135 133.991 206.135C140.712 206.135 147.453 206.135 154.175 206.135C155.312 206.135 156.448 206.154 157.584 206.135C160.647 206.077 163.748 205.303 166.348 203.638C169.988 201.315 172.781 197.733 173.917 193.532C174.437 191.597 174.533 189.661 174.533 187.705C174.533 179.71 174.533 171.715 174.533 163.701C174.533 161.61 174.533 159.538 174.533 157.448C174.533 154.466 173.243 151.35 171.143 149.24C169.14 147.226 165.847 145.716 162.977 145.832C159.992 145.968 156.891 146.955 154.811 149.24C152.654 151.524 151.363 154.312 151.363 157.467Z" fill="#E5E5E5"/>
<path d="M112.939 128.719C116.676 128.719 120.393 128.719 124.129 128.719C133.085 128.719 142.041 128.719 150.997 128.719C161.822 128.719 172.665 128.719 183.489 128.719C192.85 128.719 202.21 128.719 211.59 128.719C216.135 128.719 220.7 128.758 225.245 128.719C225.303 128.719 225.38 128.719 225.438 128.719C228.404 128.719 231.505 127.422 233.604 125.312C235.607 123.299 237.109 119.988 236.994 117.104C236.859 114.103 235.877 110.987 233.604 108.896C231.351 106.805 228.558 105.489 225.438 105.489C221.701 105.489 217.984 105.489 214.248 105.489C205.292 105.489 196.336 105.489 187.38 105.489C176.556 105.489 165.712 105.489 154.888 105.489C145.527 105.489 136.167 105.489 126.787 105.489C122.242 105.489 117.677 105.45 113.132 105.489C113.074 105.489 112.997 105.489 112.939 105.489C109.973 105.489 106.872 106.786 104.773 108.896C102.77 110.909 101.268 114.22 101.383 117.104C101.518 120.105 102.5 123.221 104.773 125.312C107.026 127.403 109.8 128.719 112.939 128.719Z" fill="#E5E5E5"/>
<path d="M189.691 97.4356C192.792 100.552 195.893 103.669 198.994 106.786C203.943 111.761 208.874 116.717 213.824 121.692C214.96 122.834 216.116 123.996 217.252 125.138C217.252 119.659 217.252 114.181 217.252 108.702C214.151 111.819 211.05 114.936 207.949 118.053C203 123.028 198.069 127.984 193.119 132.959C191.983 134.101 190.827 135.263 189.691 136.405C187.592 138.515 186.301 141.632 186.301 144.613C186.301 147.459 187.553 150.866 189.691 152.821C191.887 154.854 194.776 156.364 197.857 156.228C200.92 156.093 203.809 155.047 206.023 152.821C209.124 149.704 212.225 146.587 215.326 143.471C220.276 138.495 225.207 133.54 230.156 128.564C231.293 127.422 232.448 126.261 233.585 125.119C237.995 120.685 238.015 113.136 233.585 108.683C230.484 105.566 227.383 102.449 224.282 99.3327C219.332 94.3575 214.402 89.4017 209.452 84.4265C208.315 83.2843 207.16 82.1228 206.023 80.9806C203.924 78.8705 200.823 77.5735 197.857 77.5735C195.026 77.5735 191.636 78.8318 189.691 80.9806C187.669 83.1875 186.166 86.0913 186.301 89.1887C186.436 92.2861 187.476 95.2093 189.691 97.4356Z" fill="#E5E5E5"/>
</svg>
