<svg width="268" height="242" viewBox="0 0 268 242" fill="none" xmlns="http://www.w3.org/2000/svg">
<ellipse cx="134" cy="121" rx="134" ry="120" fill="#CF1950"/>
<path d="M133.5 241C206.678 241 266 187.274 266 121C266 54.7258 206.678 1 133.5 1C60.3223 1 1 54.7258 1 121C1 187.274 60.3223 241 133.5 241Z" stroke="#CF1950" stroke-width="2"/>
<path fill-rule="evenodd" clip-rule="evenodd" d="M167.598 179.385L165.321 187.823C158.489 190.26 153.037 192.12 148.965 193.401C144.894 194.682 140.166 195.323 134.784 195.323C126.502 195.323 120.067 193.495 115.478 189.839C110.889 186.182 108.594 181.542 108.594 175.917C108.594 173.729 108.767 171.495 109.112 169.214C109.457 166.932 110.009 164.354 110.768 161.479L119.256 134.104C120.015 131.479 120.654 128.995 121.171 126.651C121.689 124.307 121.948 122.167 121.948 120.229C121.948 116.729 121.154 114.292 119.567 112.917C117.98 111.542 114.943 110.854 110.457 110.854C108.249 110.854 105.989 111.167 103.677 111.792C101.365 112.417 99.3812 113.01 97.725 113.573L100.002 105.135C105.592 103.073 110.94 101.307 116.047 99.8385C121.154 98.3698 125.985 97.6354 130.539 97.6354C138.752 97.6354 145.083 99.4323 149.535 103.026C153.986 106.62 156.211 111.292 156.211 117.042C156.211 118.229 156.056 120.323 155.745 123.323C155.435 126.323 154.866 129.073 154.037 131.573L145.549 158.854C144.859 161.042 144.238 163.542 143.686 166.354C143.134 169.167 142.858 171.292 142.858 172.729C142.858 176.354 143.755 178.823 145.549 180.135C147.343 181.448 150.449 182.104 154.866 182.104C156.936 182.104 159.282 181.776 161.905 181.12C164.527 180.464 166.425 179.885 167.598 179.385ZM169.772 64.9167C169.772 69.6667 167.788 73.7135 163.82 77.0573C159.852 80.4011 155.073 82.0729 149.483 82.0729C143.893 82.0729 139.097 80.4011 135.094 77.0573C131.091 73.7135 129.09 69.6667 129.09 64.9167C129.09 60.1666 131.091 56.1042 135.094 52.7292C139.097 49.3542 143.893 47.6667 149.483 47.6667C155.073 47.6667 159.852 49.3542 163.82 52.7292C167.788 56.1042 169.772 60.1666 169.772 64.9167Z" fill="#E5E5E5"/>
</svg>
