<svg width="187" height="128" viewBox="0 0 187 128" fill="none" xmlns="http://www.w3.org/2000/svg">
<path d="M6.82 0.824005C3.30434 0.824005 0.936402 3.73911 0.910004 6.41601V110.8C0.910398 113.728 3.72572 116.392 6.82 116.392H127.175C133.329 123.221 142.424 127.576 152.6 127.576C171.026 127.576 186.09 113.323 186.09 95.888C186.09 83.1053 177.974 72.0528 166.39 67.0541V6.41601C166.39 3.48803 163.574 0.824378 160.48 0.824005H6.82ZM12.73 12.008H154.57V64.3165C153.909 64.2792 153.27 64.2009 152.6 64.2009C146.89 64.2009 141.494 65.5794 136.779 67.9872L123.358 54.7061C122.743 54.1017 121.992 53.6362 121.16 53.3438C120.329 53.0514 119.439 52.9396 118.556 53.0169C117.327 53.1242 116.165 53.5927 115.231 54.3568L88.6981 76.316L54.5925 39.968C54.0013 39.3401 53.2681 38.8464 52.4474 38.5237C51.6267 38.201 50.7397 38.0575 49.8523 38.104C48.3606 38.1758 46.9529 38.7793 45.9123 39.7931L12.73 72.588V12.008ZM89.56 15.736C79.8381 15.736 71.83 23.3132 71.83 32.512C71.83 41.7108 79.8381 49.288 89.56 49.288C99.282 49.288 107.29 41.7108 107.29 32.512C107.29 23.3132 99.282 15.736 89.56 15.736ZM89.56 26.92C92.894 26.92 95.47 29.3574 95.47 32.512C95.47 35.6666 92.894 38.104 89.56 38.104C86.226 38.104 83.65 35.6666 83.65 32.512C83.65 29.3574 86.226 26.92 89.56 26.92ZM49.9752 51.9091L100.087 105.208H12.73V88.7815L49.9752 51.9091V51.9091ZM118.741 66.297L127.544 74.9761C122.33 80.5672 119.11 87.8872 119.11 95.888C119.11 99.1375 119.678 102.251 120.649 105.208H115.909L96.5781 84.6459L118.741 66.297V66.297ZM152.6 75.384C164.638 75.384 174.27 84.4977 174.27 95.888C174.27 107.278 164.638 116.392 152.6 116.392C140.562 116.392 130.93 107.278 130.93 95.888C130.93 84.4977 140.562 75.384 152.6 75.384ZM152.6 79.112C149.336 79.112 146.69 81.6155 146.69 84.704V95.888C146.69 98.9763 149.336 101.48 152.6 101.48H162.45C165.714 101.48 168.36 98.9763 168.36 95.888C168.36 92.7997 165.714 90.296 162.45 90.296H158.51V84.704C158.51 81.6155 155.864 79.112 152.6 79.112Z" fill="#CF1950"/>
</svg>
