<svg id="Capa_1" enable-background="new 0 0 512 512" height="512" viewBox="0 0 512 512" width="512" xmlns="http://www.w3.org/2000/svg"><g><path d="m445.599 189.599c0-104.545-85.054-189.599-189.6-189.599-104.544 0-189.598 85.054-189.598 189.599 0 32.894 8.56 65.305 24.753 93.729 23.57 41.371 100.783 150.114 135.579 198.672h-88.066v30h234.667v-30h-88.067c34.796-48.558 112.01-157.301 135.58-198.672 16.192-28.424 24.752-60.835 24.752-93.729zm-189.6-159.599c88.004 0 159.6 71.596 159.6 159.599 0 27.695-7.199 54.971-20.819 78.878-23.735 41.662-107.261 158.91-138.78 202.841-31.518-43.93-115.044-161.179-138.779-202.841-13.62-23.907-20.819-51.182-20.819-78.878-.001-88.003 71.595-159.599 159.597-159.599z"/><path d="m243.752 402.445h24.494c36.809-52.052 84.118-120.123 100.467-148.819 11.047-19.39 16.886-41.531 16.886-64.027 0-71.461-58.138-129.599-129.6-129.599-71.461 0-129.599 58.138-129.599 129.599 0 22.496 5.839 44.636 16.886 64.028 16.345 28.688 63.656 96.762 100.466 148.818zm12.247-312.445c54.92 0 99.6 44.68 99.6 99.599 0 17.298-4.478 34.303-12.952 49.177-11.287 19.811-41.841 65.279-86.648 128.983-44.809-63.708-75.362-109.177-86.646-128.983-8.474-14.874-12.952-31.879-12.952-49.177 0-54.919 44.68-99.599 99.598-99.599z"/><path d="m255.999 255.399c26.768 0 51.369-15.689 62.675-39.97l-27.195-12.664c-1.049 2.252-2.317 4.358-3.742 6.332-7.273 10.074-19.069 16.302-31.738 16.302-12.668 0-24.463-6.227-31.737-16.302-1.425-1.973-2.693-4.08-3.742-6.332l-27.195 12.664c11.306 24.281 35.908 39.97 62.674 39.97z"/><path d="m204.934 149h30v30h-30z"/><path d="m277.066 149h30v30h-30z"/></g></svg>